SplineFontDB: 3.2
FontName: xkcdScript
FullName: xkcd-Script-Regular
FamilyName: xkcd Script
Weight: Regular
Copyright: Copyright (c) ipython/xkcd-font contributors, Creative Commons Attribution-NonCommercial 3.0 License
UComments: "Created with FontForge (http://fontforge.org)"
Version: 1.0
ItalicAngle: 0
UnderlinePosition: -102.4
UnderlineWidth: 51.2
Ascent: 600
Descent: 256
InvalidEm: 0
LayerCount: 2
Layer: 0 0 "Back" 1
Layer: 1 0 "Fore" 0
XUID: [-1]
UniqueID: -1
StyleMap: 0x0000
FSType: 0
OS2Version: 0
OS2_WeightWidthSlopeOnly: 0
OS2_UseTypoMetrics: 1
CreationTime: 946684800
ModificationTime: 946684800
PfmFamily: 64
TTFWeight: 400
TTFWidth: 5
LineGap: 77
VLineGap: 77
Panose: 3 0 5 3 0 0 0 0 0 0
OS2TypoAscent: 855
OS2TypoAOffset: 0
OS2TypoDescent: -270
OS2TypoDOffset: 0
OS2TypoLinegap: 77
OS2WinAscent: 855
OS2WinAOffset: 0
OS2WinDescent: 270
OS2WinDOffset: 0
HheadAscent: 855
HheadAOffset: 0
HheadDescent: -270
HheadDOffset: 0
OS2SubXSize: 556
OS2SubYSize: 599
OS2SubXOff: 0
OS2SubYOff: 119
OS2SupXSize: 556
OS2SupYSize: 599
OS2SupXOff: 0
OS2SupYOff: 410
OS2StrikeYSize: 42
OS2StrikeYPos: 221
OS2Vendor: 'PfEd'
Lookup: 4 0 1 "ligatures" { "liga"  } ['liga' ('latn' <'dflt' > ) ]
Lookup: 260 0 0 "above" { "above_sub"  } ['mark' ('latn' <'dflt' > ) ]
Lookup: 258 0 0 "kerning" { "kern"  } ['kern' ('latn' <'dflt' > ) ]
DEI: 91125
Encoding: UnicodeFull
UnicodeInterp: none
NameList: AGL For New Fonts
DisplaySize: -48
AntiAlias: 1
FitToEm: 0
AnchorClass2: "above" "above_sub"
BeginChars: 1114155 414

StartChar: a
Encoding: 97 97 0
Width: 421
VWidth: 528
Flags: HW
AnchorPoint: "above" 201.044 427.225 basechar 0
LayerCount: 2
Fore
SplineSet
162 397 m 0
 167 397 182 409 208 407 c 0
 218 406 243 397 244 394 c 0
 246 389 265 377 263 374 c 0
 263 374 280 352 283 335 c 0
 285 325 286 319 288 319 c 0
 289 319 290 320 290 321 c 0
 290 321 293 331 318 327 c 0
 343 324 345 321 347 304 c 0
 348 299 349 295 350 294 c 0
 355 288 349 241 338 209 c 0
 325 171 331 93 373 66 c 0
 384 59 385 53 374 31 c 0
 365 12 360 6 349 4 c 0
 326 0 286 43 286 48 c 0
 286 49 283 56 279 64 c 2
 272 78 l 1
 263 70 l 2
 262 69 215 27 192 21 c 0
 134 6 117 7 73 31 c 0
 53 42 32 89 32 92 c 0
 32 93 17 133 21 145 c 0
 25 154 17 169 24 203 c 0
 34 247 62 300 71 311 c 0
 102 352 113 365 152 391 c 0
 156 394 160 397 162 397 c 0
264 276 m 0
 233 273 216 338 205 338 c 0
 202 338 167 315 162 309 c 0
 161 308 96 235 96 166 c 0
 96 23 207 103 237 153 c 0
 248 172 258 200 258 212 c 0
 258 228 266 270 266 271 c 0
 267 275 267 276 264 276 c 0
EndSplineSet
EndChar

StartChar: k
Encoding: 107 107 1
Width: 443
VWidth: 715
Flags: HW
AnchorPoint: "above" 211.58 559.497 basechar 0
LayerCount: 2
Fore
SplineSet
55 516 m 0
 55 542 77 540 91 539 c 0
 109 538 114 536 114 529 c 0
 114 527 115 522 117 520 c 0
 125 508 118 340 113 301 c 2
 112 292 l 1
 125 304 l 2
 158 335 219 375 220 375 c 0
 224 375 307 434 308 434 c 0
 321 438 334 437 338 434 c 0
 341 432 354 410 360 399 c 0
 364 391 363 381 357 376 c 0
 350 370 337 360 331 357 c 0
 325 353 273 319 257 311 c 0
 256 310 177 254 169 244 c 0
 165 239 182 230 182 230 c 0
 186 230 218 202 223 199 c 0
 249 181 284 129 317 96 c 0
 365 47 393 19 392 17 c 0
 389 14 400 10 401 -6 c 0
 402 -12 402 -16 403 -17 c 0
 404 -19 397 -31 394 -31 c 0
 391 -31 392 -35 375 -40 c 0
 369 -42 362 -44 361 -45 c 0
 358 -47 343 -46 343 -43 c 0
 343 -42 341 -41 340 -41 c 0
 336 -41 338 -36 315 -13 c 0
 300 2 269 33 210 103 c 0
 194 123 158 155 143 164 c 0
 132 171 112 179 108 179 c 0
 105 179 100 99 100 98 c 0
 100 67 98 23 96 20 c 0
 85 -2 38 1 26 14 c 0
 20 21 19 25 21 48 c 0
 21 49 21 90 23 108 c 0
 23 111 38 291 40 365 c 0
 43 463 55 500 55 516 c 0
EndSplineSet
EndChar

StartChar: l
Encoding: 108 108 2
Width: 171
VWidth: 808
Flags: HW
AnchorPoint: "above" 75.5367 639 basechar 0
LayerCount: 2
Fore
SplineSet
44 587 m 0
 51 612 53 619 68 619 c 0
 82 619 108 614 111 610 c 0
 112 608 113 601 113 594 c 0
 112 572 118 587 114 565 c 0
 113 557 112 538 112 522 c 0
 112 458 90 250 97 236 c 0
 100 232 99 141 102 125 c 0
 105 109 109 72 113 55 c 0
 115 50 127 53 129 31 c 0
 130 20 132 20 131 17 c 0
 131 16 131 12 131 9 c 0
 131 3 117 -13 109 -16 c 0
 102 -19 77 -17 71 -13 c 0
 63 -8 50 8 49 13 c 0
 45 30 34 48 32 91 c 0
 32 92 25 150 25 167 c 0
 25 213 14 231 24 322 c 0
 29 364 37 497 37 532 c 0
 37 561 38 565 44 587 c 0
EndSplineSet
EndChar

StartChar: m
Encoding: 109 109 3
Width: 575
VWidth: 609
Flags: HW
AnchorPoint: "above" 277.535 474.117 basechar 0
LayerCount: 2
Fore
SplineSet
241 104 m 0
 200 104 196 114 196 197 c 0
 196 243 193 312 190 330 c 0
 188 346 179 365 170 372 c 2
 163 378 l 1
 154 368 l 2
 124 335 110 264 110 263 c 0
 110 253 101 234 103 211 c 0
 105 191 105 47 108 33 c 0
 110 26 109 24 106 17 c 0
 99 2 99 2 74 1 c 0
 56 0 51 -1 47 2 c 0
 37 8 32 16 32 24 c 0
 32 45 20 57 20 119 c 0
 20 124 20 234 33 258 c 0
 34 260 35 279 36 306 c 2
 37 350 l 1
 42 359 l 2
 47 367 49 367 57 368 c 2
 66 369 l 1
 75 386 l 2
 118 460 166 454 167 454 c 0
 170 453 175 453 183 451 c 0
 194 449 221 432 228 422 c 0
 239 407 265 366 266 328 c 0
 266 315 308 413 402 438 c 0
 414 441 445 441 457 439 c 0
 464 438 483 426 490 419 c 0
 499 410 518 377 518 370 c 0
 518 369 529 344 531 313 c 0
 531 307 532 294 533 286 c 0
 540 235 527 125 527 123 c 0
 526 118 523 90 518 38 c 0
 516 15 515 14 509 8 c 0
 503 2 503 2 483 1 c 2
 463 0 l 1
 456 8 l 2
 441 24 439 25 449 104 c 0
 454 139 464 223 460 250 c 0
 459 259 458 274 457 283 c 0
 453 337 445 365 431 367 c 0
 424 368 407 363 394 355 c 0
 382 348 349 313 334 293 c 0
 333 292 290 226 273 133 c 0
 272 127 264 112 260 108 c 0
 257 105 253 104 241 104 c 0
EndSplineSet
EndChar

StartChar: n
Encoding: 110 110 4
Width: 371
VWidth: 564
Flags: HW
AnchorPoint: "above" 175.304 449.61 basechar 0
LayerCount: 2
Fore
SplineSet
175 428 m 0
 182 432 217 428 223 422 c 0
 232 413 227 426 248 405 c 0
 285 368 306 286 306 283 c 0
 306 271 324 215 326 172 c 0
 326 162 327 151 328 148 c 0
 332 123 332 52 328 31 c 0
 326 17 322 0 314 -12 c 0
 312 -16 310 -19 310 -20 c 0
 310 -20 294 -30 277 -18 c 0
 272 -14 266 -10 262 -9 c 0
 250 -4 246 6 250 25 c 0
 250 27 262 107 250 186 c 0
 248 199 236 252 230 275 c 0
 223 304 203 349 195 353 c 0
 194 353 181 358 145 322 c 0
 122 299 117 292 108 271 c 0
 96 243 95 235 96 186 c 0
 97 162 98 140 99 137 c 0
 106 116 111 41 106 30 c 0
 105 27 103 24 104 24 c 0
 104 24 103 19 100 14 c 0
 93 1 86 -2 59 -3 c 0
 33 -4 25 38 25 40 c 0
 25 45 23 56 22 65 c 0
 20 81 19 89 20 281 c 0
 20 369 19 362 41 367 c 0
 54 370 55 370 61 367 c 0
 64 365 67 362 67 361 c 0
 67 352 77 361 83 366 c 0
 127 410 139 409 147 417 c 0
 152 422 171 425 175 428 c 0
EndSplineSet
EndChar

StartChar: o
Encoding: 111 111 5
Width: 403
VWidth: 542
Flags: HW
AnchorPoint: "above" 191.965 436.381 basechar 0
LayerCount: 2
Fore
SplineSet
177 409 m 0
 179 409 187 413 197 415 c 0
 219 419 251 414 267 404 c 0
 267 404 273 402 294 387 c 0
 302 382 326 357 327 353 c 0
 329 347 341 329 341 327 c 0
 341 325 378 256 358 178 c 0
 351 153 347 142 345 140 c 0
 342 138 339 128 329 114 c 0
 297 71 297 71 285 59 c 0
 275 49 247 28 243 28 c 0
 242 28 207 5 170 -2 c 0
 139 -8 97 -1 79 13 c 0
 75 16 70 19 67 21 c 0
 52 30 33 61 24 93 c 0
 20 107 20 111 20 153 c 0
 20 203 21 207 36 255 c 0
 51 306 72 333 72 334 c 0
 72 335 109 393 153 405 c 0
 162 407 175 409 177 409 c 0
234 297 m 0
 230 297 217 312 215 312 c 0
 213 312 211 319 203 324 c 0
 193 329 193 334 191 331 c 0
 189 328 176 328 174 331 c 0
 171 336 165 332 153 319 c 0
 138 302 107 269 93 175 c 0
 89 146 91 125 100 102 c 0
 110 76 118 71 148 71 c 0
 183 71 235 98 272 163 c 0
 277 171 300 218 281 278 c 0
 278 286 265 312 263 312 c 0
 262 312 238 297 234 297 c 0
EndSplineSet
EndChar

StartChar: p
Encoding: 112 112 6
Width: 442
VWidth: 639
Flags: HW
AnchorPoint: "above" 211.095 464.314 basechar 0
LayerCount: 2
Fore
SplineSet
219 443 m 0
 223 445 222 445 241 441 c 0
 274 433 290 428 305 417 c 0
 310 413 316 410 317 410 c 0
 318 411 369 367 386 298 c 0
 389 285 391 289 394 277 c 0
 404 237 403 207 399 171 c 0
 399 170 392 132 383 119 c 0
 379 113 376 107 376 106 c 0
 376 105 349 72 328 62 c 0
 321 59 316 55 315 54 c 0
 314 53 247 28 189 43 c 0
 171 47 149 51 121 65 c 2
 106 72 l 1
 106 53 l 2
 106 52 103 29 102 -46 c 0
 101 -89 97 -169 97 -170 c 0
 97 -185 86 -205 78 -205 c 0
 76 -205 72 -206 70 -207 c 0
 63 -210 34 -199 33 -198 c 0
 21 -191 18 -175 22 -146 c 0
 26 -118 35 199 39 221 c 0
 41 236 40 257 36 265 c 0
 33 272 33 316 41 334 c 0
 44 340 46 346 46 348 c 0
 46 356 79 393 83 399 c 0
 91 411 156 435 157 436 c 0
 160 441 219 443 219 443 c 0
226 368 m 0
 198 371 186 370 165 363 c 0
 141 356 123 346 113 333 c 2
 106 324 l 1
 107 311 l 2
 108 304 108 264 109 223 c 2
 111 148 l 1
 117 148 l 2
 121 148 129 145 141 138 c 0
 164 124 169 122 195 117 c 0
 231 109 293 105 319 157 c 0
 340 199 322 358 226 368 c 0
EndSplineSet
EndChar

StartChar: q
Encoding: 113 113 7
Width: 424
VWidth: 547
Flags: HW
AnchorPoint: "above" 221.5 384 basechar 0
LayerCount: 2
Fore
SplineSet
306 251 m 1
 285 259 257 282 257 282 c 0
 257 282 236 293 219 293 c 0
 174 293 123 230 107 203 c 0
 97 183 91 165 91 131 c 0
 91 87 117 74 143 68 c 0
 153 65 158 65 164 65 c 0
 176 65 210 65 252 90 c 0
 271 100 275 103 276 108 c 0
 289 170 291 183 292 189 c 0
 293 201 301 224 306 251 c 1
263 14 m 1
 262 14 215 -6 167 -6 c 0
 153 -6 141 -5 118 1 c 0
 96 6 48 38 46 49 c 0
 45 52 27 77 25 93 c 0
 24 98 20 111 20 117 c 0
 20 121 18 128 18 135 c 0
 18 178 39 222 48 240 c 0
 58 260 111 327 124 328 c 1
 130 334 130 334 133 334 c 0
 153 349 173 356 177 356 c 0
 177 356 192 363 215 364 c 0
 220 364 222 363 230 363 c 0
 248 363 267 353 267 353 c 2
 272 350 285 345 293 338 c 0
 307 327 317 324 325 313 c 1
 330 320 335 322 345 322 c 0
 386 322 386 314 386 305 c 0
 386 275 377 232 374 229 c 0
 374 228 355 127 355 113 c 0
 355 111 357 107 357 100 c 0
 357 95 355 90 351 85 c 0
 342 70 337 0 337 -33 c 0
 337 -58 337 -106 361 -154 c 0
 365 -161 371 -169 372 -170 c 0
 375 -167 379 -165 383 -165 c 0
 395 -165 405 -177 411 -179 c 0
 422 -184 425 -206 425 -210 c 0
 425 -219 411 -237 393 -241 c 0
 377 -245 377 -245 373 -245 c 0
 361 -245 322 -238 296 -186 c 0
 287 -168 276 -138 272 -122 c 0
 270 -114 268 -106 267 -104 c 0
 264 -96 262 -83 262 -76 c 0
 262 -72 263 -72 263 -71 c 0
 263 -70 l 0
 261 -56 260 -44 260 -32 c 0
 260 -19 261 -5 263 14 c 1
EndSplineSet
EndChar

StartChar: r
Encoding: 114 114 8
Width: 437
VWidth: 554
Flags: HW
AnchorPoint: "above" 208.299 446.044 basechar 0
LayerCount: 2
Fore
SplineSet
65 376 m 0
 66 376 111 421 201 424 c 0
 216 425 229 426 230 426 c 0
 235 427 312 411 363 382 c 0
 368 379 376 370 384 362 c 0
 398 345 398 346 395 327 c 0
 394 319 385 311 377 309 c 0
 374 308 368 307 366 305 c 0
 356 299 341 302 324 316 c 0
 272 359 181 350 173 348 c 0
 143 341 119 325 107 305 c 0
 101 294 100 291 104 291 c 0
 106 291 107 288 107 278 c 0
 107 195 113 124 114 92 c 0
 115 67 116 42 118 35 c 0
 123 13 125 -6 72 -6 c 0
 51 -6 44 -5 37 52 c 0
 28 102 20 148 20 220 c 0
 20 276 20 280 24 296 c 0
 35 338 61 365 62 369 c 0
 63 373 64 376 65 376 c 0
EndSplineSet
EndChar

StartChar: s
Encoding: 115 115 9
Width: 383
VWidth: 580
Flags: HW
AnchorPoint: "above" 181.516 469.971 basechar 0
LayerCount: 2
Fore
SplineSet
168 449 m 0
 176 450 198 453 227 439 c 0
 240 433 241 432 245 423 c 0
 247 418 250 412 250 410 c 0
 250 409 245 400 240 390 c 0
 212 340 207 391 150 367 c 0
 112 351 86 304 98 300 c 0
 99 299 113 300 128 302 c 2
 156 304 l 1
 182 318 l 2
 198 326 225 340 247 339 c 0
 263 339 276 336 278 334 c 0
 278 334 313 318 325 295 c 0
 327 291 329 288 328 288 c 0
 326 288 332 282 331 274 c 0
 330 263 345 224 343 195 c 0
 340 150 325 120 290 87 c 0
 262 61 242 42 229 40 c 0
 224 39 213 32 162 21 c 0
 158 20 146 19 136 19 c 0
 118 19 118 19 98 29 c 0
 82 37 77 40 72 47 c 0
 64 59 54 68 41 89 c 0
 28 112 24 151 32 161 c 0
 41 172 41 173 60 175 c 0
 84 178 87 176 91 156 c 0
 93 147 101 140 101 133 c 0
 101 127 111 113 124 101 c 0
 133 92 133 92 142 93 c 0
 164 96 196 100 214 117 c 0
 220 122 231 133 239 140 c 0
 245 145 265 164 268 188 c 0
 269 198 260 256 256 261 c 0
 252 267 240 264 220 254 c 0
 179 233 166 230 115 226 c 0
 79 223 83 229 61 232 c 0
 57 233 33 249 25 274 c 0
 24 276 23 277 23 277 c 1
 17 309 18 328 40 367 c 0
 71 424 143 446 168 449 c 0
EndSplineSet
EndChar

StartChar: t
Encoding: 116 116 10
Width: 371
VWidth: 787
Flags: HW
AnchorPoint: "above" 175.614 626 basechar 0
LayerCount: 2
Fore
SplineSet
147 593 m 0
 147 597 157 606 157 606 c 0
 157 606 167 604 178 602 c 0
 210 596 209 601 196 513 c 0
 189 468 180 432 180 431 c 2
 178 423 l 1
 215 423 l 2
 251 423 290 420 299 416 c 0
 306 414 310 405 310 395 c 0
 310 390 311 386 312 385 c 0
 314 383 312 369 310 369 c 0
 309 369 304 348 290 348 c 0
 168 348 168 348 167 345 c 0
 167 344 154 263 154 218 c 0
 154 146 164 110 189 86 c 0
 222 55 267 85 274 92 c 2
 283 101 l 1
 297 100 l 2
 332 97 332 85 331 66 c 0
 330 46 327 41 316 31 c 0
 310 26 280 9 280 11 c 0
 280 12 212 -17 158 17 c 0
 137 31 132 35 115 59 c 0
 108 69 96 94 95 101 c 0
 94 104 93 113 91 121 c 0
 83 151 78 202 81 232 c 0
 81 233 87 316 89 322 c 0
 94 340 92 340 64 339 c 0
 44 338 44 338 35 344 c 0
 27 349 25 351 23 358 c 0
 20 370 19 388 21 392 c 0
 23 397 32 405 36 406 c 0
 41 408 90 414 96 414 c 0
 103 414 102 414 106 441 c 0
 118 518 141 581 141 582 c 0
 141 586 147 588 147 593 c 0
EndSplineSet
EndChar

StartChar: b
Encoding: 98 98 11
Width: 368
VWidth: 784
Flags: HW
AnchorPoint: "above" 174.068 632 basechar 0
LayerCount: 2
Fore
SplineSet
212 417 m 0
 246 417 259 410 259 410 c 0
 260 410 298 393 311 345 c 0
 322 308 331 229 327 208 c 0
 325 196 329 197 324 177 c 0
 316 145 309 132 309 132 c 0
 309 127 281 84 272 76 c 0
 258 63 221 43 201 38 c 0
 187 35 155 35 141 38 c 0
 130 40 106 49 102 53 c 0
 85 68 73 58 73 59 c 0
 73 63 60 48 49 54 c 0
 16 71 18 103 23 139 c 0
 31 193 44 512 45 516 c 0
 51 556 47 590 54 601 c 0
 59 609 64 612 82 612 c 0
 99 612 105 609 110 598 c 0
 114 589 116 479 113 433 c 0
 112 416 111 394 110 386 c 2
 109 371 l 1
 116 376 l 2
 122 380 169 417 212 417 c 0
254 266 m 0
 247 365 214 350 187 337 c 0
 128 309 114 229 114 228 c 0
 110 206 98 159 98 148 c 2
 98 140 l 1
 116 127 l 2
 153 101 174 100 206 117 c 0
 218 124 224 129 233 143 c 0
 254 176 259 202 254 266 c 0
EndSplineSet
EndChar

StartChar: u
Encoding: 117 117 12
Width: 420
VWidth: 547
Flags: HW
AnchorPoint: "above" 199.804 442.421 basechar 0
LayerCount: 2
Fore
SplineSet
302 411 m 0
 325 426 341 432 360 392 c 0
 372 366 376 351 378 323 c 0
 380 290 381 206 379 199 c 0
 378 195 376 183 374 171 c 0
 369 135 358 105 344 87 c 0
 332 72 316 55 312 54 c 0
 311 54 279 29 210 14 c 0
 157 2 65 -3 35 92 c 0
 20 140 15 197 24 243 c 0
 29 271 28 302 36 313 c 0
 38 316 48 355 48 358 c 0
 48 365 63 400 67 405 c 0
 72 410 78 416 78 415 c 0
 78 414 79 415 81 416 c 0
 83 418 88 417 105 410 c 0
 131 400 132 397 128 381 c 0
 124 366 130 371 122 349 c 0
 101 285 102 229 97 224 c 0
 95 221 97 156 100 137 c 0
 104 116 108 106 118 94 c 0
 127 84 129 84 161 83 c 0
 190 83 227 90 248 102 c 0
 282 121 293 137 299 179 c 0
 301 193 303 206 304 207 c 0
 306 212 306 288 304 292 c 0
 296 307 311 321 286 377 c 0
 278 396 286 401 302 411 c 0
EndSplineSet
EndChar

StartChar: v
Encoding: 118 118 13
Width: 404
VWidth: 560
Flags: HW
AnchorPoint: "above" 192.269 445.577 basechar 0
LayerCount: 2
Fore
SplineSet
84 376 m 0
 84 373 92 362 92 354 c 0
 92 346 106 318 126 237 c 0
 143 169 143 169 163 108 c 2
 168 91 l 1
 187 127 l 1
 276 310 269 384 301 416 c 0
 306 421 311 425 311 425 c 1
 311 423 317 427 323 425 c 0
 329 423 359 405 361 402 c 0
 366 396 365 388 360 376 c 0
 357 370 343 330 329 288 c 0
 294 179 293 177 248 87 c 0
 233 57 221 32 221 31 c 0
 220 26 201 -2 195 -7 c 0
 195 -7 162 -22 145 -14 c 0
 135 -9 117 10 115 18 c 0
 113 26 105 44 97 68 c 0
 94 78 89 95 85 106 c 0
 63 174 43 271 27 327 c 0
 27 328 15 380 23 391 c 0
 39 413 75 405 75 397 c 0
 75 392 78 393 78 388 c 0
 78 383 84 379 84 376 c 0
EndSplineSet
EndChar

StartChar: w
Encoding: 119 119 14
Width: 466
VWidth: 607
Flags: HW
AnchorPoint: "above" 223.072 487.139 basechar 0
LayerCount: 2
Fore
SplineSet
257 7 m 0
 242 7 209 58 209 61 c 0
 209 62 196 92 192 110 c 0
 191 111 187 104 182 94 c 0
 141 8 80 16 51 66 c 0
 39 87 48 80 43 85 c 0
 42 86 28 124 25 172 c 0
 23 213 20 178 20 295 c 2
 20 371 l 1
 25 381 l 2
 32 395 35 396 52 396 c 0
 73 396 80 392 80 377 c 0
 80 361 83 396 90 267 c 0
 90 265 98 121 108 111 c 0
 115 104 154 212 154 213 c 0
 154 214 159 222 164 230 c 0
 177 250 187 254 208 250 c 0
 229 246 225 236 233 231 c 0
 235 230 236 227 236 225 c 0
 236 221 241 216 241 203 c 0
 242 193 247 170 249 167 c 0
 254 160 257 122 275 88 c 0
 285 71 284 72 295 83 c 0
 313 102 322 120 336 168 c 0
 353 226 345 255 350 296 c 0
 350 297 356 400 350 407 c 0
 344 413 348 448 355 455 c 0
 360 460 372 472 386 465 c 0
 389 463 391 463 392 463 c 0
 397 463 399 462 401 460 c 0
 402 459 405 457 408 455 c 0
 426 444 428 401 425 396 c 0
 422 389 428 398 423 302 c 0
 418 195 418 195 400 136 c 0
 400 135 378 68 349 38 c 0
 343 32 339 27 339 26 c 0
 339 25 331 18 321 12 c 2
 303 0 l 1
 286 0 l 2
 270 0 260 2 260 6 c 0
 260 7 258 7 257 7 c 0
EndSplineSet
EndChar

StartChar: x
Encoding: 120 120 15
Width: 352
VWidth: 529
Flags: HW
AnchorPoint: "above" 203.802 431.047 basechar 0
LayerCount: 2
Fore
SplineSet
61 329 m 0
 61 333 50 342 50 354 c 0
 50 365 73 387 80 386 c 0
 93 384 101 371 106 372 c 0
 108 373 199 282 204 282 c 0
 207 282 268 362 275 370 c 0
 286 383 281 387 289 393 c 0
 296 398 300 408 305 410 c 0
 312 413 332 409 332 405 c 0
 332 400 355 396 356 375 c 0
 357 363 327 328 327 328 c 0
 323 323 306 302 291 283 c 0
 252 232 255 236 257 233 c 0
 267 218 314 206 374 98 c 0
 380 87 386 76 388 74 c 0
 392 70 393 60 389 56 c 0
 388 55 385 51 384 48 c 0
 382 42 377 38 372 38 c 0
 367 38 359 28 356 29 c 0
 355 29 351 30 348 30 c 0
 341 31 339 37 334 39 c 0
 329 41 299 96 291 107 c 0
 275 128 239 165 226 173 c 0
 223 175 219 178 217 180 c 0
 214 183 210 186 202 174 c 0
 197 166 148 114 141 105 c 0
 140 103 140 103 90 43 c 0
 65 13 58 9 40 22 c 0
 15 40 12 44 20 59 c 0
 30 81 145 212 147 213 c 0
 148 214 152 217 156 221 c 2
 162 228 l 1
 154 236 l 2
 150 241 145 244 144 244 c 0
 142 244 61 323 61 329 c 0
EndSplineSet
EndChar

StartChar: y
Encoding: 121 121 16
Width: 468
VWidth: 512
Flags: HW
AnchorPoint: "above" 224 376 basechar 0
LayerCount: 2
Fore
SplineSet
378 350 m 0
 385 350 410 341 410 318 c 0
 410 308 408 293 408 283 c 0
 408 269 428 190 428 127 c 0
 428 73 423 42 417 10 c 0
 413 -9 402 -32 401 -42 c 0
 401 -60 363 -117 363 -117 c 0
 319 -170 264 -170 218 -170 c 0
 150 -170 72 -135 46 -111 c 0
 36 -102 39 -105 35 -101 c 0
 26 -90 20 -72 20 -60 c 0
 20 -39 38 -32 41 -32 c 0
 42 -32 42 -32 43 -32 c 0
 43 -32 48 -30 51 -30 c 0
 66 -30 92 -59 139 -76 c 0
 187 -92 190 -93 246 -93 c 0
 258 -93 261 -93 264 -92 c 0
 272 -89 295 -77 295 -76 c 0
 298 -71 309 -61 318 -45 c 0
 319 -44 347 11 350 92 c 0
 350 92 350 95 350 100 c 1
 324 69 286 41 247 23 c 0
 214 8 220 16 204 10 c 0
 200 7 190 5 177 5 c 0
 110 5 90 45 76 84 c 0
 68 105 67 113 67 130 c 0
 67 150 64 143 64 167 c 0
 64 227 64 228 75 311 c 0
 79 340 79 341 87 348 c 0
 93 354 97 356 107 356 c 0
 108 356 109 356 110 356 c 0
 141 356 149 354 149 292 c 0
 149 264 143 240 143 175 c 0
 143 158 143 108 155 82 c 0
 156 79 165 67 173 67 c 0
 187 67 221 79 242 94 c 0
 297 133 318 175 320 181 c 0
 320 185 322 191 325 198 c 0
 329 210 329 208 329 252 c 2
 329 253 l 2
 329 289 330 288 335 328 c 0
 335 338 352 348 363 348 c 0
 367 348 374 350 378 350 c 0
EndSplineSet
EndChar

StartChar: z
Encoding: 122 122 17
Width: 446
VWidth: 496
Flags: HW
AnchorPoint: "above" 213 402 basechar 0
LayerCount: 2
Fore
SplineSet
62 375 m 0
 70 375 71 379 109 379 c 0
 121 379 123 379 125 378 c 0
 155 382 236 382 237 382 c 0
 331 382 375 382 384 370 c 0
 391 368 398 352 398 352 c 0
 404 346 406 336 406 336 c 0
 406 332 404 331 403 326 c 1
 402 318 387 301 381 300 c 0
 375 295 368 286 363 284 c 0
 362 283 287 215 277 203 c 0
 276 202 193 115 155 87 c 1
 173 89 178 90 187 90 c 0
 188 90 187 90 188 90 c 0
 192 90 218 95 238 95 c 0
 241 95 242 95 244 95 c 2
 245 95 l 1
 246 95 l 0
 257 95 271 96 288 96 c 0
 327 96 355 83 371 82 c 0
 385 81 387 79 396 69 c 0
 399 66 401 63 401 58 c 0
 401 56 400 51 400 42 c 0
 400 41 400 40 400 39 c 0
 400 13 373 11 366 11 c 0
 350 11 320 19 313 19 c 0
 302 19 310 22 280 22 c 0
 238 22 220 18 213 18 c 0
 212 18 l 0
 211 18 l 0
 194 18 155 13 151 13 c 0
 142 13 130 9 123 9 c 0
 122 9 l 0
 122 9 121 10 120 10 c 0
 120 10 134 11 88 6 c 0
 87 5 85 3 82 3 c 0
 80 3 l 0
 67 3 39 12 38 22 c 1
 32 32 29 37 29 47 c 0
 29 69 38 92 65 117 c 0
 66 118 191 235 206 253 c 0
 217 266 230 270 235 279 c 0
 238 284 247 293 263 306 c 1
 263 306 216 304 215 304 c 0
 212 304 206 304 206 304 c 0
 181 304 69 299 68 299 c 0
 50 299 24 302 24 324 c 0
 24 329 20 342 20 350 c 0
 20 357 23 364 30 367 c 0
 32 370 35 372 37 372 c 0
 40 376 44 376 48 376 c 0
 53 376 57 375 62 375 c 0
EndSplineSet
EndChar

StartChar: c
Encoding: 99 99 18
Width: 386
VWidth: 608
Flags: HW
AnchorPoint: "above" 182.284 492.623 basechar 0
LayerCount: 2
Fore
SplineSet
325 55 m 0
 325 54 249 27 225 28 c 0
 224 28 180 15 122 23 c 0
 108 25 87 33 87 37 c 0
 87 38 86 38 84 38 c 0
 82 38 4 84 22 202 c 0
 26 226 35 270 38 273 c 0
 40 276 50 302 54 308 c 0
 55 310 60 318 63 326 c 0
 76 357 105 399 130 426 c 0
 142 439 178 466 184 466 c 0
 185 466 189 467 193 469 c 0
 205 475 246 473 253 467 c 0
 255 465 258 464 259 464 c 0
 259 464 280 457 290 437 c 0
 299 421 321 391 321 385 c 0
 321 373 332 380 323 350 c 0
 317 330 294 330 294 334 c 0
 294 336 282 341 276 344 c 0
 264 350 241 400 223 400 c 0
 199 400 142 335 115 263 c 0
 113 257 110 250 109 248 c 0
 99 232 94 174 100 142 c 0
 104 120 114 84 171 94 c 0
 251 108 252 109 269 114 c 0
 322 128 325 129 338 104 c 0
 360 62 325 61 325 55 c 0
EndSplineSet
EndChar

StartChar: d
Encoding: 100 100 19
Width: 428
VWidth: 834
Flags: HW
AnchorPoint: "above" 203.64 669.172 basechar 0
LayerCount: 2
Fore
SplineSet
333 632 m 0
 333 635 340 651 350 649 c 0
 353 648 360 648 366 647 c 0
 376 646 377 646 388 634 c 1
 387 613 l 2
 387 609 368 262 369 244 c 0
 370 229 370 127 369 104 c 0
 368 77 361 57 353 54 c 0
 350 53 315 49 305 54 c 0
 294 59 279 44 244 40 c 0
 239 39 235 40 234 39 c 0
 230 36 181 31 161 31 c 0
 115 31 79 43 49 70 c 0
 39 78 25 106 21 126 c 0
 15 154 26 233 34 244 c 0
 35 245 56 315 111 360 c 0
 118 365 145 382 148 382 c 0
 151 382 172 392 184 393 c 0
 187 393 258 407 277 399 c 0
 290 393 289 395 300 390 c 0
 302 389 303 389 303 389 c 2
 303 389 304 405 305 423 c 0
 310 510 324 619 331 625 c 0
 332 626 333 629 333 632 c 0
267 329 m 0
 255 335 187 331 151 302 c 0
 131 286 83 216 92 146 c 0
 96 111 111 103 159 101 c 0
 221 99 277 122 278 122 c 2
 290 128 l 1
 290 136 l 2
 290 168 298 250 291 281 c 0
 286 304 277 324 267 329 c 0
EndSplineSet
EndChar

StartChar: e
Encoding: 101 101 20
Width: 432
VWidth: 574
Flags: HW
AnchorPoint: "above" 206.339 465.24 basechar 0
LayerCount: 2
Fore
SplineSet
110 200 m 0
 102 200 101 202 94 212 c 1
 80 146 99 123 114 108 c 0
 129 93 140 87 155 84 c 0
 184 79 286 97 289 96 c 0
 292 95 297 94 301 94 c 0
 321 92 328 55 320 52 c 0
 318 51 308 33 301 33 c 0
 300 33 296 31 292 29 c 0
 250 10 154 5 118 21 c 0
 40 55 27 115 27 116 c 0
 27 119 25 128 23 136 c 0
 12 187 33 298 79 346 c 0
 83 350 88 356 89 359 c 0
 94 371 138 409 162 421 c 0
 163 421 197 437 217 440 c 0
 221 440 227 442 231 443 c 0
 271 453 329 428 359 398 c 0
 386 371 395 346 392 305 c 0
 391 282 386 269 375 251 c 0
 367 239 345 214 342 214 c 0
 331 212 327 204 285 200 c 0
 222 194 136 187 119 198 c 0
 117 200 113 200 110 200 c 0
276 370 m 0
 254 379 232 376 199 360 c 0
 138 331 110 264 111 263 c 0
 114 260 230 273 261 275 c 0
 297 277 298 277 306 287 c 0
 324 309 311 343 311 343 c 0
 307 350 287 366 276 370 c 0
EndSplineSet
EndChar

StartChar: f
Encoding: 102 102 21
Width: 464
VWidth: 772
Flags: HW
AnchorPoint: "above" 222.107 611.75 basechar 0
LayerCount: 2
Fore
SplineSet
88 304 m 0
 32 304 25 320 24 320 c 0
 24 320 17 343 23 354 c 0
 30 366 34 369 50 372 c 0
 72 377 86 379 103 380 c 2
 119 381 l 1
 119 406 l 2
 120 433 123 461 126 464 c 0
 128 467 135 494 134 494 c 0
 134 494 137 504 148 522 c 0
 166 552 176 562 202 575 c 0
 229 589 240 586 240 589 c 0
 240 593 294 592 304 590 c 0
 305 590 381 575 411 539 c 0
 415 534 419 529 419 528 c 0
 419 522 427 514 422 503 c 0
 418 494 407 484 399 482 c 0
 387 480 387 474 374 476 c 0
 354 478 366 488 325 504 c 0
 283 521 247 512 242 510 c 0
 215 500 201 468 196 400 c 2
 195 380 l 1
 214 381 l 2
 277 385 275 385 280 380 c 0
 288 373 292 365 293 345 c 2
 294 327 l 1
 286 320 l 2
 277 311 273 311 207 306 c 2
 195 305 l 1
 196 296 l 2
 196 294 209 127 211 117 c 0
 211 116 222 26 213 10 c 0
 208 -1 207 -1 182 -4 c 0
 164 -6 150 -8 143 10 c 0
 133 32 135 111 131 134 c 0
 128 150 124 248 122 251 c 0
 120 255 119 301 117 303 c 0
 116 304 103 304 88 304 c 0
EndSplineSet
EndChar

StartChar: g
Encoding: 103 103 22
Width: 506
VWidth: 615
Flags: HW
AnchorPoint: "above" 243.511 438.705 basechar 0
LayerCount: 2
Fore
SplineSet
367 -196 m 0
 367 -200 311 -232 293 -232 c 0
 292 -232 240 -251 181 -233 c 0
 173 -231 164 -228 162 -228 c 0
 158 -228 117 -209 98 -198 c 0
 84 -190 52 -163 42 -150 c 0
 4 -101 22 -59 44 -59 c 0
 47 -59 58 -48 58 -45 c 0
 58 -44 65 -44 62 -54 c 0
 58 -67 72 -52 85 -81 c 0
 90 -92 110 -115 123 -126 c 0
 152 -149 204 -167 246 -167 c 0
 273 -167 305 -153 326 -131 c 0
 380 -73 394 49 392 53 c 0
 391 54 359 29 332 21 c 0
 285 6 242 11 230 18 c 0
 222 23 212 24 212 26 c 0
 212 27 212 27 211 27 c 0
 204 25 165 59 154 76 c 0
 149 83 136 112 130 128 c 0
 108 188 130 273 132 275 c 0
 142 290 148 334 188 365 c 0
 188 365 218 391 219 391 c 0
 224 391 233 406 275 415 c 0
 324 426 360 409 361 409 c 0
 365 409 375 403 385 401 c 0
 386 401 417 385 426 368 c 0
 428 364 433 357 436 352 c 0
 441 344 442 341 442 331 c 0
 442 306 426 290 429 286 c 0
 430 285 436 284 440 284 c 0
 442 284 459 267 462 262 c 0
 467 254 468 210 464 183 c 0
 459 150 472 59 465 28 c 0
 461 13 459 -17 451 -40 c 0
 448 -50 445 -61 444 -66 c 0
 444 -67 427 -132 372 -189 c 0
 369 -192 367 -195 367 -196 c 0
330 343 m 0
 308 348 309 348 290 343 c 0
 230 326 196 271 196 193 c 0
 196 156 207 126 228 105 c 0
 276 58 350 107 367 136 c 0
 373 146 381 173 383 177 c 0
 385 180 381 233 386 249 c 0
 389 259 389 259 384 262 c 0
 374 269 386 283 379 309 c 0
 378 313 378 317 378 318 c 0
 378 319 372 334 330 343 c 0
EndSplineSet
EndChar

StartChar: h
Encoding: 104 104 23
Width: 359
VWidth: 753
Flags: HW
AnchorPoint: "above" 169.352 606 basechar 0
LayerCount: 2
Fore
SplineSet
28 490 m 0
 26 584 32 586 60 586 c 0
 73 586 74 586 80 580 c 2
 87 574 l 1
 88 553 l 1
 103 356 100 339 100 339 c 0
 101 342 106 340 111 351 c 0
 116 362 138 381 140 381 c 0
 143 381 147 388 165 395 c 0
 197 407 214 410 214 410 c 0
 214 410 249 411 265 399 c 0
 276 391 280 394 288 382 c 0
 291 377 294 372 295 372 c 0
 296 371 324 324 318 233 c 0
 316 191 319 72 316 51 c 0
 314 31 297 26 297 26 c 0
 297 23 286 26 269 32 c 0
 248 40 245 43 246 57 c 0
 246 60 248 269 242 318 c 0
 241 328 239 329 226 339 c 1
 210 335 l 2
 189 331 174 321 164 306 c 0
 122 242 104 145 103 113 c 0
 103 104 101 64 81 59 c 0
 73 57 73 53 63 52 c 0
 57 51 54 53 42 62 c 0
 27 73 26 75 23 95 c 0
 19 119 19 145 22 191 c 0
 26 266 29 411 26 430 c 0
 25 434 26 438 27 440 c 0
 29 442 29 454 28 490 c 0
EndSplineSet
EndChar

StartChar: i
Encoding: 105 105 24
Width: 227
VWidth: 625
Flags: HW
AnchorPoint: "above" 103.352 510.398 basechar 0
LayerCount: 2
Fore
SplineSet
45 465 m 0
 52 472 105 500 141 487 c 0
 155 482 166 477 167 475 c 0
 169 473 185 462 186 460 c 0
 186 459 187 457 187 454 c 0
 188 450 180 423 173 416 c 0
 170 413 167 410 167 409 c 0
 167 409 156 398 135 409 c 0
 110 422 104 407 92 408 c 0
 86 408 79 403 73 403 c 0
 64 403 54 394 42 397 c 0
 36 399 33 400 27 412 c 0
 16 434 17 448 32 456 c 0
 36 458 42 463 45 465 c 0
67 314 m 2
 72 321 l 1
 91 321 l 2
 107 321 111 320 116 317 c 0
 120 315 122 311 122 309 c 0
 122 308 136 269 128 222 c 0
 125 206 125 166 128 151 c 0
 133 119 129 99 139 80 c 2
 144 69 l 1
 139 59 137 53 133 52 c 0
 119 47 127 38 102 38 c 0
 84 38 62 38 56 112 c 0
 55 127 53 143 52 148 c 0
 48 165 51 292 67 314 c 2
EndSplineSet
EndChar

StartChar: j
Encoding: 106 106 25
Width: 388
VWidth: 753
Flags: HW
AnchorPoint: "above" 184 556 basechar 0
LayerCount: 2
Fore
SplineSet
270 109 m 0
 270 189 262 225 262 226 c 0
 262 228 262 229 262 231 c 0
 262 234 262 234 262 234 c 1
 255 240 257 256 254 274 c 0
 249 281 249 314 249 321 c 0
 249 338 249 363 300 363 c 0
 303 363 310 363 318 351 c 0
 321 347 329 292 332 283 c 0
 334 281 334 277 334 275 c 0
 334 273 334 272 334 271 c 0
 334 266 339 236 339 230 c 0
 339 221 342 226 342 207 c 0
 342 170 347 188 347 152 c 0
 347 146 347 127 347 112 c 0
 347 105 347 72 347 72 c 0
 347 59 347 54 347 54 c 0
 348 52 348 50 348 48 c 0
 348 47 341 -48 321 -77 c 0
 319 -80 318 -82 318 -82 c 0
 318 -83 318 -84 318 -85 c 0
 318 -89 318 -89 306 -105 c 1
 304 -114 268 -145 265 -149 c 0
 262 -157 229 -169 214 -177 c 0
 210 -181 168 -190 161 -190 c 0
 147 -190 121 -188 113 -185 c 0
 112 -185 112 -186 110 -186 c 0
 105 -186 103 -182 103 -182 c 0
 99 -181 60 -162 49 -151 c 0
 47 -149 47 -153 30 -137 c 0
 22 -130 20 -121 20 -103 c 0
 20 -86 25 -80 40 -73 c 0
 47 -70 52 -68 58 -68 c 0
 61 -68 81 -70 88 -81 c 0
 95 -93 111 -103 127 -106 c 0
 143 -108 139 -110 145 -110 c 0
 146 -110 186 -103 217 -82 c 0
 218 -77 248 -52 257 -23 c 0
 257 -23 262 -6 265 3 c 0
 270 19 270 93 270 109 c 0
271 399 m 0
 250 399 218 417 218 456 c 0
 218 469 231 503 233 506 c 0
 235 519 274 536 285 536 c 0
 289 536 306 534 311 523 c 0
 318 512 340 502 340 479 c 0
 340 473 340 455 332 443 c 0
 332 443 328 437 326 433 c 0
 322 426 301 403 292 403 c 0
 288 400 275 399 271 399 c 0
EndSplineSet
EndChar

StartChar: quotedblright
Encoding: 8221 8221 27
Width: 334
VWidth: 818
Flags: W
LayerCount: 2
Fore
SplineSet
186 647 m 0
 183 647 174 659 171 659 c 0
 168 659 161 668 163 669 c 0
 165 672 149 693 162 709 c 0
 165 712 168 716 168 717 c 0
 169 721 173 725 180 727 c 0
 186 729 189 728 201 721 c 0
 209 717 217 712 220 711 c 0
 228 708 222 706 232 701 c 0
 242 696 240 690 246 685 c 0
 249 682 274 646 274 646 c 0
 274 641 290 613 291 602 c 0
 292 587 295 587 294 572 c 0
 291 532 292 533 291 533 c 0
 287 535 277 503 247 516 c 0
 244 517 240 519 239 519 c 0
 225 522 221 529 218 556 c 0
 217 568 216 578 217 579 c 0
 220 584 197 633 196 633 c 0
 194 633 188 647 186 647 c 0
154 576 m 0
 155 566 162 563 162 560 c 0
 162 557 168 547 169 540 c 0
 170 530 180 495 179 486 c 0
 179 482 178 471 177 462 c 0
 176 443 175 442 170 442 c 0
 165 442 163 437 154 436 c 0
 151 436 148 435 148 434 c 0
 148 432 144 435 144 433 c 0
 144 431 128 428 126 430 c 0
 124 433 114 435 114 439 c 0
 114 441 113 442 111 442 c 0
 96 442 94 497 94 498 c 0
 92 504 94 508 89 513 c 0
 83 519 82 544 78 549 c 0
 76 552 63 579 63 581 c 0
 63 583 29 616 24 619 c 0
 21 621 20 624 20 636 c 0
 20 658 23 672 30 676 c 0
 39 681 86 677 88 671 c 0
 89 669 89 667 90 668 c 0
 97 675 123 633 126 633 c 0
 128 633 129 631 128 627 c 0
 127 622 154 587 154 576 c 0
EndSplineSet
EndChar

StartChar: Aring
Encoding: 197 197 29
Width: 494
VWidth: 1099
Flags: HW
AnchorPoint: "above" 237.5 859 basechar 0
LayerCount: 2
Fore
SplineSet
241 473 m 0
 279 473 335 350 335 320 c 0
 335 310 326 309 314 308 c 0
 212 297 165 289 163 289 c 0
 161 289 153 291 153 300 c 0
 153 302 177 413 223 462 c 0
 228 467 234 473 241 473 c 0
376 55 m 0
 376 12 372 1 372 -0 c 0
 372 -3 377 -19 381 -20 c 0
 393 -23 395 -29 400 -31 c 0
 406 -31 416 -32 422 -33 c 0
 425 -32 436 -26 440 -23 c 0
 444 -16 442 -14 446 -9 c 0
 455 2 447 12 454 23 c 0
 454 25 455 30 455 35 c 0
 455 128 441 193 418 306 c 0
 406 361 382 425 355 468 c 0
 345 485 320 519 313 525 c 0
 306 527 302 535 284 546 c 0
 277 550 262 559 233 559 c 0
 209 559 208 558 204 554 c 0
 195 543 185 539 175 528 c 1
 174 516 156 516 123 438 c 0
 92 370 78 315 77 314 c 0
 73 306 51 220 48 201 c 0
 44 177 39 148 35 126 c 0
 35 125 20 42 20 1 c 0
 20 -37 20 -38 51 -38 c 0
 63 -38 76 -37 80 -36 c 0
 85 -30 87 -22 87 -21 c 0
 87 -10 94 -5 103 52 c 0
 111 103 125 180 125 181 c 2
 125 182 125 186 125 190 c 2
 125 206 l 1
 152 206 l 2
 176 206 181 210 235 213 c 0
 272 215 289 219 351 230 c 1
 365 194 362 162 373 103 c 0
 375 93 376 74 376 55 c 0
262 769 m 2
 263 769 l 2
 275 769 283 749 283 735 c 0
 283 716 268 687 257 676 c 0
 247 666 241 664 203 647 c 1
 203 657 194 667 194 657 c 1
 188 663 187 672 187 685 c 0
 187 707 188 731 206 753 c 0
 211 759 217 766 225 766 c 0
 230 766 232 763 236 763 c 0
 240 765 256 768 262 769 c 2
336 692 m 1
 336 702 342 710 342 733 c 2
 342 734 l 2
 342 735 342 735 342 736 c 0
 342 744 340 765 339 771 c 0
 338 777 322 808 315 818 c 0
 312 821 300 829 286 837 c 1
 286 837 277 839 266 839 c 0
 240 839 202 821 202 820 c 0
 202 820 167 798 157 783 c 0
 156 782 135 752 131 698 c 0
 130 688 131 682 130 678 c 0
 131 673 136 645 138 638 c 0
 142 627 164 602 171 598 c 0
 183 592 203 588 208 588 c 0
 226 588 263 604 264 604 c 0
 273 609 291 626 299 630 c 0
 305 634 331 672 336 692 c 1
EndSplineSet
EndChar

StartChar: Udieresis
Encoding: 220 220 30
Width: 434
VWidth: 1008
Flags: HW
AnchorPoint: "above" 206.5 785 basechar 0
LayerCount: 2
Fore
SplineSet
303 133 m 0
 303 132 298 35 206 35 c 0
 188 35 181 36 169 44 c 0
 100 86 99 247 98 378 c 0
 96 520 96 545 90 551 c 0
 83 555 56 559 52 559 c 0
 51 559 l 0
 47 559 40 538 39 530 c 0
 39 522 33 525 31 495 c 0
 29 459 20 417 20 344 c 0
 20 342 22 197 41 120 c 1
 50 107 55 69 74 42 c 0
 74 41 82 30 83 25 c 0
 86 21 105 -2 115 -10 c 0
 130 -18 143 -25 145 -28 c 0
 148 -30 182 -43 212 -43 c 0
 225 -43 225 -42 272 -31 c 0
 278 -30 293 -19 301 -19 c 1
 317 -11 351 37 355 40 c 0
 372 72 393 113 393 416 c 0
 393 455 391 509 389 524 c 0
 387 535 375 562 372 564 c 0
 367 568 362 568 360 568 c 0
 360 568 339 562 337 557 c 0
 337 557 333 555 326 553 c 0
 312 545 312 545 308 531 c 1
 308 512 315 525 315 452 c 0
 315 449 314 203 309 186 c 0
 308 181 302 141 302 134 c 0
 303 134 l 0
 303 133 l 0
93 661 m 0
 104 661 155 702 155 710 c 0
 155 711 155 712 155 712 c 0
 155 718 154 719 143 739 c 0
 128 764 125 764 116 764 c 0
 115 764 116 764 115 764 c 0
 106 764 55 724 55 696 c 0
 55 695 55 695 55 694 c 0
 55 691 56 690 68 680 c 0
 83 665 89 661 93 661 c 0
234 687 m 0
 234 685 234 648 279 648 c 0
 282 648 292 648 308 655 c 0
 310 657 338 673 343 688 c 0
 343 688 349 714 349 715 c 0
 349 724 341 744 335 749 c 0
 329 753 315 757 288 765 c 1
 261 748 248 741 236 703 c 0
 234 697 234 692 234 687 c 0
EndSplineSet
EndChar

StartChar: uni226A
Encoding: 8810 8810 31
Width: 666
VWidth: 797
Flags: W
LayerCount: 2
Fore
SplineSet
585 112 m 0
 585 120 590 125 590 127 c 0
 590 141 524 187 505 206 c 0
 488 222 400 281 395 300 c 1
 388 309 388 309 358 339 c 1
 366 346 l 2
 376 355 417 392 418 392 c 0
 438 410 470 437 479 446 c 0
 488 455 552 506 553 506 c 0
 554 507 559 521 559 522 c 0
 559 525 559 527 547 540 c 0
 530 558 527 560 517 560 c 0
 515 560 515 561 507 560 c 0
 498 559 502 563 452 518 c 0
 408 479 389 462 376 453 c 0
 363 444 311 399 305 396 c 0
 302 393 289 377 285 372 c 0
 282 367 279 322 279 321 c 0
 279 316 292 292 297 284 c 0
 309 276 337 249 343 238 c 0
 353 219 416 179 445 152 c 0
 455 143 528 78 549 78 c 0
 553 78 557 79 564 83 c 0
 567 85 581 93 581 93 c 0
 583 94 587 101 587 104 c 0
 587 105 585 107 585 112 c 0
340 114 m 0
 340 120 327 139 319 139 c 0
 316 139 309 139 293 160 c 0
 261 200 202 259 165 287 c 0
 121 321 117 324 117 332 c 0
 117 340 117 340 249 458 c 0
 274 480 327 534 337 546 c 0
 339 553 359 571 359 575 c 0
 359 580 329 612 323 612 c 0
 319 612 319 610 303 602 c 0
 289 594 268 567 259 565 c 0
 255 562 250 556 233 543 c 0
 199 517 143 459 135 457 c 0
 134 456 52 388 39 364 c 0
 39 364 32 352 31 345 c 0
 36 316 62 274 62 273 c 0
 82 246 128 225 199 146 c 0
 248 91 280 62 300 62 c 0
 314 62 309 72 324 72 c 0
 329 75 333 82 333 84 c 0
 333 97 340 107 340 114 c 0
EndSplineSet
EndChar

StartChar: uni226B
Encoding: 8811 8811 32
Width: 666
VWidth: 797
Flags: W
LayerCount: 2
Fore
SplineSet
36 112 m 0
 36 107 34 105 34 104 c 0
 34 101 37 95 40 93 c 0
 44 91 52 86 57 83 c 0
 64 79 69 78 73 78 c 0
 94 78 166 142 176 152 c 0
 205 180 268 220 278 239 c 0
 284 250 313 277 324 284 c 0
 324 284 342 314 342 321 c 0
 342 322 340 367 337 372 c 0
 337 372 324 390 313 399 c 0
 300 409 256 446 245 454 c 0
 236 460 231 463 167 520 c 0
 119 563 123 559 114 560 c 0
 105 561 105 560 103 560 c 0
 98 560 96 559 93 558 c 0
 93 558 62 532 62 523 c 0
 62 522 l 0
 62 521 67 507 69 506 c 0
 80 499 103 478 122 464 c 0
 132 456 235 364 236 363 c 2
 264 339 l 1
 256 331 l 2
 237 312 231 306 226 300 c 0
 223 288 180 254 160 240 c 0
 117 209 113 201 79 175 c 0
 67 166 31 137 31 127 c 0
 31 125 36 120 36 112 c 0
302 139 m 0
 294 139 281 120 281 114 c 0
 281 107 288 97 288 84 c 0
 288 82 292 75 297 72 c 0
 299 72 309 72 312 65 c 0
 314 64 320 62 324 62 c 0
 330 62 353 73 377 97 c 0
 413 132 447 180 511 229 c 0
 531 245 554 266 559 272 c 0
 561 274 586 321 590 345 c 1
 583 371 569 383 531 418 c 0
 511 436 493 453 487 457 c 0
 479 459 422 517 388 543 c 0
 371 556 367 562 363 565 c 0
 354 567 332 594 318 602 c 0
 318 602 302 611 298 612 c 0
 290 612 262 579 262 575 c 0
 262 571 282 553 284 546 c 0
 331 489 489 358 501 340 c 0
 502 339 504 337 504 332 c 0
 504 324 501 321 456 287 c 0
 419 259 361 200 329 160 c 0
 324 154 312 139 302 139 c 0
EndSplineSet
EndChar

StartChar: uni203D
Encoding: 8253 8253 33
Width: 505
VWidth: 1123
Flags: W
LayerCount: 2
Fore
SplineSet
224 -14 m 0
 225 -14 284 1 284 62 c 0
 284 66 282 64 279 72 c 1
 277 73 268 77 267 86 c 1
 260 93 244 98 234 98 c 0
 222 98 191 74 185 68 c 1
 185 61 176 54 176 36 c 0
 176 32 179 28 180 20 c 0
 185 -5 223 -14 224 -14 c 0
362 587 m 0
 362 547 333 501 298 487 c 0
 291 484 283 481 276 478 c 1
 276 682 l 1
 305 687 305 687 311 687 c 0
 337 687 346 665 353 643 c 0
 359 625 362 604 362 587 c 0
267 341 m 1
 301 405 303 408 315 409 c 2
 315 409 l 1
 316 409 l 1
 316 409 319 410 348 425 c 0
 358 431 401 473 410 486 c 0
 410 486 411 493 416 497 c 0
 425 511 440 550 441 559 c 0
 442 569 442 579 442 588 c 0
 442 669 396 732 395 733 c 0
 393 734 388 736 385 742 c 1
 375 743 367 755 350 760 c 0
 350 760 326 765 312 765 c 0
 309 765 309 765 282 763 c 1
 274 821 273 825 271 835 c 0
 266 840 270 842 265 846 c 0
 263 848 262 848 256 848 c 0
 246 848 218 845 206 842 c 1
 199 832 198 829 198 807 c 0
 198 805 198 787 198 787 c 0
 198 754 196 755 196 755 c 0
 196 754 195 752 195 749 c 2
 195 732 l 1
 152 707 126 692 103 666 c 0
 95 657 87 649 82 645 c 0
 81 645 77 638 75 633 c 0
 68 614 31 576 31 556 c 0
 31 542 73 521 78 521 c 0
 82 521 88 523 99 534 c 0
 105 541 118 554 127 563 c 0
 143 580 147 591 148 593 c 1
 148 603 160 615 164 619 c 2
 194 648 l 1
 197 584 197 584 197 570 c 0
 197 476 183 385 183 383 c 0
 183 365 188 351 188 322 c 0
 188 282 179 270 179 248 c 0
 179 248 180 239 181 221 c 1
 192 208 201 207 224 205 c 0
 241 205 254 216 262 217 c 0
 267 220 271 223 271 282 c 0
 271 302 271 304 267 341 c 1
EndSplineSet
EndChar

StartChar: Emacron
Encoding: 274 274 34
Width: 491
VWidth: 1039
Flags: HW
AnchorPoint: "above" 235.5 804 basechar 0
LayerCount: 2
Fore
SplineSet
102 333 m 1
 102 335 92 423 92 492 c 0
 92 493 92 495 92 496 c 0
 92 499 93 510 105 511 c 0
 107 511 309 524 324 524 c 0
 342 524 342 520 347 520 c 0
 350 520 360 523 371 523 c 0
 373 523 386 526 395 532 c 0
 395 532 397 553 397 575 c 0
 397 593 396 594 390 595 c 0
 377 598 379 603 370 603 c 0
 368 603 364 603 362 602 c 0
 351 599 201 595 145 590 c 0
 134 589 123 588 119 588 c 0
 93 587 77 573 42 570 c 0
 20 568 20 568 20 544 c 0
 20 498 21 383 22 358 c 1
 22 362 21 361 21 357 c 1
 22 354 23 348 23 296 c 0
 23 183 20 20 20 17 c 0
 20 -7 21 -23 22 -33 c 0
 23 -43 25 -52 25 -57 c 0
 33 -64 37 -64 58 -64 c 0
 127 -64 210 -35 380 -21 c 1
 401 -32 404 -33 412 -33 c 0
 424 -33 423 -25 438 -21 c 0
 444 -19 451 -12 451 12 c 0
 451 14 451 22 450 27 c 0
 426 45 435 44 427 46 c 0
 418 48 415 51 413 53 c 0
 401 55 381 56 372 56 c 0
 286 56 187 26 97 18 c 1
 99 200 101 266 101 270 c 1
 101 272 104 280 111 280 c 2
 117 279 123 277 125 277 c 0
 142 274 189 274 203 272 c 0
 217 270 214 264 222 264 c 0
 230 264 243 271 248 276 c 1
 249 285 258 300 258 309 c 0
 258 316 254 320 250 333 c 0
 248 339 242 337 234 345 c 0
 225 350 196 350 185 350 c 0
 184 350 130 350 123 345 c 0
 116 341 109 337 102 333 c 1
348 784 m 0
 347 784 306 771 278 771 c 0
 277 771 203 774 192 774 c 0
 149 774 125 766 103 766 c 0
 91 766 93 760 63 756 c 0
 40 753 39 751 39 732 c 0
 39 719 39 713 48 703 c 0
 50 703 54 701 58 697 c 0
 61 696 77 694 94 694 c 0
 137 694 127 701 188 701 c 0
 221 701 260 699 282 699 c 0
 282 699 306 699 313 700 c 0
 318 702 344 711 353 711 c 1
 360 712 366 717 368 719 c 0
 371 728 382 740 382 745 c 0
 382 751 361 775 353 783 c 0
 351 783 350 784 348 784 c 0
EndSplineSet
EndChar

StartChar: Ohungarumlaut
Encoding: 336 336 35
Width: 516
VWidth: 1117
Flags: HW
AnchorPoint: "above" 248.5 873 basechar 0
LayerCount: 2
Fore
SplineSet
261 502 m 0
 266 502 273 515 285 528 c 1
 289 528 l 2
 295 528 304 520 326 511 c 0
 339 506 357 486 363 471 c 0
 380 429 397 322 397 254 c 0
 397 252 397 251 397 250 c 0
 397 211 393 194 378 162 c 0
 373 150 366 137 357 130 c 0
 353 127 343 118 336 112 c 0
 302 81 239 61 211 61 c 0
 204 61 199 63 191 66 c 0
 153 81 136 97 120 132 c 0
 110 153 98 178 98 248 c 0
 98 269 101 259 101 272 c 0
 101 302 117 371 130 403 c 0
 150 454 194 517 215 517 c 0
 223 517 226 513 235 510 c 0
 237 511 l 0
 239 511 239 510 261 502 c 0
467 166 m 1
 467 172 477 187 477 259 c 0
 477 311 451 438 451 440 c 0
 448 461 427 514 414 532 c 0
 365 597 269 610 267 610 c 0
 265 609 260 605 247 605 c 0
 222 605 233 589 202 589 c 0
 192 589 191 588 182 583 c 0
 177 580 171 577 167 575 c 0
 159 570 118 528 98 500 c 0
 80 474 66 435 59 427 c 1
 40 385 20 288 20 240 c 0
 20 237 21 238 21 236 c 0
 21 235 l 0
 21 235 21 227 21 206 c 0
 22 118 58 78 61 58 c 1
 72 44 109 -1 152 -19 c 0
 161 -23 170 -27 174 -29 c 0
 178 -30 195 -31 213 -31 c 0
 213 -31 249 -31 258 -28 c 0
 264 -26 271 -25 275 -24 c 0
 295 -21 350 9 383 35 c 0
 393 43 421 72 427 80 c 0
 428 87 457 120 467 166 c 1
267 610 m 1
 267 600 267 600 267 610 c 1
107 715 m 0
 107 704 135 687 138 687 c 0
 144 687 157 705 166 711 c 0
 172 717 185 738 212 767 c 0
 238 795 242 808 242 820 c 0
 242 822 241 824 241 824 c 0
 238 827 221 841 214 846 c 0
 209 845 204 844 200 840 c 0
 192 832 142 778 137 772 c 0
 137 772 107 734 107 715 c 0
284 712 m 0
 284 697 316 681 317 681 c 0
 333 681 348 711 359 713 c 1
 371 722 380 742 396 750 c 0
 403 754 422 772 427 779 c 0
 430 795 447 794 447 825 c 0
 447 827 447 828 443 832 c 0
 426 849 415 851 413 853 c 0
 400 853 353 800 345 798 c 0
 340 793 335 784 327 779 c 1
 315 767 297 742 296 740 c 0
 294 730 284 726 284 713 c 2
 284 712 l 0
EndSplineSet
EndChar

StartChar: quotedblleft
Encoding: 8220 8220 36
Width: 329
VWidth: 798
Flags: W
LayerCount: 2
Fore
SplineSet
65 666 m 0
 65 669 73 672 73 675 c 0
 73 679 90 693 91 696 c 0
 92 699 136 715 141 708 c 0
 142 707 143 706 144 707 c 0
 147 709 166 664 160 664 c 0
 159 664 158 663 158 661 c 0
 158 659 157 658 155 658 c 0
 153 658 152 657 152 656 c 0
 152 655 142 638 137 638 c 0
 130 638 120 624 112 600 c 0
 109 590 103 579 103 576 c 0
 103 572 98 570 98 567 c 0
 91 534 90 534 90 524 c 0
 90 494 25 485 20 522 c 0
 16 557 36 606 36 607 c 0
 37 611 42 616 40 616 c 0
 38 616 46 626 44 626 c 0
 42 626 50 634 48 634 c 0
 45 634 65 664 65 666 c 0
207 666 m 0
 213 666 229 695 248 695 c 0
 257 695 258 694 271 680 c 0
 279 672 285 664 285 663 c 0
 285 659 289 665 289 655 c 0
 289 647 275 621 269 618 c 0
 267 617 265 615 265 614 c 0
 265 610 261 613 253 597 c 0
 243 578 239 575 240 573 c 0
 242 571 233 566 233 561 c 0
 233 556 226 549 226 545 c 0
 226 541 219 533 221 533 c 0
 222 533 217 525 216 523 c 0
 216 516 203 504 203 463 c 0
 203 441 203 441 196 433 c 0
 192 428 188 424 187 424 c 0
 184 424 180 418 178 419 c 0
 177 420 176 420 176 419 c 0
 176 415 153 409 143 420 c 0
 141 422 138 424 137 424 c 0
 136 424 134 426 134 427 c 0
 134 428 131 432 128 435 c 0
 126 437 120 444 120 476 c 0
 117 486 158 591 158 592 c 0
 158 596 184 639 184 639 c 0
 188 643 203 666 207 666 c 0
EndSplineSet
EndChar

StartChar: c_o
Encoding: 1114112 -1 37
Width: 767
VWidth: -51
Flags: W
LayerCount: 2
Fore
SplineSet
60 327 m 0
 127 427 231 475 314 419 c 0
 320 415 326 412 327 412 c 0
 331 412 352 387 360 373 c 0
 369 357 369 355 365 344 c 0
 360 328 359 327 346 319 c 0
 335 312 331 311 326 316 c 0
 320 321 313 323 311 328 c 0
 310 330 308 332 307 332 c 0
 304 332 296 339 286 349 c 0
 271 364 265 366 241 366 c 0
 217 366 212 364 189 351 c 0
 153 330 153 317 135 300 c 0
 117 282 92 221 96 179 c 0
 97 161 104 136 108 128 c 0
 113 118 134 96 144 91 c 0
 179 73 252 82 300 117 c 0
 331 139 354 81 345 113 c 0
 340 130 340 206 347 221 c 0
 349 228 358 268 361 275 c 0
 362 278 365 285 366 289 c 0
 369 300 389 340 398 352 c 0
 431 399 449 408 472 421 c 0
 490 430 581 428 587 426 c 0
 622 417 653 399 674 375 c 0
 684 364 706 332 706 329 c 0
 706 328 717 309 725 270 c 0
 730 244 726 192 717 173 c 0
 698 132 689 122 668 99 c 0
 642 71 630 60 614 49 c 0
 590 33 557 11 556 12 c 0
 555 13 534 3 528 2 c 0
 524 1 520 1 498 -6 c 0
 487 -9 430 -11 398 17 c 0
 363 47 359 79 355 72 c 0
 312 7 173 -2 153 8 c 0
 147 11 98 22 68 54 c 0
 47 77 27 117 25 139 c 0
 25 143 23 153 22 162 c 0
 15 204 30 282 60 327 c 0
535 330 m 0
 530 330 518 350 510 350 c 0
 509 350 506 351 505 353 c 0
 503 356 501 354 485 337 c 0
 467 319 439 290 423 211 c 0
 411 152 423 91 449 73 c 0
 455 69 458 68 474 68 c 0
 520 68 578 111 604 141 c 0
 639 180 648 192 650 230 c 0
 653 300 603 346 572 351 c 0
 564 352 563 352 563 349 c 0
 563 345 541 330 535 330 c 0
EndSplineSet
Ligature2: "liga" c o
EndChar

StartChar: o_o
Encoding: 1114113 -1 38
Width: 830
VWidth: -118
Flags: W
LayerCount: 2
Fore
SplineSet
521 394 m 0
 528 394 540 413 582 420 c 0
 620 427 647 390 652 378 c 0
 656 369 813 282 786 171 c 0
 781 151 770 118 762 105 c 0
 731 53 642 12 635 12 c 0
 634 12 613 1 579 -3 c 0
 548 -7 516 -6 512 -2 c 0
 510 0 508 1 506 1 c 0
 493 1 438 28 431 46 c 0
 429 50 410 77 407 90 c 0
 397 129 395 135 398 172 c 2
 400 189 l 1
 394 178 l 1
 369 124 352 108 352 107 c 0
 352 106 346 98 337 90 c 0
 308 62 251 27 229 24 c 0
 225 23 174 7 159 13 c 0
 155 15 116 15 105 25 c 0
 102 27 99 29 98 29 c 0
 97 29 64 45 42 90 c 0
 36 102 30 117 28 122 c 0
 5 205 39 281 39 283 c 0
 39 297 81 377 99 387 c 0
 101 388 109 394 118 400 c 0
 160 428 195 415 196 415 c 0
 198 413 221 409 225 403 c 0
 226 402 231 401 237 401 c 0
 249 401 299 391 332 361 c 0
 337 356 343 352 344 352 c 0
 345 352 344 352 374 318 c 0
 380 311 396 277 397 269 c 0
 398 257 401 253 401 238 c 0
 401 232 402 226 402 225 c 0
 404 223 396 169 404 207 c 0
 417 260 458 329 464 333 c 0
 465 333 515 394 521 394 c 0
190 340 m 0
 190 343 179 348 178 348 c 0
 152 341 135 322 115 277 c 0
 103 250 103 250 98 212 c 0
 95 189 91 157 108 124 c 0
 115 110 119 105 126 100 c 0
 142 88 144 88 166 88 c 0
 222 88 260 122 283 145 c 0
 305 167 310 172 317 187 c 2
 325 204 l 1
 325 229 l 2
 325 252 324 253 319 263 c 0
 301 297 263 320 259 320 c 0
 255 320 246 305 232 319 c 0
 230 321 228 323 228 323 c 1
 228 322 225 325 211 327 c 0
 202 328 190 336 190 340 c 0
554 320 m 0
 549 323 548 323 537 311 c 0
 497 267 439 153 492 91 c 0
 510 70 530 70 547 70 c 0
 562 70 601 69 648 100 c 0
 663 110 713 143 713 194 c 0
 713 229 678 262 677 263 c 0
 673 266 666 272 661 277 c 0
 649 289 635 299 615 309 c 0
 579 327 581 307 554 320 c 0
EndSplineSet
Ligature2: "liga" o o
EndChar

StartChar: A
Encoding: 65 65 39
Width: 453
VWidth: 771
Flags: HW
AnchorPoint: "above" 216.545 620.195 basechar 0
LayerCount: 2
Fore
SplineSet
124 247 m 0
 118 247 99 106 99 86 c 0
 99 75 99 65 94 46 c 0
 91 31 82 27 54 27 c 0
 27 27 24 27 22 57 c 0
 18 109 17 109 36 236 c 0
 46 301 61 358 79 407 c 0
 98 460 120 520 164 566 c 0
 223 626 288 589 289 588 c 0
 292 586 295 584 297 584 c 0
 301 584 330 557 338 545 c 0
 355 520 355 520 371 484 c 0
 380 463 399 372 404 327 c 0
 411 260 417 201 411 107 c 0
 410 95 404 68 402 66 c 0
 401 65 400 62 398 59 c 0
 394 52 380 44 372 44 c 0
 369 44 357 49 347 55 c 0
 323 68 324 68 329 109 c 0
 331 129 333 182 331 220 c 2
 330 244 l 1
 328 244 218 256 149 250 c 0
 137 249 125 247 124 247 c 0
295 457 m 0
 288 465 274 515 242 518 c 0
 233 519 232 519 223 511 c 0
 204 494 181 456 170 421 c 0
 161 394 154 383 152 372 c 0
 151 363 141 337 141 334 c 0
 141 330 270 330 304 327 c 0
 313 326 321 326 321 326 c 0
 322 327 309 407 307 409 c 0
 302 416 299 453 295 457 c 0
EndSplineSet
EndChar

StartChar: K
Encoding: 75 75 40
Width: 470
VWidth: 771
Flags: HW
AnchorPoint: "above" 224.816 611.375 basechar 0
LayerCount: 2
Fore
SplineSet
212 196 m 0
 207 196 134 258 122 264 c 1
 122 217 l 2
 123 113 122 58 119 52 c 0
 113 40 109 39 85 37 c 0
 46 34 45 41 46 109 c 0
 47 238 42 321 31 394 c 0
 30 401 29 412 29 419 c 0
 29 434 25 465 22 472 c 0
 19 480 17 546 32 562 c 0
 37 567 37 566 54 565 c 0
 87 563 88 558 88 543 c 0
 88 517 99 507 97 487 c 0
 97 481 97 475 98 473 c 0
 98 472 110 396 108 392 c 0
 103 381 119 395 128 409 c 0
 155 453 283 568 283 570 c 0
 283 573 310 590 317 591 c 0
 325 592 337 591 339 588 c 0
 366 557 365 553 354 531 c 0
 347 516 307 488 306 488 c 0
 301 485 288 472 248 431 c 0
 230 412 187 363 176 349 c 0
 167 337 166 336 169 334 c 0
 192 318 158 332 207 293 c 0
 240 267 260 252 261 252 c 0
 267 252 364 157 363 155 c 0
 362 150 438 74 429 19 c 0
 425 1 417 1 417 1 c 0
 416 1 414 0 412 -2 c 0
 408 -6 381 -8 378 -4 c 0
 377 -3 373 -1 371 -1 c 0
 352 -1 353 36 349 44 c 0
 336 69 293 121 259 152 c 0
 246 164 218 196 212 196 c 0
EndSplineSet
EndChar

StartChar: L
Encoding: 76 76 41
Width: 450
VWidth: 723
Flags: HW
AnchorPoint: "above" 214.991 575.001 basechar 0
LayerCount: 2
Fore
SplineSet
45 549 m 0
 52 554 53 555 77 555 c 0
 109 555 109 556 112 495 c 0
 112 493 115 392 105 336 c 0
 105 333 86 131 110 82 c 0
 113 76 115 74 121 73 c 0
 137 70 204 86 232 99 c 0
 260 112 301 116 318 120 c 0
 356 130 396 116 397 112 c 0
 398 110 399 109 400 109 c 0
 402 109 407 99 409 90 c 0
 411 83 410 81 402 65 c 0
 378 17 389 71 245 22 c 0
 189 4 162 -5 112 -5 c 0
 104 -5 75 6 70 12 c 0
 64 19 65 19 58 25 c 0
 46 36 32 64 26 91 c 0
 17 131 18 232 31 394 c 0
 33 414 35 450 36 475 c 0
 38 535 39 545 45 549 c 0
EndSplineSet
EndChar

StartChar: M
Encoding: 77 77 42
Width: 518
VWidth: 788
Flags: HW
AnchorPoint: "above" 248.972 622.444 basechar 0
LayerCount: 2
Fore
SplineSet
127 496 m 0
 127 495 181 418 194 418 c 0
 206 418 286 535 287 536 c 0
 296 549 325 580 328 580 c 0
 330 580 352 596 353 598 c 0
 353 599 357 599 361 599 c 0
 365 599 369 600 371 601 c 0
 376 604 407 602 417 598 c 0
 426 594 455 566 455 561 c 0
 455 558 465 531 468 523 c 0
 469 521 489 452 470 267 c 0
 465 224 449 81 461 49 c 0
 467 33 456 25 456 25 c 0
 454 25 449 20 443 13 c 0
 440 9 423 5 415 7 c 0
 412 8 404 12 398 18 c 0
 381 33 379 47 379 98 c 0
 379 182 388 177 397 336 c 0
 398 346 398 355 399 356 c 0
 403 361 400 463 395 492 c 0
 392 508 385 526 383 526 c 0
 377 526 339 480 309 435 c 0
 278 390 267 377 240 355 c 0
 233 350 207 340 199 340 c 0
 184 340 164 343 160 346 c 0
 154 352 146 354 134 367 c 0
 129 372 124 376 124 376 c 0
 122 376 117 382 106 395 c 2
 96 407 l 1
 97 346 l 2
 98 292 106 176 106 174 c 0
 106 173 110 122 109 117 c 0
 109 116 117 29 109 4 c 0
 108 3 108 2 108 2 c 0
 109 1 99 -15 97 -16 c 0
 97 -16 62 -24 53 -17 c 0
 50 -15 48 -11 48 -10 c 0
 48 -4 40 7 36 45 c 0
 35 52 25 219 25 221 c 0
 26 246 20 236 20 380 c 0
 19 499 21 512 36 528 c 0
 48 541 82 544 90 531 c 0
 91 530 92 529 93 530 c 0
 95 531 127 499 127 496 c 0
EndSplineSet
EndChar

StartChar: N
Encoding: 78 78 43
Width: 455
VWidth: 809
Flags: HW
AnchorPoint: "above" 217.833 649.872 basechar 0
LayerCount: 2
Fore
SplineSet
42 53 m 0
 42 54 29 90 29 184 c 0
 29 218 23 268 21 312 c 0
 21 314 18 496 22 544 c 0
 23 559 24 560 29 565 c 0
 48 583 50 584 77 584 c 0
 83 583 94 571 100 569 c 0
 103 568 113 545 113 545 c 0
 112 540 158 453 205 381 c 0
 228 346 272 286 292 263 c 0
 300 254 310 242 313 238 c 2
 319 231 l 1
 318 277 l 2
 318 302 316 350 315 383 c 0
 312 449 314 525 320 557 c 0
 326 593 343 648 390 624 c 0
 399 619 424 606 413 583 c 0
 372 500 425 160 385 98 c 0
 380 90 374 84 374 86 c 0
 374 88 356 80 350 80 c 0
 343 80 329 85 324 89 c 0
 317 95 311 97 310 102 c 0
 307 110 266 170 253 184 c 0
 251 186 171 282 115 375 c 2
 99 401 l 1
 101 370 l 1
 109 196 108 196 109 189 c 0
 110 175 111 161 111 157 c 0
 111 153 112 140 113 128 c 0
 117 93 116 52 111 45 c 0
 105 36 61 31 54 34 c 0
 48 37 42 46 42 53 c 0
EndSplineSet
EndChar

StartChar: O
Encoding: 79 79 44
Width: 489
VWidth: 759
Flags: HW
AnchorPoint: "above" 234.549 602.188 basechar 0
LayerCount: 2
Fore
SplineSet
188 577 m 0
 211 587 227 581 248 572 c 0
 258 568 286 564 294 561 c 0
 334 541 334 541 341 536 c 0
 346 533 350 530 351 530 c 0
 353 530 379 507 383 502 c 0
 385 500 388 497 390 495 c 0
 421 465 450 392 449 365 c 0
 449 364 451 301 443 263 c 0
 427 186 370 103 369 102 c 0
 368 101 362 94 356 87 c 0
 255 -39 158 -9 156 -8 c 0
 127 5 89 24 63 76 c 0
 53 96 37 136 32 157 c 0
 27 177 27 178 24 209 c 0
 23 221 21 235 20 241 c 0
 20 242 18 308 30 360 c 0
 32 367 34 375 34 378 c 0
 35 386 43 412 46 415 c 0
 52 422 87 508 141 552 c 0
 156 565 162 569 169 570 c 0
 172 571 181 574 188 577 c 0
239 488 m 0
 222 477 203 505 199 505 c 0
 197 505 111 434 97 299 c 0
 95 280 98 232 102 210 c 0
 104 202 105 189 106 181 c 0
 108 167 122 127 132 107 c 0
 136 98 163 52 213 70 c 0
 221 73 229 75 231 76 c 0
 244 80 296 131 313 157 c 0
 324 173 342 205 353 231 c 0
 371 272 379 345 366 380 c 0
 363 389 360 398 360 400 c 0
 360 409 317 472 270 487 c 0
 253 492 246 493 239 488 c 0
EndSplineSet
EndChar

StartChar: P
Encoding: 80 80 45
Width: 459
VWidth: 786
Flags: HW
AnchorPoint: "above" 219.308 624.605 basechar 0
LayerCount: 2
Fore
SplineSet
415 384 m 0
 415 378 404 361 406 361 c 0
 409 361 390 334 391 332 c 0
 391 331 368 300 333 279 c 0
 329 276 324 273 322 271 c 0
 319 268 278 252 262 248 c 0
 217 235 117 245 116 244 c 0
 110 241 118 88 123 79 c 0
 126 74 128 45 126 36 c 0
 124 23 120 19 100 12 c 0
 82 6 76 4 60 19 c 0
 38 40 38 152 38 208 c 0
 38 210 42 408 45 450 c 2
 46 468 l 1
 37 471 l 2
 31 473 13 480 22 509 c 0
 30 534 31 534 41 541 c 0
 46 544 50 548 52 550 c 0
 59 557 96 577 109 581 c 0
 111 582 118 585 124 588 c 0
 125 589 190 616 254 599 c 0
 287 590 286 590 308 581 c 0
 337 568 370 536 371 536 c 0
 375 536 375 530 391 513 c 0
 398 505 400 495 404 492 c 0
 409 488 416 450 418 447 c 0
 420 444 419 396 417 392 c 0
 416 390 415 386 415 384 c 0
340 431 m 0
 340 491 239 561 124 515 c 0
 120 513 119 512 119 506 c 0
 119 502 120 498 121 497 c 0
 124 494 118 341 120 323 c 1
 132 321 l 2
 146 318 206 317 229 320 c 0
 261 324 308 347 322 367 c 0
 336 387 347 415 342 420 c 0
 341 421 340 426 340 431 c 0
EndSplineSet
EndChar

StartChar: Q
Encoding: 81 81 46
Width: 579
VWidth: 795
Flags: HW
AnchorPoint: "above" 279.18 633.036 basechar 0
LayerCount: 2
Fore
SplineSet
193 594 m 0
 194 594 230 614 252 613 c 0
 270 613 295 599 301 599 c 0
 302 599 356 591 404 527 c 0
 431 491 470 398 470 373 c 0
 470 363 473 356 475 329 c 0
 475 320 476 305 477 297 c 0
 479 271 471 277 473 265 c 0
 474 256 469 231 463 216 c 0
 457 201 450 178 444 168 c 0
 439 159 433 149 433 148 c 0
 433 145 447 142 477 123 c 0
 487 117 496 112 497 112 c 0
 498 112 508 103 519 92 c 2
 539 73 l 1
 538 63 l 2
 537 53 535 51 528 45 c 0
 523 41 515 33 509 28 c 0
 496 16 490 14 465 37 c 0
 449 52 429 65 395 82 c 2
 385 87 l 1
 376 78 l 2
 364 66 343 49 334 45 c 0
 333 45 290 21 272 16 c 0
 253 11 225 8 220 9 c 0
 217 10 211 11 206 11 c 0
 188 11 136 38 111 60 c 0
 100 70 69 99 40 177 c 0
 32 198 26 216 25 233 c 0
 25 237 23 247 22 256 c 0
 14 316 20 412 100 515 c 0
 122 544 175 588 193 594 c 0
300 497 m 0
 265 532 261 528 247 519 c 0
 234 510 219 506 210 510 c 0
 204 512 204 512 193 502 c 0
 179 489 152 458 141 443 c 0
 128 424 108 374 102 346 c 0
 98 324 97 320 98 283 c 0
 99 226 103 211 130 161 c 0
 139 144 145 136 159 121 c 0
 179 100 190 93 214 89 c 0
 237 84 242 84 270 97 c 0
 288 105 311 120 311 123 c 0
 311 127 268 153 247 175 c 0
 240 182 233 190 230 192 c 0
 208 209 222 226 228 234 c 0
 238 246 242 251 259 251 c 0
 262 252 306 219 339 198 c 2
 364 182 l 1
 373 198 l 2
 382 214 386 223 394 252 c 0
 398 265 398 270 398 302 c 0
 398 350 394 368 380 406 c 0
 375 419 357 466 336 491 c 1
 329 486 317 477 306 490 c 0
 304 493 301 496 300 497 c 0
EndSplineSet
EndChar

StartChar: R
Encoding: 82 82 47
Width: 447
VWidth: 788
Flags: HW
AnchorPoint: "above" 213.543 625.486 basechar 0
LayerCount: 2
Fore
SplineSet
253 604 m 0
 260 611 336 591 337 591 c 0
 340 591 354 582 359 583 c 0
 363 584 368 576 371 576 c 0
 374 576 376 567 382 566 c 0
 387 565 400 538 400 537 c 0
 400 530 408 520 407 515 c 0
 407 513 405 505 405 497 c 0
 403 469 374 410 338 377 c 0
 288 331 251 310 191 284 c 1
 218 260 l 2
 235 245 258 222 258 222 c 0
 260 223 303 180 309 171 c 0
 309 170 355 111 355 102 c 0
 355 101 356 100 357 101 c 0
 359 103 395 27 394 23 c 0
 391 8 391 6 368 -6 c 0
 344 -19 348 -9 343 -11 c 0
 340 -11 329 -6 326 -2 c 0
 319 6 288 76 262 106 c 0
 256 113 249 121 247 125 c 0
 224 158 168 192 108 261 c 1
 106 231 l 2
 104 187 99 118 102 110 c 0
 105 102 105 98 106 70 c 0
 107 42 106 40 96 19 c 0
 87 1 81 5 81 4 c 0
 81 3 73 3 64 3 c 0
 43 3 33 5 25 29 c 2
 20 44 l 1
 21 91 l 2
 22 145 38 336 29 426 c 0
 29 427 23 487 23 489 c 0
 24 503 32 530 37 535 c 0
 39 537 41 540 43 543 c 0
 45 547 51 552 59 556 c 0
 66 560 74 564 77 566 c 0
 139 602 250 601 253 604 c 0
100 471 m 0
 100 470 109 399 109 361 c 2
 109 343 l 1
 123 346 l 2
 130 348 143 350 151 352 c 0
 183 359 245 396 278 427 c 0
 309 456 328 487 328 506 c 2
 328 515 l 1
 317 520 l 2
 299 528 292 531 276 532 c 0
 196 539 94 519 94 490 c 0
 94 481 100 483 100 471 c 0
EndSplineSet
EndChar

StartChar: S
Encoding: 83 83 48
Width: 467
VWidth: 768
Flags: HW
AnchorPoint: "above" 223.726 609.811 basechar 0
LayerCount: 2
Fore
SplineSet
44 127 m 0
 44 130 38 133 38 136 c 0
 38 146 9 168 36 192 c 0
 59 213 62 211 125 140 c 0
 170 89 195 71 237 71 c 0
 266 71 275 76 303 107 c 0
 335 144 348 160 349 231 c 0
 349 268 343 285 323 304 c 0
 305 321 300 323 279 323 c 0
 213 323 110 276 83 287 c 0
 80 288 75 290 72 290 c 0
 65 291 37 312 32 332 c 0
 30 337 29 341 28 341 c 0
 27 341 4 395 42 464 c 0
 64 503 64 504 105 540 c 0
 110 544 154 574 186 581 c 0
 193 583 202 585 206 587 c 0
 215 590 257 591 259 588 c 0
 260 587 262 586 265 586 c 0
 286 586 356 549 356 542 c 0
 356 540 363 535 363 530 c 0
 364 524 367 520 371 518 c 0
 378 514 376 504 364 486 c 0
 358 477 353 477 342 481 c 0
 338 483 333 483 330 483 c 0
 323 483 323 486 321 486 c 0
 306 486 269 516 223 511 c 0
 175 506 124 461 105 421 c 0
 98 407 98 407 99 389 c 0
 100 376 101 354 111 364 c 0
 114 367 114 367 190 386 c 0
 238 398 250 400 285 399 c 2
 315 399 l 1
 340 386 l 2
 364 373 423 339 427 239 c 0
 431 134 388 82 342 36 c 0
 340 34 298 -7 241 -7 c 0
 232 -7 222 -7 218 -7 c 0
 166 -8 79 67 67 92 c 0
 62 102 44 124 44 127 c 0
EndSplineSet
EndChar

StartChar: T
Encoding: 84 84 49
Width: 486
VWidth: 795
Flags: HW
AnchorPoint: "above" 232.727 643 basechar 0
LayerCount: 2
Fore
SplineSet
397 622 m 2
 429 623 l 1
 434 618 439 612 444 607 c 1
 445 586 l 2
 446 564 446 560 438 552 c 0
 434 548 431 548 418 548 c 0
 416 548 299 537 242 527 c 0
 225 524 242 508 236 493 c 0
 233 486 232 341 235 270 c 0
 235 268 242 68 235 61 c 0
 233 59 232 56 232 54 c 0
 232 50 226 45 220 43 c 0
 219 43 175 43 164 54 c 0
 156 62 155 66 156 80 c 0
 157 116 153 408 153 411 c 2
 153 510 l 1
 125 505 118 500 85 496 c 0
 65 493 37 501 27 510 c 2
 20 516 l 1
 21 533 l 2
 23 563 29 570 54 572 c 0
 91 574 249 620 397 622 c 2
EndSplineSet
EndChar

StartChar: B
Encoding: 66 66 50
Width: 432
VWidth: 759
Flags: HW
AnchorPoint: "above" 205.471 600.414 basechar 0
LayerCount: 2
Fore
SplineSet
355 532 m 0
 358 532 369 512 374 512 c 0
 377 512 389 468 384 461 c 0
 381 457 386 426 351 382 c 0
 340 369 317 346 311 343 c 0
 311 343 282 321 263 314 c 0
 259 312 256 311 256 310 c 0
 256 308 321 277 337 262 c 0
 341 258 345 254 346 254 c 0
 347 254 361 243 384 196 c 0
 390 185 393 130 390 107 c 0
 376 24 367 39 367 30 c 0
 367 26 345 5 333 -1 c 0
 327 -4 297 -13 285 -16 c 0
 284 -16 245 -24 183 -15 c 0
 164 -12 118 9 105 20 c 0
 103 22 98 23 87 23 c 0
 51 23 51 24 48 150 c 0
 48 153 40 362 31 414 c 0
 28 431 24 459 24 466 c 0
 24 493 17 510 21 519 c 0
 26 531 47 531 52 539 c 0
 54 544 64 549 70 549 c 0
 76 549 87 553 87 555 c 0
 87 558 167 582 193 578 c 0
 205 576 206 582 214 580 c 0
 217 579 227 579 237 578 c 0
 288 575 328 549 329 549 c 0
 331 549 341 540 344 540 c 0
 346 540 352 532 355 532 c 0
261 497 m 0
 231 497 248 509 176 502 c 0
 155 500 110 491 99 487 c 0
 91 484 103 472 101 461 c 0
 98 438 108 469 112 356 c 0
 113 314 125 207 124 158 c 0
 124 149 124 132 125 119 c 2
 127 95 l 1
 135 92 139 90 139 88 c 0
 139 83 179 61 193 59 c 0
 205 57 277 50 299 69 c 0
 318 85 327 173 291 202 c 0
 255 232 166 265 143 287 c 0
 131 299 131 298 132 323 c 0
 132 330 134 337 135 339 c 0
 139 345 164 360 170 360 c 0
 171 360 234 373 275 413 c 0
 295 432 301 441 305 455 c 0
 309 471 310 475 284 488 c 0
 274 493 264 497 261 497 c 0
EndSplineSet
EndChar

StartChar: U
Encoding: 85 85 51
Width: 455
VWidth: 776
Flags: HW
AnchorPoint: "above" 217.307 608.959 basechar 0
LayerCount: 2
Fore
SplineSet
110 456 m 0
 110 454 97 341 97 259 c 0
 97 258 98 190 111 127 c 0
 111 126 130 60 160 50 c 0
 189 41 210 57 242 89 c 0
 267 114 323 176 334 255 c 0
 348 351 307 511 305 511 c 0
 301 511 294 523 291 533 c 0
 284 561 292 586 307 586 c 0
 321 586 302 591 343 588 c 0
 347 588 372 567 375 552 c 0
 377 543 405 458 411 374 c 0
 411 368 412 362 413 361 c 0
 418 353 414 230 404 207 c 0
 403 205 401 198 399 192 c 0
 387 154 343 81 310 47 c 0
 306 43 298 35 293 29 c 0
 283 18 258 -3 255 -3 c 0
 249 -3 233 -18 204 -27 c 0
 187 -32 187 -32 168 -30 c 0
 130 -25 115 -17 93 1 c 0
 88 6 67 32 67 34 c 0
 67 36 34 97 28 143 c 0
 28 147 26 155 25 162 c 0
 11 254 27 428 35 448 c 0
 36 450 37 458 37 464 c 0
 37 487 52 547 72 557 c 2
 79 560 l 1
 99 550 l 2
 119 541 126 534 123 529 c 0
 119 523 123 489 113 470 c 0
 112 467 110 461 110 456 c 0
EndSplineSet
EndChar

StartChar: V
Encoding: 86 86 52
Width: 427
VWidth: 747
Flags: HW
AnchorPoint: "above" 203.5 596 basechar 0
LayerCount: 2
Fore
SplineSet
66 298 m 0
 66 310 41 368 41 379 c 0
 41 384 33 391 30 409 c 0
 27 427 20 435 20 445 c 0
 20 458 22 462 39 472 c 0
 55 482 55 482 71 480 c 1
 89 453 l 2
 99 438 107 425 107 424 c 0
 107 421 116 407 117 398 c 0
 117 396 159 249 161 241 c 0
 176 169 203 105 204 104 c 0
 205 104 218 151 221 176 c 0
 225 204 228 220 230 222 c 0
 231 223 232 227 232 230 c 0
 232 249 243 273 245 290 c 0
 247 306 253 329 262 364 c 0
 263 366 311 561 317 567 c 0
 325 575 327 576 350 576 c 0
 365 576 372 575 372 570 c 0
 372 570 387 556 387 545 c 0
 387 532 348 392 348 390 c 0
 348 388 310 236 307 208 c 0
 304 179 284 76 267 46 c 0
 260 33 241 11 236 11 c 0
 234 11 234 11 234 10 c 0
 234 1 179 2 166 26 c 0
 164 30 160 35 158 36 c 0
 136 52 94 173 94 192 c 0
 94 206 67 281 66 298 c 0
EndSplineSet
EndChar

StartChar: W
Encoding: 87 87 53
Width: 622
VWidth: 813
Flags: HW
AnchorPoint: "above" 300.632 644 basechar 0
LayerCount: 2
Fore
SplineSet
479 609 m 0
 484 609 488 622 506 624 c 0
 511 624 537 614 542 610 c 0
 548 604 561 577 564 563 c 0
 578 497 581 367 581 365 c 0
 584 350 569 263 562 249 c 0
 561 248 532 176 516 158 c 0
 514 155 512 152 512 151 c 0
 512 149 490 119 486 113 c 0
 481 106 452 76 450 76 c 0
 441 76 416 35 363 37 c 0
 324 38 300 60 300 61 c 0
 300 63 290 71 282 88 c 0
 278 95 275 101 274 101 c 0
 269 101 229 -4 161 -9 c 0
 142 -10 117 -2 107 10 c 0
 79 44 76 60 76 61 c 0
 76 63 63 89 61 109 c 0
 60 124 50 173 46 254 c 0
 45 264 44 295 43 322 c 0
 40 389 32 456 25 473 c 0
 20 485 18 514 22 519 c 0
 22 519 55 547 75 541 c 0
 80 540 111 487 107 487 c 0
 105 487 112 483 113 467 c 0
 123 356 113 405 127 229 c 0
 129 202 131 176 131 170 c 0
 131 166 143 89 155 73 c 0
 170 53 241 215 264 231 c 0
 281 242 305 244 311 234 c 0
 314 228 326 230 328 217 c 0
 330 206 335 206 333 203 c 0
 332 201 336 174 341 152 c 0
 349 114 358 107 381 122 c 0
 418 146 465 209 480 257 c 0
 483 266 486 274 487 276 c 0
 489 280 496 315 496 322 c 0
 496 344 506 309 501 417 c 0
 501 418 492 549 484 555 c 0
 470 565 469 609 479 609 c 0
EndSplineSet
EndChar

StartChar: X
Encoding: 88 88 54
Width: 471
VWidth: 777
Flags: HW
AnchorPoint: "above" 224.948 618.39 basechar 0
LayerCount: 2
Fore
SplineSet
77 21 m 2
 75 21 66 16 62 16 c 0
 57 16 22 39 21 43 c 0
 18 54 22 69 33 86 c 0
 40 97 53 122 67 146 c 0
 72 155 130 256 131 257 c 2
 166 316 l 1
 155 337 l 2
 149 348 143 359 143 360 c 0
 143 361 118 401 86 464 c 0
 73 490 80 471 41 550 c 0
 39 554 39 554 41 570 c 0
 44 588 77 598 77 598 c 0
 79 600 91 594 96 587 c 0
 99 583 105 576 109 572 c 0
 127 554 170 465 177 454 c 0
 178 453 186 439 195 422 c 2
 212 391 l 1
 235 430 l 2
 236 431 314 555 315 559 c 0
 319 604 379 603 383 585 c 0
 386 573 399 584 398 557 c 0
 397 545 396 542 370 503 c 0
 299 396 265 332 256 319 c 0
 254 316 256 312 279 273 c 0
 353 149 373 147 409 82 c 0
 423 59 422 59 423 54 c 0
 424 50 426 43 428 38 c 0
 435 20 420 12 420 12 c 0
 413 12 393 -4 381 -2 c 0
 351 2 361 25 309 96 c 0
 259 163 248 178 225 216 c 0
 217 229 211 240 210 240 c 0
 206 240 86 21 79 21 c 2
 77 21 l 2
EndSplineSet
EndChar

StartChar: Y
Encoding: 89 89 55
Width: 521
VWidth: 734
Flags: HW
AnchorPoint: "above" 250.6 586.562 basechar 0
LayerCount: 2
Fore
SplineSet
444 565 m 0
 461 569 468 566 476 548 c 0
 482 535 482 534 480 524 c 0
 473 495 467 483 449 459 c 0
 414 412 330 302 297 246 c 0
 277 213 284 167 278 148 c 0
 276 142 271 74 271 43 c 0
 271 22 268 13 261 10 c 0
 257 9 222 3 215 3 c 0
 208 3 200 11 199 19 c 0
 191 71 191 66 196 109 c 0
 196 110 207 217 209 224 c 0
 211 231 210 231 203 238 c 0
 194 246 179 268 170 283 c 0
 149 320 71 434 65 438 c 0
 58 442 24 505 21 517 c 0
 18 529 22 542 30 549 c 0
 32 551 41 554 50 557 c 2
 65 562 l 1
 73 558 l 2
 82 553 88 547 98 527 c 0
 128 470 143 472 234 322 c 0
 241 311 246 305 246 305 c 1
 246 307 284 365 288 368 c 0
 289 369 355 459 356 460 c 0
 398 517 404 526 404 536 c 0
 405 548 405 549 409 554 c 0
 414 560 427 565 433 564 c 0
 435 564 440 564 444 565 c 0
EndSplineSet
EndChar

StartChar: Z
Encoding: 90 90 56
Width: 509
VWidth: 750
Flags: HW
AnchorPoint: "above" 244.947 603.747 basechar 0
LayerCount: 2
Fore
SplineSet
452 564 m 0
 452 561 465 558 465 547 c 0
 465 544 467 538 468 534 c 0
 475 515 458 498 458 495 c 0
 458 494 453 485 447 476 c 0
 421 438 291 318 219 232 c 0
 209 220 195 204 190 198 c 0
 170 176 121 109 121 105 c 0
 121 103 162 104 199 108 c 0
 262 114 447 111 455 105 c 0
 456 104 485 48 445 38 c 0
 383 22 332 41 289 37 c 0
 258 35 258 35 86 28 c 0
 55 27 42 28 37 34 c 0
 17 58 16 61 28 91 c 0
 38 118 57 150 80 180 c 0
 138 255 173 301 261 390 c 0
 262 391 351 484 356 489 c 0
 369 502 371 505 368 506 c 0
 353 511 191 482 158 480 c 0
 134 478 79 468 72 468 c 0
 56 468 55 469 44 491 c 0
 29 521 39 526 66 539 c 0
 82 547 90 549 97 550 c 0
 165 555 295 578 332 579 c 0
 333 579 379 586 390 583 c 0
 402 582 433 574 435 572 c 0
 439 569 452 566 452 564 c 0
EndSplineSet
EndChar

StartChar: I_hyphen_p_r_o_n_o_u_n
Encoding: 1114114 -1 57
Width: 450
VWidth: 189
Flags: W
LayerCount: 2
Fore
SplineSet
112 12 m 0
 45 12 34 25 30 25 c 0
 29 25 26 27 24 30 c 0
 21 34 11 84 38 86 c 0
 42 87 49 88 54 89 c 0
 71 94 86 86 132 89 c 0
 157 91 158 92 159 103 c 0
 166 173 173 323 173 325 c 0
 181 414 183 451 180 490 c 2
 178 507 l 1
 140 507 l 2
 69 507 56 514 54 548 c 0
 53 565 54 566 70 577 c 2
 78 583 l 1
 120 583 l 2
 176 583 272 589 274 592 c 0
 275 593 283 593 293 593 c 0
 336 593 345 605 356 606 c 0
 364 607 375 613 379 611 c 0
 380 610 382 609 383 609 c 0
 391 609 408 576 409 574 c 0
 411 568 404 548 400 546 c 0
 386 539 402 536 364 526 c 0
 331 518 303 515 269 514 c 2
 258 513 l 1
 258 475 l 2
 258 451 244 211 242 155 c 0
 241 127 240 117 238 115 c 0
 235 113 234 101 237 99 c 0
 237 99 263 104 285 104 c 0
 286 104 351 103 359 97 c 0
 361 95 366 92 369 91 c 0
 378 88 383 72 385 72 c 0
 388 72 395 48 388 37 c 0
 384 30 382 20 381 22 c 0
 379 24 357 -5 336 15 c 0
 332 19 325 24 322 25 c 0
 315 27 276 27 273 25 c 0
 269 21 140 14 138 13 c 0
 133 10 143 18 125 14 c 0
 119 13 113 12 112 12 c 0
EndSplineSet
Ligature2: "liga" I hyphen p r o n o u n
EndChar

StartChar: C
Encoding: 67 67 58
Width: 468
VWidth: 802
Flags: HW
AnchorPoint: "above" 223.74 638.685 basechar 0
LayerCount: 2
Fore
SplineSet
21 252 m 0
 21 302 45 371 45 372 c 0
 45 391 127 566 197 601 c 0
 259 633 294 612 295 611 c 0
 298 609 323 601 344 585 c 0
 353 578 370 560 373 554 c 0
 394 517 400 507 377 493 c 0
 371 489 364 485 362 484 c 0
 358 483 348 486 348 488 c 0
 348 489 347 490 345 490 c 0
 334 490 281 561 237 537 c 0
 223 530 159 473 124 366 c 0
 118 349 113 332 112 330 c 0
 103 310 65 135 159 88 c 0
 191 72 246 87 258 92 c 0
 320 117 367 166 375 167 c 0
 377 167 381 169 383 170 c 0
 392 175 398 174 410 164 c 0
 428 149 436 141 417 112 c 0
 411 102 378 70 374 70 c 0
 371 70 348 56 343 51 c 0
 334 44 270 14 262 14 c 0
 260 14 253 12 246 10 c 0
 221 2 168 4 140 14 c 0
 93 31 55 71 37 125 c 0
 35 131 32 137 31 138 c 0
 30 139 17 162 20 229 c 0
 20 231 21 242 21 252 c 0
EndSplineSet
EndChar

StartChar: D
Encoding: 68 68 59
Width: 501
VWidth: 767
Flags: HW
AnchorPoint: "above" 240.273 615.625 basechar 0
LayerCount: 2
Fore
SplineSet
20 95 m 0
 20 99 36 363 36 499 c 0
 36 503 35 511 35 518 c 0
 34 533 37 539 56 565 c 0
 66 579 67 580 73 581 c 0
 82 581 91 587 108 591 c 0
 167 604 241 587 272 572 c 0
 284 566 293 566 320 549 c 0
 331 542 341 537 342 537 c 0
 344 537 363 520 365 520 c 0
 368 520 383 503 386 503 c 0
 387 503 389 500 391 498 c 0
 404 477 410 484 433 438 c 0
 449 406 449 407 451 399 c 0
 453 387 454 392 456 372 c 0
 458 349 462 357 460 350 c 0
 455 326 462 317 447 273 c 0
 442 259 438 245 437 242 c 0
 433 228 410 196 410 195 c 0
 410 192 402 184 403 182 c 0
 404 181 349 113 270 75 c 0
 259 69 249 63 248 62 c 0
 241 53 153 27 130 27 c 0
 127 27 82 19 65 26 c 0
 61 28 55 29 52 30 c 0
 29 35 32 48 28 48 c 0
 27 48 25 50 23 54 c 0
 21 59 20 67 20 95 c 0
264 495 m 0
 263 495 176 539 120 525 c 0
 105 521 100 517 104 513 c 0
 106 510 116 444 110 336 c 0
 109 317 108 284 107 262 c 0
 106 210 100 123 98 115 c 0
 95 104 96 101 103 101 c 0
 114 101 152 109 167 115 c 0
 241 142 262 150 318 205 c 0
 333 220 355 251 362 266 c 0
 372 290 389 359 374 383 c 0
 373 385 369 392 367 398 c 0
 362 410 342 435 328 446 c 0
 323 450 313 460 306 466 c 0
 295 475 267 495 264 495 c 0
EndSplineSet
EndChar

StartChar: E
Encoding: 69 69 60
Width: 475
VWidth: 752
Flags: HW
AnchorPoint: "above" 227.364 592.868 basechar 0
LayerCount: 2
Fore
SplineSet
107 -26 m 0
 74 -26 38 -14 37 -14 c 0
 34 -14 23 0 21 6 c 0
 21 6 17 35 29 46 c 0
 35 52 35 52 34 65 c 0
 26 132 45 191 46 375 c 2
 46 453 l 1
 41 465 l 2
 38 472 36 480 36 482 c 0
 36 487 47 508 51 513 c 0
 56 518 68 522 77 522 c 0
 91 522 195 556 219 559 c 0
 250 562 295 572 296 572 c 0
 297 572 386 577 411 563 c 0
 429 554 432 552 431 538 c 0
 431 534 432 529 433 526 c 0
 440 511 418 501 415 495 c 0
 406 478 372 492 363 491 c 0
 348 488 366 504 273 490 c 0
 190 477 131 454 130 454 c 0
 125 453 124 452 124 444 c 0
 124 439 125 418 125 398 c 2
 125 361 l 1
 126 361 204 373 247 368 c 0
 248 368 290 360 296 350 c 0
 299 344 312 338 309 333 c 0
 309 333 310 332 311 331 c 0
 315 329 313 304 308 299 c 0
 304 294 279 282 274 282 c 0
 272 282 267 284 262 286 c 0
 248 293 228 295 172 294 c 2
 122 294 l 1
 121 262 l 2
 120 246 106 86 112 65 c 0
 114 61 115 56 116 55 c 0
 121 49 245 84 284 91 c 0
 294 93 306 96 310 97 c 0
 326 103 392 108 392 103 c 0
 392 102 395 102 398 102 c 0
 407 102 415 98 422 91 c 0
 428 85 428 84 428 69 c 0
 428 54 429 35 387 32 c 0
 301 26 158 -26 107 -26 c 0
EndSplineSet
EndChar

StartChar: F
Encoding: 70 70 61
Width: 493
VWidth: 746
Flags: HW
AnchorPoint: "above" 236.669 599.798 basechar 0
LayerCount: 2
Fore
SplineSet
158 579 m 0
 175 582 256 576 277 570 c 0
 291 565 427 560 436 554 c 0
 438 553 440 551 442 551 c 0
 445 551 451 541 453 531 c 0
 456 516 441 485 430 483 c 0
 425 482 304 487 300 489 c 0
 300 489 300 489 244 497 c 0
 169 506 172 507 162 489 c 0
 150 468 131 361 128 317 c 2
 127 297 l 1
 136 298 l 2
 137 298 260 310 261 309 c 0
 263 308 297 307 304 304 c 0
 310 301 321 277 319 270 c 0
 318 265 311 257 308 257 c 0
 302 257 298 238 256 233 c 0
 208 227 209 227 162 223 c 2
 119 220 l 1
 116 188 l 2
 116 187 101 61 90 49 c 0
 85 43 90 39 78 33 c 0
 70 29 22 26 20 58 c 0
 19 90 33 145 38 201 c 0
 51 357 53 373 64 429 c 0
 76 491 87 511 102 542 c 0
 108 556 137 575 158 579 c 0
EndSplineSet
EndChar

StartChar: G
Encoding: 71 71 62
Width: 482
VWidth: 750
Flags: HW
AnchorPoint: "above" 230.98 601.766 basechar 0
LayerCount: 2
Fore
SplineSet
150 467 m 0
 150 465 126 429 125 423 c 0
 125 419 106 384 103 359 c 0
 101 331 94 340 98 286 c 0
 101 248 107 220 109 206 c 0
 110 197 114 187 122 171 c 0
 133 149 135 147 152 132 c 0
 164 122 185 102 228 97 c 0
 259 93 282 106 314 142 c 0
 334 164 347 186 355 208 c 0
 358 216 366 254 366 260 c 0
 366 261 345 271 294 265 c 0
 237 259 225 259 221 301 c 0
 220 314 220 317 224 323 c 0
 226 327 230 329 232 329 c 0
 234 329 235 330 235 331 c 0
 235 335 299 343 331 343 c 0
 352 343 376 340 380 337 c 0
 383 335 393 333 404 327 c 0
 408 325 415 321 419 320 c 0
 425 318 431 309 431 303 c 0
 431 302 451 297 437 213 c 0
 435 200 423 165 420 163 c 0
 418 162 409 142 399 128 c 0
 395 123 392 118 392 117 c 0
 392 109 326 43 319 44 c 0
 313 45 297 27 262 22 c 0
 206 14 158 38 157 39 c 0
 155 41 143 43 135 49 c 0
 132 51 126 55 122 57 c 0
 111 63 74 100 69 110 c 0
 68 112 67 114 66 114 c 0
 64 114 56 135 51 141 c 0
 37 158 15 263 21 310 c 0
 22 319 24 334 24 342 c 0
 25 359 31 387 33 387 c 0
 34 387 34 389 34 390 c 0
 34 394 41 412 43 420 c 0
 46 438 92 517 109 533 c 0
 125 548 169 575 177 575 c 0
 182 575 182 580 197 581 c 0
 221 583 251 581 270 576 c 0
 342 557 389 535 390 534 c 0
 391 533 397 530 402 528 c 0
 430 516 421 496 414 481 c 0
 409 471 404 462 402 461 c 0
 392 457 393 458 353 470 c 0
 352 470 260 500 243 504 c 0
 211 511 184 497 183 497 c 0
 174 492 150 470 150 467 c 0
EndSplineSet
EndChar

StartChar: H
Encoding: 72 72 63
Width: 432
VWidth: 710
Flags: HW
AnchorPoint: "above" 206.971 568 basechar 0
LayerCount: 2
Fore
SplineSet
306 333 m 1
 306 345 306 345 306 346 c 0
 306 347 312 424 313 460 c 0
 315 531 320 535 333 547 c 1
 355 545 l 2
 372 543 386 541 390 526 c 0
 405 474 363 117 383 43 c 0
 384 38 387 27 372 20 c 0
 345 6 331 -1 319 11 c 0
 303 27 302 31 298 63 c 0
 296 77 295 179 297 182 c 0
 297 183 297 199 298 218 c 2
 300 253 l 1
 290 254 l 2
 268 257 134 238 116 231 c 1
 114 204 l 2
 108 142 104 46 99 29 c 0
 97 22 92 15 88 15 c 0
 87 15 85 14 83 12 c 0
 77 6 33 13 33 14 c 0
 33 16 29 16 23 31 c 0
 15 51 30 124 28 130 c 0
 26 132 34 239 38 266 c 0
 49 347 48 521 58 536 c 0
 67 548 80 548 95 548 c 0
 117 548 119 547 121 536 c 0
 122 532 123 529 124 528 c 0
 130 524 131 426 126 343 c 0
 125 328 124 315 124 315 c 0
 125 314 233 337 283 334 c 2
 306 333 l 1
EndSplineSet
EndChar

StartChar: I
Encoding: 73 73 64
Width: 157
VWidth: 731
Flags: HW
AnchorPoint: "above" 68.3051 585 basechar 0
LayerCount: 2
Fore
SplineSet
43 563 m 0
 46 563 56 565 66 565 c 0
 88 565 92 563 95 551 c 0
 96 547 103 243 103 240 c 0
 103 166 109 68 114 58 c 0
 117 52 118 32 115 23 c 0
 110 7 102 5 73 5 c 0
 34 5 31 50 27 219 c 0
 26 277 24 324 23 325 c 0
 22 326 19 487 20 499 c 0
 22 540 30 561 43 563 c 0
EndSplineSet
EndChar

StartChar: J
Encoding: 74 74 65
Width: 552
VWidth: 759
Flags: HW
AnchorPoint: "above" 266.202 609.027 basechar 0
LayerCount: 2
Fore
SplineSet
334 198 m 0
 334 176 293 113 294 113 c 0
 299 113 259 70 248 62 c 0
 244 60 241 57 240 56 c 0
 236 51 165 9 116 27 c 0
 71 43 64 51 63 51 c 0
 61 51 35 79 32 85 c 0
 20 107 19 116 21 132 c 0
 23 147 26 150 47 155 c 0
 60 158 66 159 69 158 c 0
 88 151 90 123 124 105 c 2
 139 97 l 1
 157 102 l 2
 184 108 190 110 212 133 c 0
 248 169 258 198 270 262 c 0
 282 329 268 410 268 411 c 0
 260 445 255 485 250 485 c 0
 247 485 217 479 195 474 c 0
 175 470 139 475 125 484 c 0
 115 490 115 493 117 515 c 0
 119 538 121 546 172 550 c 0
 319 563 326 590 460 589 c 0
 513 588 516 588 510 541 c 0
 508 523 508 523 501 519 c 0
 488 510 470 517 422 513 c 0
 421 513 328 504 328 497 c 0
 328 496 349 414 349 376 c 0
 349 366 350 356 351 354 c 0
 354 349 352 281 349 268 c 0
 346 256 340 215 336 208 c 0
 335 205 334 200 334 198 c 0
EndSplineSet
EndChar

StartChar: E_A
Encoding: 1114115 -1 66
Width: 920
VWidth: 12
Flags: W
LayerCount: 2
Fore
SplineSet
88 568 m 0
 90 568 119 581 122 581 c 0
 125 581 163 596 166 594 c 0
 168 593 241 625 351 612 c 0
 368 610 371 609 372 607 c 0
 374 604 381 604 382 599 c 0
 383 597 384 595 385 595 c 0
 386 595 387 591 387 587 c 0
 387 575 394 573 391 568 c 0
 389 565 389 564 389 561 c 0
 389 558 380 556 380 552 c 0
 380 550 378 548 376 547 c 0
 374 546 370 544 369 543 c 0
 366 539 346 536 339 538 c 0
 311 545 248 540 196 526 c 0
 177 521 113 496 109 492 c 0
 108 491 115 472 114 470 c 0
 113 466 121 451 124 401 c 0
 127 361 126 362 133 362 c 0
 136 362 146 363 154 365 c 0
 202 374 241 373 259 364 c 0
 297 345 289 325 286 320 c 0
 283 316 284 298 275 298 c 0
 271 298 268 287 257 287 c 0
 241 286 237 286 233 290 c 0
 231 292 227 295 225 296 c 0
 214 300 147 287 132 290 c 1
 132 266 l 2
 136 115 136 114 140 104 c 1
 150 108 l 2
 155 110 161 112 163 113 c 0
 171 117 276 147 349 149 c 0
 368 150 412 142 418 137 c 0
 421 135 421 136 426 179 c 0
 436 273 463 371 463 373 c 0
 463 376 474 411 476 414 c 0
 481 422 502 490 539 545 c 0
 551 562 575 588 579 588 c 0
 582 588 594 599 598 599 c 0
 602 599 608 607 617 607 c 0
 621 607 624 607 626 608 c 0
 629 609 651 606 655 604 c 0
 655 604 682 597 707 578 c 0
 711 575 715 572 715 573 c 0
 715 574 745 545 755 534 c 0
 822 462 867 328 867 301 c 0
 868 279 881 291 880 147 c 0
 880 109 879 77 879 75 c 0
 878 70 861 55 855 54 c 0
 852 53 848 51 846 50 c 0
 835 43 821 57 817 57 c 0
 813 57 796 71 802 102 c 0
 802 104 810 197 794 274 c 0
 791 288 786 326 785 326 c 0
 784 326 776 318 770 313 c 0
 766 309 622 305 601 299 c 0
 594 296 568 292 556 286 c 0
 551 284 545 282 544 282 c 0
 542 282 535 280 529 278 c 0
 516 274 517 275 514 252 c 0
 514 251 503 186 498 134 c 0
 492 67 486 69 450 73 c 0
 427 76 425 76 419 73 c 0
 401 64 361 78 309 69 c 0
 243 57 242 58 241 57 c 0
 240 57 145 30 131 27 c 0
 107 22 95 22 88 28 c 0
 84 32 77 46 77 52 c 0
 77 55 66 65 65 73 c 0
 59 98 56 394 40 450 c 0
 38 457 37 465 37 469 c 0
 38 484 18 487 20 506 c 0
 22 531 36 530 36 536 c 0
 36 537 78 568 88 568 c 0
652 526 m 0
 643 532 632 532 624 527 c 0
 597 509 566 438 565 432 c 0
 564 420 549 395 549 395 c 0
 550 395 548 388 545 379 c 2
 539 363 l 1
 570 367 557 368 582 371 c 0
 600 373 616 378 648 379 c 0
 683 380 657 384 719 384 c 0
 743 384 762 384 762 385 c 0
 762 388 735 439 710 471 c 0
 700 484 665 517 652 526 c 0
EndSplineSet
Ligature2: "liga" E A
EndChar

StartChar: C_O
Encoding: 1114116 -1 67
Width: 777
VWidth: 91
Flags: W
LayerCount: 2
Fore
SplineSet
70 96 m 0
 70 97 33 154 33 173 c 0
 33 185 26 181 21 233 c 0
 19 250 20 317 22 328 c 0
 35 402 46 448 100 532 c 0
 110 548 146 581 154 581 c 0
 159 581 189 606 241 589 c 0
 269 580 298 549 301 544 c 0
 306 536 320 497 320 491 c 0
 320 481 288 454 275 463 c 0
 273 465 270 466 270 467 c 0
 270 469 246 493 243 499 c 0
 241 504 212 521 207 521 c 0
 200 521 182 511 172 500 c 0
 152 479 125 431 115 398 c 0
 108 374 96 334 96 273 c 0
 96 190 111 197 115 168 c 0
 117 159 130 141 148 124 c 0
 165 107 166 106 182 100 c 2
 199 94 l 1
 233 94 l 2
 314 94 333 121 343 121 c 0
 351 121 356 136 374 123 c 0
 381 118 386 118 379 123 c 0
 378 124 353 157 341 234 c 0
 336 268 343 349 358 392 c 0
 362 404 365 416 365 418 c 0
 365 423 376 449 379 452 c 0
 384 457 391 476 409 503 c 0
 419 519 444 547 447 547 c 0
 449 547 493 588 533 579 c 0
 554 574 559 571 575 555 c 0
 604 526 606 540 612 531 c 0
 613 530 614 529 615 529 c 0
 617 529 635 516 637 516 c 0
 643 516 696 457 714 413 c 0
 723 390 723 390 732 353 c 0
 732 352 743 276 733 261 c 0
 732 259 719 206 706 193 c 0
 703 190 700 187 700 185 c 0
 700 184 700 182 699 182 c 0
 698 182 651 120 613 99 c 0
 585 83 558 67 539 64 c 0
 539 64 563 67 499 58 c 0
 485 56 488 60 476 60 c 0
 468 60 451 64 449 67 c 0
 447 69 416 83 415 85 c 0
 413 88 393 104 392 104 c 0
 391 104 391 103 391 102 c 0
 391 99 384 91 383 85 c 0
 381 71 379 67 371 59 c 0
 355 43 308 21 262 18 c 0
 229 16 165 23 156 30 c 0
 155 31 118 45 86 78 c 0
 77 87 70 95 70 96 c 0
541 465 m 0
 524 455 505 492 500 492 c 0
 498 492 476 467 470 458 c 0
 461 445 441 409 440 403 c 0
 439 400 435 387 431 374 c 0
 414 319 411 274 420 224 c 0
 452 49 615 166 648 250 c 0
 654 265 657 264 658 269 c 0
 658 271 659 276 660 282 c 0
 660 283 667 361 620 423 c 0
 608 439 607 441 604 438 c 0
 604 438 575 422 569 438 c 0
 567 446 562 443 554 457 c 0
 551 463 548 467 547 467 c 0
 546 467 543 466 541 465 c 0
EndSplineSet
Ligature2: "liga" C O
EndChar

StartChar: C_R
Encoding: 1114117 -1 68
Width: 779
VWidth: 113
Flags: W
LayerCount: 2
Fore
SplineSet
305 142 m 0
 318 142 325 159 332 159 c 0
 334 159 341 155 346 150 c 2
 355 142 l 1
 357 173 l 2
 358 190 358 218 358 236 c 0
 358 254 358 270 359 272 c 0
 364 284 354 430 354 432 c 0
 354 449 354 446 353 470 c 0
 352 493 355 510 360 515 c 0
 369 524 393 520 402 533 c 0
 439 588 491 611 494 611 c 0
 494 611 510 619 537 617 c 0
 543 616 553 615 560 615 c 0
 586 614 613 596 614 596 c 0
 640 587 685 553 685 553 c 0
 687 553 693 544 695 545 c 0
 697 546 702 535 704 535 c 0
 705 535 732 497 734 477 c 0
 735 471 737 464 738 462 c 0
 739 461 742 449 730 410 c 0
 725 392 700 359 700 358 c 0
 700 354 667 325 652 317 c 0
 643 312 633 306 629 303 c 0
 621 298 576 282 558 279 c 1
 565 273 l 2
 574 265 612 237 613 237 c 0
 617 237 666 191 670 183 c 0
 673 176 673 180 688 157 c 0
 693 149 698 143 699 142 c 0
 701 141 717 101 716 100 c 0
 715 99 729 44 726 44 c 0
 725 44 725 41 726 38 c 0
 727 33 726 30 720 24 c 0
 713 16 712 15 683 13 c 2
 669 12 l 1
 661 20 l 2
 656 24 654 28 654 31 c 0
 654 33 652 47 648 61 c 0
 636 107 621 129 580 165 c 0
 521 217 439 267 437 275 c 0
 435 285 430 102 433 100 c 0
 434 100 434 99 438 76 c 0
 439 69 429 46 412 46 c 0
 409 46 405 44 402 43 c 0
 389 36 372 44 361 63 c 0
 351 80 360 143 352 131 c 0
 349 126 341 105 341 101 c 0
 341 96 323 75 317 72 c 0
 316 72 280 47 257 45 c 0
 252 44 243 43 238 42 c 0
 223 39 187 38 176 41 c 0
 170 42 163 44 159 44 c 0
 152 44 121 56 121 59 c 0
 121 61 45 94 25 207 c 0
 20 234 19 260 21 271 c 0
 22 277 23 287 23 293 c 0
 23 308 29 342 35 361 c 0
 52 416 63 439 99 488 c 0
 109 502 141 536 145 536 c 0
 148 536 192 570 222 572 c 0
 223 572 263 573 273 563 c 0
 276 560 302 545 302 537 c 0
 302 535 312 524 313 522 c 0
 313 520 317 511 318 488 c 0
 320 451 306 449 306 434 c 0
 306 429 300 430 300 427 c 0
 300 426 297 422 294 418 c 0
 278 402 250 419 255 427 c 0
 257 431 253 425 252 456 c 0
 252 473 251 476 246 486 c 0
 240 496 239 496 233 496 c 0
 214 495 190 479 168 453 c 0
 136 416 126 397 108 341 c 0
 100 317 96 283 97 245 c 0
 98 212 101 203 112 177 c 0
 159 67 288 136 288 135 c 0
 288 134 295 142 305 142 c 0
660 459 m 0
 652 498 550 561 509 539 c 0
 481 524 457 499 441 467 c 0
 438 461 434 455 433 454 c 0
 428 447 437 392 436 389 c 0
 435 387 435 373 435 358 c 2
 436 331 l 1
 448 343 449 344 485 346 c 0
 486 346 525 348 543 353 c 0
 578 364 598 371 608 377 c 0
 621 385 643 406 651 419 c 0
 656 427 661 451 660 459 c 0
EndSplineSet
Ligature2: "liga" C R
EndChar

StartChar: O_C_H
Encoding: 1114118 -1 69
Width: 1225
VWidth: -222
Flags: W
LayerCount: 2
Fore
SplineSet
466 314 m 1
 479 417 554 524 554 526 c 0
 554 531 600 580 605 580 c 0
 610 580 621 592 646 594 c 0
 676 596 689 592 712 569 c 0
 727 554 737 537 737 530 c 0
 737 520 749 520 750 487 c 0
 750 468 750 466 733 458 c 0
 719 452 717 452 705 464 c 0
 692 475 692 483 686 485 c 0
 679 487 668 528 650 518 c 0
 620 501 570 417 552 352 c 0
 540 310 524 231 551 156 c 0
 560 130 562 128 581 109 c 0
 607 82 617 81 648 81 c 0
 723 81 751 113 780 115 c 0
 790 116 803 134 813 134 c 2
 818 134 l 1
 819 177 l 2
 823 293 823 293 820 299 c 0
 815 309 815 339 819 346 c 0
 822 350 823 355 823 381 c 0
 823 382 819 470 820 503 c 0
 822 558 821 558 857 558 c 0
 875 558 877 558 882 553 c 0
 885 550 887 545 887 543 c 0
 887 542 895 530 898 414 c 2
 899 362 l 1
 918 358 1086 360 1086 360 c 0
 1087 361 1104 502 1106 525 c 0
 1109 568 1116 574 1127 586 c 1
 1147 585 l 2
 1176 583 1167 580 1172 580 c 0
 1175 580 1181 573 1184 567 c 0
 1187 561 1182 496 1174 444 c 0
 1160 349 1135 164 1143 132 c 0
 1147 117 1144 92 1154 72 c 0
 1157 65 1160 60 1161 60 c 0
 1170 63 1183 20 1165 13 c 0
 1153 8 1160 -4 1132 -2 c 0
 1121 -1 1085 8 1071 87 c 0
 1064 125 1069 257 1074 277 c 0
 1075 283 1075 284 1072 285 c 0
 1067 287 932 284 913 286 c 2
 899 288 l 1
 898 244 l 2
 895 111 894 111 900 90 c 0
 903 79 893 73 893 73 c 0
 887 73 876 51 861 51 c 0
 860 51 832 52 820 88 c 1
 815 78 l 2
 809 65 800 56 800 54 c 0
 800 53 788 46 784 41 c 0
 781 37 748 23 743 23 c 0
 741 23 686 6 667 7 c 0
 661 7 653 7 649 6 c 0
 630 3 588 13 565 26 c 0
 552 33 526 53 524 57 c 0
 524 58 484 103 474 144 c 0
 460 201 461 202 461 247 c 2
 461 281 l 1
 456 267 l 2
 450 249 447 248 447 246 c 0
 447 244 432 214 430 211 c 0
 427 208 412 184 399 166 c 0
 383 145 318 84 312 84 c 0
 311 84 282 61 257 51 c 0
 251 49 241 45 235 42 c 0
 213 32 168 26 154 30 c 0
 144 33 119 38 108 44 c 0
 85 57 84 57 79 63 c 0
 76 66 72 69 71 69 c 0
 68 70 48 95 48 98 c 0
 48 99 30 133 23 173 c 0
 12 239 32 351 43 369 c 0
 45 373 47 384 55 402 c 0
 79 453 86 466 91 472 c 0
 94 476 96 480 96 481 c 0
 96 484 123 521 124 524 c 0
 125 528 153 556 155 556 c 0
 159 556 198 599 247 589 c 0
 268 585 275 545 288 548 c 0
 328 558 433 521 462 400 c 0
 472 357 464 341 466 314 c 1
234 495 m 0
 234 497 224 514 222 514 c 0
 221 514 137 450 107 314 c 0
 94 256 91 202 105 163 c 0
 109 153 113 141 114 138 c 0
 117 130 133 114 142 110 c 0
 148 107 153 106 168 106 c 0
 260 106 344 219 345 221 c 0
 351 230 358 238 360 240 c 0
 361 241 411 309 381 404 c 0
 373 431 346 460 321 471 c 0
 289 485 276 463 266 465 c 0
 247 465 234 494 234 495 c 0
461 287 m 1
 465 296 465 296 464 307 c 1
 463 301 l 2
 463 297 462 293 461 287 c 1
EndSplineSet
Ligature2: "liga" O C H
EndChar

StartChar: E_E
Encoding: 1114119 -1 70
Width: 901
VWidth: -1
Flags: W
LayerCount: 2
Fore
SplineSet
422 50 m 1
 405 32 405 33 375 33 c 0
 339 33 307 37 297 34 c 0
 296 34 217 26 175 15 c 0
 165 12 101 -4 65 3 c 0
 63 4 60 4 58 4 c 0
 51 4 44 14 42 25 c 0
 39 50 21 48 20 71 c 0
 19 127 31 159 33 210 c 0
 34 222 46 331 47 332 c 0
 49 336 48 531 53 540 c 0
 55 545 65 551 71 551 c 0
 85 551 97 569 170 571 c 0
 186 571 226 573 258 574 c 0
 323 577 426 577 434 574 c 0
 437 573 439 571 439 570 c 0
 439 569 461 557 457 547 c 0
 455 542 464 537 460 530 c 0
 458 526 458 526 462 528 c 0
 468 531 496 536 498 539 c 0
 501 543 524 553 532 554 c 0
 536 555 546 557 554 559 c 0
 670 590 831 588 833 588 c 0
 840 587 844 578 848 578 c 0
 852 578 852 570 854 570 c 0
 856 570 855 562 859 553 c 0
 866 539 851 529 851 524 c 0
 851 522 845 517 838 511 c 0
 834 508 742 510 702 505 c 0
 679 502 636 498 632 497 c 0
 614 492 592 497 552 478 c 0
 536 470 535 470 536 464 c 0
 539 447 541 423 541 404 c 2
 540 383 l 1
 549 389 550 388 565 385 c 0
 593 380 702 385 729 373 c 0
 744 368 744 368 750 363 c 0
 754 359 758 356 759 356 c 0
 759 356 769 348 759 323 c 0
 758 321 758 320 758 319 c 0
 758 319 742 300 739 299 c 0
 728 296 563 309 540 329 c 0
 537 331 537 330 536 319 c 0
 535 312 535 304 535 301 c 0
 536 253 504 84 503 82 c 0
 499 67 544 81 544 81 c 0
 549 84 655 104 695 107 c 0
 696 107 756 113 770 114 c 0
 790 115 826 112 830 109 c 0
 841 100 842 100 845 87 c 0
 851 66 851 65 837 51 c 2
 825 39 l 1
 797 38 l 2
 710 34 686 29 664 24 c 0
 648 21 608 16 572 8 c 0
 531 -1 514 -4 492 -4 c 0
 472 -4 471 -4 463 2 c 0
 449 12 438 9 430 19 c 0
 429 21 427 28 425 36 c 2
 422 50 l 1
296 302 m 0
 265 302 306 307 224 307 c 0
 180 307 171 308 151 312 c 0
 138 314 126 315 125 315 c 0
 124 315 122 311 122 306 c 0
 122 304 110 195 103 138 c 2
 100 113 l 1
 105 102 l 2
 113 84 107 79 112 80 c 0
 123 83 236 105 253 108 c 0
 275 111 401 111 403 108 c 0
 405 105 424 103 424 94 c 0
 424 86 427 97 432 127 c 0
 447 214 454 265 455 282 c 0
 464 402 462 430 459 452 c 0
 457 462 456 480 456 494 c 0
 456 507 456 519 455 519 c 0
 453 519 443 510 442 507 c 0
 440 502 426 496 418 497 c 0
 374 501 365 502 336 500 c 0
 319 499 303 498 301 498 c 0
 179 497 132 488 130 488 c 0
 128 488 127 476 127 435 c 2
 127 383 l 1
 132 382 136 381 145 381 c 2
 176 381 l 2
 191 381 286 389 292 380 c 0
 293 377 303 376 306 373 c 0
 315 366 318 364 321 363 c 0
 329 360 324 332 324 332 c 0
 323 331 323 327 323 323 c 0
 323 317 321 314 317 309 c 0
 311 302 310 302 296 302 c 0
EndSplineSet
Ligature2: "liga" E E
EndChar

StartChar: T_T
Encoding: 1114120 -1 71
Width: 908
VWidth: 27
Flags: W
LayerCount: 2
Fore
SplineSet
817 620 m 0
 830 620 823 622 838 622 c 0
 852 622 859 615 861 604 c 0
 862 600 864 594 866 589 c 0
 874 570 853 554 853 554 c 0
 850 554 849 548 837 547 c 0
 774 537 738 533 720 533 c 0
 707 533 617 517 579 517 c 0
 578 517 578 494 578 465 c 0
 577 370 569 349 568 329 c 0
 568 308 546 158 546 156 c 0
 545 137 536 74 536 74 c 0
 536 74 542 55 538 45 c 0
 532 29 542 29 532 20 c 0
 529 17 526 14 526 13 c 0
 526 10 519 4 514 2 c 0
 508 0 476 6 474 6 c 0
 466 6 457 35 457 35 c 0
 455 38 458 91 461 104 c 0
 462 108 501 391 501 488 c 2
 501 513 l 1
 475 513 l 2
 422 512 441 519 387 515 c 0
 385 515 301 508 230 496 c 1
 231 446 l 2
 232 391 230 358 224 246 c 0
 222 196 219 215 219 183 c 0
 219 127 209 98 206 53 c 0
 205 43 197 29 190 25 c 0
 189 24 114 16 126 60 c 0
 135 93 142 225 146 254 c 0
 153 302 153 371 153 468 c 0
 153 474 154 479 156 485 c 1
 144 484 l 2
 118 481 77 481 70 483 c 0
 60 486 39 489 39 491 c 0
 39 492 38 493 36 493 c 0
 35 493 31 496 27 500 c 0
 20 508 20 508 20 526 c 0
 20 555 21 554 90 557 c 0
 133 559 149 561 221 573 c 0
 318 589 407 595 422 589 c 0
 427 587 431 587 440 588 c 0
 442 588 626 596 654 601 c 0
 689 607 808 620 817 620 c 0
EndSplineSet
Ligature2: "liga" T T
EndChar

StartChar: L_B
Encoding: 1114121 -1 72
Width: 810
VWidth: 78
Flags: W
LayerCount: 2
Fore
SplineSet
708 553 m 0
 709 553 722 533 722 528 c 0
 722 518 730 515 728 499 c 0
 722 461 723 461 722 460 c 0
 722 460 708 432 692 413 c 0
 670 387 638 360 638 360 c 0
 639 359 668 350 681 344 c 0
 708 330 722 318 722 318 c 0
 726 318 756 283 757 277 c 0
 758 274 761 268 763 263 c 0
 768 253 786 193 735 104 c 0
 706 53 698 42 680 22 c 0
 645 -16 635 -21 598 -41 c 0
 574 -54 575 -54 568 -55 c 0
 563 -56 558 -57 558 -58 c 0
 558 -61 498 -59 493 -56 c 0
 491 -55 488 -54 486 -54 c 0
 482 -54 464 -44 459 -43 c 0
 446 -38 437 -16 420 -18 c 0
 419 -18 376 -25 370 54 c 0
 368 78 367 84 365 80 c 0
 356 63 292 65 278 56 c 0
 276 55 225 43 215 39 c 0
 193 29 116 25 101 38 c 0
 97 41 91 44 78 51 c 0
 70 55 47 79 47 83 c 0
 47 84 25 135 22 171 c 0
 21 182 17 338 24 401 c 0
 26 416 28 512 29 512 c 0
 34 512 26 545 39 557 c 0
 45 563 46 562 83 567 c 0
 88 568 96 562 98 557 c 0
 98 556 111 476 107 471 c 0
 103 466 109 420 105 414 c 0
 99 407 92 200 104 152 c 0
 116 107 126 91 252 128 c 0
 296 141 305 142 325 143 c 0
 346 144 361 141 365 135 c 0
 367 131 367 301 365 316 c 0
 359 354 354 455 349 514 c 0
 347 530 347 532 351 536 c 0
 355 541 366 545 372 545 c 0
 381 545 378 565 407 579 c 0
 453 601 471 609 580 603 c 0
 601 602 656 583 657 583 c 0
 661 583 677 574 682 574 c 0
 686 574 705 553 708 553 c 0
648 499 m 0
 630 527 511 541 470 533 c 0
 456 530 441 523 441 520 c 0
 441 517 431 515 426 505 c 0
 416 487 435 452 437 396 c 0
 440 304 444 370 446 176 c 2
 447 83 l 1
 480 49 483 33 498 24 c 0
 504 20 507 20 526 20 c 0
 538 20 550 20 554 22 c 0
 568 27 591 43 608 60 c 0
 674 126 697 204 689 233 c 0
 684 251 663 268 634 278 c 0
 624 281 613 286 608 288 c 0
 585 298 505 294 497 292 c 0
 487 289 479 292 474 301 c 0
 472 304 471 306 470 307 c 0
 466 310 460 353 464 353 c 0
 468 353 459 361 504 375 c 0
 538 386 572 405 608 435 c 0
 631 454 653 490 648 499 c 0
EndSplineSet
Ligature2: "liga" L B
EndChar

StartChar: E_R
Encoding: 1114122 -1 73
Width: 890
VWidth: 876
Flags: W
LayerCount: 2
Fore
SplineSet
108 78 m 2
 144 78 324 108 345 108 c 0
 348 108 363 108 378 108 c 0
 411 108 413 108 418 91 c 0
 420 85 421 81 422 81 c 0
 424 82 424 119 432 173 c 0
 443 243 454 422 450 444 c 0
 447 463 454 473 454 494 c 0
 454 542 481 520 491 533 c 0
 496 539 536 569 567 579 c 0
 598 589 602 589 608 589 c 0
 612 589 615 590 615 591 c 0
 615 593 691 601 765 556 c 0
 771 552 777 549 779 549 c 0
 789 549 827 512 836 493 c 0
 840 486 844 479 845 478 c 0
 846 478 860 442 841 405 c 0
 833 389 821 375 821 375 c 0
 821 369 778 338 778 338 c 0
 773 332 694 297 645 297 c 2
 637 297 l 1
 665 276 l 2
 740 222 805 172 826 104 c 0
 828 96 831 90 832 89 c 0
 835 87 843 31 835 26 c 0
 833 25 832 23 832 21 c 0
 832 20 829 17 826 14 c 0
 820 9 820 9 805 10 c 0
 776 12 773 13 766 20 c 0
 760 26 760 28 760 39 c 0
 760 58 748 97 737 113 c 0
 710 152 562 258 558 261 c 0
 551 265 529 285 526 290 c 0
 522 297 522 263 519 246 c 0
 519 245 504 103 504 102 c 0
 498 47 499 49 492 42 c 0
 486 36 485 36 465 35 c 0
 442 33 427 33 424 60 c 2
 423 70 l 1
 408 43 408 59 396 47 c 0
 394 45 392 43 391 43 c 0
 390 43 384 34 317 27 c 0
 301 25 265 19 262 20 c 0
 256 22 206 7 147 4 c 0
 118 2 131 1 94 -2 c 0
 70 -4 29 -8 29 32 c 0
 29 37 27 42 24 47 c 0
 19 54 19 56 21 73 c 0
 21 75 36 201 37 231 c 0
 38 243 39 262 40 274 c 0
 41 293 48 492 48 494 c 0
 52 519 54 527 59 532 c 0
 70 543 109 570 124 576 c 0
 200 609 386 639 418 622 c 0
 424 619 438 618 440 612 c 0
 441 607 449 603 449 595 c 0
 449 592 450 586 452 582 c 0
 459 565 445 560 445 557 c 0
 445 552 428 543 428 542 c 0
 428 536 385 535 382 539 c 0
 381 540 378 543 375 545 c 0
 369 549 368 549 342 547 c 0
 273 542 157 512 140 500 c 0
 137 498 132 496 129 495 c 0
 123 493 118 491 122 439 c 0
 123 421 124 400 124 391 c 0
 123 376 124 375 128 374 c 0
 137 372 258 384 277 366 c 0
 280 364 282 362 283 362 c 0
 290 362 307 333 298 327 c 0
 297 326 297 307 290 307 c 0
 290 307 257 285 247 295 c 0
 237 305 177 295 141 300 c 0
 119 303 122 305 120 276 c 0
 115 183 105 125 106 124 c 0
 107 121 106 113 101 78 c 1
 108 78 l 2
770 445 m 0
 766 475 663 571 553 495 c 0
 546 490 539 486 538 486 c 0
 537 486 533 483 529 480 c 2
 521 474 l 1
 523 460 l 2
 524 452 524 444 525 442 c 0
 526 440 527 419 527 395 c 0
 527 354 527 352 530 355 c 0
 538 362 555 368 567 369 c 0
 668 376 685 380 712 392 c 0
 738 403 739 404 757 422 c 0
 772 437 771 437 770 445 c 0
EndSplineSet
Ligature2: "liga" E R
Ligature2: "liga" E R
EndChar

StartChar: R_R
Encoding: 1114123 -1 74
Width: 861
VWidth: 26
Flags: W
LayerCount: 2
Fore
SplineSet
314 210 m 0
 317 210 335 194 338 194 c 0
 341 194 372 160 380 148 c 0
 387 137 403 106 404 100 c 0
 406 91 407 321 406 458 c 2
 405 514 l 1
 427 543 429 521 446 541 c 0
 473 573 510 585 579 588 c 0
 691 592 755 554 757 554 c 0
 765 554 800 521 800 514 c 0
 800 512 801 510 802 510 c 0
 807 508 809 472 805 457 c 0
 803 448 792 425 790 423 c 0
 789 422 769 382 708 349 c 0
 699 344 691 339 690 338 c 0
 683 330 599 308 583 300 c 0
 579 298 579 297 594 286 c 0
 617 269 640 246 648 243 c 0
 650 242 707 197 803 70 c 0
 821 46 823 44 820 30 c 0
 819 25 820 27 797 11 c 0
 771 -7 764 -8 748 16 c 0
 724 51 666 112 666 117 c 0
 666 121 587 196 583 196 c 0
 579 196 562 215 528 240 c 0
 514 250 502 260 500 262 c 0
 494 268 486 273 485 271 c 0
 483 269 483 178 485 176 c 0
 486 175 489 137 489 113 c 0
 489 105 495 102 495 80 c 0
 495 65 494 62 482 53 c 0
 470 44 472 44 469 44 c 0
 468 44 458 33 445 40 c 0
 440 42 433 43 429 45 c 0
 426 47 413 66 413 69 c 0
 413 72 410 69 411 53 c 0
 411 45 410 40 409 40 c 0
 408 40 407 38 407 37 c 0
 407 33 403 24 367 22 c 2
 351 21 l 1
 345 27 l 2
 323 48 338 70 319 99 c 0
 312 111 289 134 274 144 c 0
 246 164 114 231 113 230 c 0
 112 229 114 113 122 88 c 0
 126 76 126 58 123 52 c 0
 121 49 120 45 119 42 c 0
 118 36 109 26 103 23 c 0
 96 19 69 20 61 24 c 0
 39 35 32 92 36 134 c 0
 39 166 35 123 33 286 c 0
 32 383 30 443 28 447 c 0
 28 448 16 518 22 528 c 0
 33 549 42 563 46 567 c 0
 49 570 51 571 51 570 c 0
 51 569 54 571 57 574 c 0
 67 584 80 577 91 583 c 0
 94 585 100 587 105 587 c 0
 106 587 152 593 190 588 c 0
 219 585 295 577 334 553 c 0
 350 543 345 551 357 540 c 0
 363 535 367 532 368 533 c 0
 369 534 375 520 377 520 c 0
 379 520 383 504 388 501 c 0
 391 499 391 495 391 470 c 0
 391 439 391 438 378 416 c 0
 351 370 301 333 233 307 c 0
 208 298 213 298 189 290 c 2
 172 285 l 1
 187 278 l 2
 188 277 281 233 307 215 c 0
 310 213 313 210 314 210 c 0
320 469 m 0
 320 483 294 495 294 495 c 0
 287 495 270 512 185 521 c 0
 134 526 93 523 96 513 c 0
 108 473 112 429 111 424 c 0
 109 406 108 348 110 348 c 0
 111 348 180 369 191 374 c 0
 196 376 210 382 221 386 c 0
 255 399 278 413 296 432 c 0
 315 452 320 459 320 469 c 0
487 354 m 0
 490 354 510 364 517 364 c 0
 530 364 601 388 606 389 c 0
 620 391 661 408 679 420 c 0
 706 437 731 465 731 478 c 0
 731 495 663 512 644 515 c 0
 643 515 565 524 531 516 c 0
 515 512 493 502 493 498 c 0
 493 495 482 496 485 452 c 0
 489 398 486 354 487 354 c 0
EndSplineSet
Ligature2: "liga" R R
EndChar

StartChar: L_A
Encoding: 1114124 -1 75
Width: 844
VWidth: 40
Flags: W
LayerCount: 2
Fore
SplineSet
804 16 m 0
 804 8 796 7 796 3 c 0
 796 -4 768 -24 753 -14 c 0
 751 -12 747 -11 746 -11 c 0
 737 -11 722 17 724 21 c 0
 729 29 722 195 716 230 c 2
 713 242 l 1
 677 241 l 2
 582 240 530 224 488 227 c 0
 481 228 475 227 475 226 c 0
 475 226 470 185 467 181 c 0
 466 180 451 58 447 51 c 0
 447 51 435 16 420 4 c 0
 407 -7 400 -2 384 8 c 0
 367 19 367 19 364 29 c 0
 360 40 359 49 362 51 c 0
 364 52 371 88 369 89 c 0
 367 91 325 79 313 73 c 0
 285 60 218 40 188 34 c 0
 170 31 112 29 94 43 c 0
 86 50 73 54 66 62 c 0
 59 70 51 77 50 81 c 0
 50 82 21 127 22 174 c 0
 22 182 17 194 22 298 c 0
 24 346 29 406 34 441 c 0
 48 541 49 540 64 548 c 2
 72 553 l 1
 91 550 l 2
 104 548 126 544 122 520 c 0
 121 515 120 504 120 496 c 0
 120 484 108 388 107 384 c 0
 106 382 93 219 105 149 c 0
 107 136 116 119 126 113 c 0
 156 92 291 146 292 147 c 0
 293 148 354 176 384 159 c 1
 393 213 l 2
 393 215 427 394 439 415 c 0
 440 417 441 420 441 421 c 0
 441 422 477 511 491 533 c 0
 497 542 502 550 502 551 c 0
 502 551 527 580 537 582 c 0
 545 584 546 588 555 589 c 0
 558 589 562 590 565 591 c 0
 577 595 604 589 626 578 c 0
 636 573 668 549 668 546 c 0
 668 543 715 503 748 419 c 0
 750 413 754 406 755 404 c 0
 758 400 768 368 771 352 c 0
 786 287 786 286 788 270 c 0
 795 219 800 194 800 178 c 0
 800 157 805 168 804 16 c 0
599 503 m 0
 572 522 567 513 543 464 c 0
 501 379 489 302 494 305 c 0
 495 306 548 311 670 318 c 1
 699 320 l 1
 694 353 676 383 670 405 c 0
 663 432 623 487 599 503 c 0
EndSplineSet
Ligature2: "liga" L A
EndChar

StartChar: L_L
Encoding: 1114125 -1 76
Width: 772
VWidth: 43
Flags: W
LayerCount: 2
Fore
SplineSet
99 -2 m 0
 94 -2 82 7 79 7 c 0
 77 7 50 35 48 40 c 0
 29 81 30 81 30 87 c 0
 30 96 30 81 23 115 c 0
 18 145 20 272 27 351 c 0
 32 403 29 483 29 484 c 0
 21 531 36 535 56 540 c 0
 90 549 92 547 103 504 c 0
 110 477 111 464 111 425 c 0
 111 391 111 379 109 376 c 0
 106 370 89 179 104 113 c 0
 113 73 119 66 148 68 c 0
 172 69 243 87 261 96 c 0
 275 103 329 117 345 111 c 0
 349 109 350 110 349 112 c 0
 347 117 340 142 340 147 c 0
 340 150 334 315 349 401 c 0
 353 423 358 487 361 491 c 0
 365 498 359 517 370 531 c 0
 376 538 375 537 391 538 c 0
 408 539 426 536 428 517 c 0
 430 499 429 416 427 405 c 0
 427 403 408 213 418 157 c 0
 429 103 446 96 479 95 c 0
 501 94 502 94 557 103 c 0
 614 113 613 113 623 115 c 0
 640 119 670 123 692 125 c 0
 708 126 708 126 717 121 c 0
 726 115 726 115 730 97 c 0
 737 66 731 58 700 53 c 0
 682 50 573 28 517 20 c 0
 456 12 430 24 395 43 c 0
 383 49 366 74 366 66 c 0
 366 57 355 43 348 43 c 0
 333 43 270 16 254 14 c 0
 247 14 213 -2 198 -2 c 0
 194 -2 187 -3 182 -5 c 0
 169 -10 116 -10 108 -5 c 0
 105 -3 101 -2 99 -2 c 0
EndSplineSet
Ligature2: "liga" L L
EndChar

StartChar: O_N
Encoding: 1114126 -1 77
Width: 856
VWidth: 42
Flags: W
LayerCount: 2
Fore
SplineSet
326 114 m 0
 326 112 219 -2 116 31 c 0
 100 36 46 60 25 153 c 0
 17 188 19 312 27 320 c 0
 28 321 29 324 29 327 c 0
 29 338 46 408 50 413 c 0
 51 414 74 471 92 503 c 0
 112 538 142 566 158 568 c 0
 170 569 174 574 182 571 c 0
 185 570 188 570 189 571 c 0
 190 572 190 571 190 570 c 0
 190 566 208 564 217 549 c 0
 220 544 224 541 226 541 c 0
 230 541 267 526 281 519 c 0
 322 498 377 439 377 436 c 0
 377 433 409 387 412 352 c 0
 415 323 416 340 416 425 c 0
 416 566 416 592 456 597 c 0
 484 600 485 584 491 584 c 0
 497 584 520 508 583 393 c 0
 595 371 607 350 608 347 c 0
 608 346 659 255 689 216 c 0
 700 201 726 165 735 154 c 1
 734 185 l 2
 733 202 732 247 730 284 c 0
 730 287 718 540 741 579 c 0
 746 587 756 597 762 599 c 0
 773 604 810 584 814 576 c 0
 820 564 813 575 809 525 c 0
 802 439 802 411 805 369 c 0
 805 366 822 80 812 62 c 0
 810 59 809 56 810 56 c 0
 812 56 805 45 801 43 c 0
 794 39 792 34 786 32 c 0
 776 28 750 33 750 33 c 0
 746 34 720 56 720 56 c 0
 720 57 712 66 702 76 c 0
 661 118 585 232 579 245 c 0
 578 246 547 299 506 376 c 0
 500 388 493 397 493 397 c 0
 493 397 495 307 499 248 c 0
 502 206 501 70 498 67 c 0
 497 66 497 62 497 58 c 0
 497 49 491 45 491 42 c 0
 491 41 489 38 487 36 c 0
 484 33 481 32 461 32 c 0
 449 32 438 32 438 33 c 0
 438 36 432 34 427 42 c 0
 424 47 423 53 423 112 c 0
 423 198 417 350 417 297 c 0
 417 285 411 259 406 247 c 0
 403 240 398 230 396 224 c 0
 365 142 326 120 326 114 c 0
190 468 m 0
 189 469 183 469 175 470 c 2
 161 471 l 1
 155 462 153 459 137 426 c 0
 99 344 109 297 99 286 c 0
 98 284 97 265 97 233 c 2
 97 182 l 1
 104 159 l 2
 119 105 141 102 159 102 c 0
 198 102 227 129 268 165 c 0
 278 174 306 202 326 259 c 0
 329 269 333 279 335 282 c 0
 340 292 340 314 335 340 c 0
 328 374 320 388 292 415 c 0
 271 435 264 442 247 451 c 0
 236 457 234 457 233 454 c 0
 232 449 210 443 202 446 c 0
 191 450 194 466 190 468 c 0
EndSplineSet
Ligature2: "liga" O N
EndChar

StartChar: C_A
Encoding: 1114127 -1 78
Width: 791
VWidth: 102
Flags: W
LayerCount: 2
Fore
SplineSet
167 -30 m 0
 150 -30 103 -3 103 -2 c 0
 103 -1 77 14 54 59 c 0
 48 71 43 84 43 86 c 0
 43 87 30 111 25 149 c 0
 25 151 24 153 23 155 c 0
 21 159 5 304 56 413 c 0
 84 475 102 512 151 561 c 0
 190 599 204 604 233 612 c 0
 250 617 284 617 289 613 c 0
 291 611 294 610 296 610 c 0
 301 610 331 594 333 591 c 0
 337 582 358 580 384 520 c 0
 391 503 378 495 373 492 c 0
 357 481 354 480 342 492 c 0
 298 535 277 555 243 539 c 0
 240 538 108 474 96 229 c 0
 94 189 103 137 116 106 c 0
 119 99 149 35 206 45 c 0
 261 54 305 91 317 91 c 0
 323 91 332 113 347 111 c 0
 360 110 356 121 356 121 c 0
 356 122 371 272 376 291 c 0
 380 306 383 341 390 367 c 0
 408 441 408 441 421 472 c 0
 421 473 445 523 467 539 c 0
 482 551 487 553 487 553 c 0
 487 559 535 562 548 557 c 0
 552 555 555 554 555 555 c 0
 555 557 579 540 581 540 c 0
 584 540 626 503 644 468 c 0
 647 462 652 453 654 450 c 0
 671 427 685 371 692 359 c 0
 700 344 730 245 738 190 c 0
 739 182 741 170 743 163 c 0
 752 121 754 40 746 31 c 0
 744 29 742 27 742 26 c 0
 742 24 734 18 734 14 c 0
 734 5 688 7 682 14 c 0
 679 18 672 33 672 35 c 0
 672 37 671 39 669 40 c 0
 665 43 666 59 671 64 c 0
 676 70 673 110 661 184 c 0
 654 229 657 225 633 225 c 0
 622 225 602 226 590 227 c 0
 566 229 541 228 476 222 c 2
 443 218 l 1
 444 205 l 2
 444 186 435 139 435 128 c 0
 432 87 411 -1 383 5 c 0
 359 10 347 14 346 17 c 0
 343 25 341 25 324 13 c 0
 300 -5 246 -30 232 -30 c 0
 221 -29 187 -36 179 -32 c 0
 177 -31 171 -30 167 -30 c 0
632 300 m 1
 619 323 615 345 615 345 c 0
 615 346 592 427 547 468 c 0
 535 479 531 482 526 482 c 0
 485 482 457 302 457 300 c 0
 457 297 458 297 461 298 c 0
 463 298 561 308 622 301 c 2
 632 300 l 1
EndSplineSet
Ligature2: "liga" C A
EndChar

StartChar: P_S
Encoding: 1114128 -1 79
Width: 860
VWidth: 45
Flags: W
LayerCount: 2
Fore
SplineSet
123 42 m 1
 111 32 110 30 79 30 c 2
 59 30 l 1
 55 35 50 41 46 46 c 1
 47 119 l 2
 47 159 48 204 49 219 c 0
 56 303 44 281 46 307 c 0
 48 332 57 318 55 408 c 2
 54 446 l 1
 44 449 l 2
 31 452 26 457 23 470 c 0
 19 489 19 493 24 511 c 0
 29 531 32 535 62 562 c 0
 99 595 182 615 244 604 c 0
 280 598 335 570 336 570 c 0
 340 570 373 543 376 543 c 0
 379 543 431 487 431 470 c 0
 431 464 440 488 445 496 c 0
 447 499 448 502 448 503 c 0
 448 506 463 522 463 524 c 0
 463 526 496 553 498 553 c 0
 499 553 551 585 573 588 c 0
 589 591 622 604 662 605 c 0
 726 608 756 578 757 572 c 0
 757 571 760 559 758 548 c 0
 758 548 746 523 729 521 c 0
 709 519 679 540 609 518 c 0
 601 515 590 512 584 510 c 0
 568 506 538 488 526 476 c 0
 491 439 499 354 518 354 c 0
 535 354 584 378 588 378 c 0
 591 378 615 391 624 393 c 0
 628 394 633 395 635 397 c 0
 642 401 673 401 682 396 c 0
 686 394 690 392 691 392 c 0
 692 392 744 371 770 343 c 0
 773 339 779 334 782 331 c 0
 787 326 802 296 802 291 c 0
 802 290 826 234 818 177 c 0
 813 135 785 88 785 84 c 0
 785 80 754 50 747 47 c 0
 746 47 681 8 647 3 c 0
 637 1 644 -1 617 -3 c 0
 557 -7 519 23 496 47 c 0
 478 65 476 69 464 92 c 2
 452 116 l 1
 451 138 l 2
 450 159 450 161 455 170 c 0
 461 182 467 184 487 186 c 0
 497 187 507 189 507 178 c 0
 507 176 508 174 509 174 c 0
 510 174 511 172 511 168 c 0
 511 159 516 158 516 154 c 0
 516 149 528 127 541 110 c 0
 560 84 578 75 610 75 c 0
 629 75 629 75 653 85 c 0
 699 104 714 115 725 137 c 0
 731 150 741 180 743 191 c 0
 745 204 735 269 719 287 c 0
 709 298 675 319 664 321 c 0
 640 326 571 284 557 284 c 0
 555 284 552 283 552 282 c 0
 552 281 550 280 547 280 c 0
 532 280 535 271 511 277 c 0
 504 279 495 281 491 281 c 0
 490 281 439 288 423 375 c 1
 417 363 l 2
 406 343 393 331 393 328 c 0
 393 326 361 296 353 291 c 0
 330 276 297 254 255 246 c 0
 194 233 129 247 129 247 c 0
 126 244 122 123 123 68 c 2
 123 42 l 1
241 530 m 0
 217 537 161 536 140 527 c 2
 129 523 l 1
 130 513 l 2
 130 507 131 462 131 414 c 2
 132 326 l 1
 143 323 l 2
 155 319 213 315 243 322 c 0
 268 328 302 346 321 364 c 0
 331 374 350 398 350 401 c 0
 350 409 367 429 354 452 c 0
 347 464 315 495 300 504 c 0
 286 513 258 525 241 530 c 0
EndSplineSet
Ligature2: "liga" P S
EndChar

StartChar: T_O
Encoding: 1114129 -1 80
Width: 750
VWidth: 97
Flags: W
LayerCount: 2
Fore
SplineSet
65 441 m 0
 45 441 19 475 20 488 c 0
 21 496 37 511 59 526 c 0
 83 543 111 541 122 544 c 0
 153 554 299 588 390 581 c 0
 412 579 416 576 423 564 c 0
 428 556 429 555 427 541 c 2
 425 526 l 1
 437 526 450 527 462 527 c 1
 466 523 469 518 473 514 c 1
 491 514 l 2
 562 515 615 469 616 469 c 0
 618 469 655 432 660 425 c 0
 696 368 710 346 710 285 c 0
 710 226 688 182 687 181 c 0
 686 180 640 84 579 42 c 0
 541 16 522 6 501 1 c 0
 480 -5 451 -10 446 -9 c 0
 438 -8 409 -6 405 -4 c 0
 399 -1 372 11 369 14 c 0
 351 30 312 65 297 167 c 0
 289 220 297 400 378 493 c 0
 384 500 389 506 390 507 c 0
 394 510 316 503 280 498 c 0
 271 497 230 491 230 491 c 0
 227 489 234 317 222 111 c 0
 217 27 217 23 211 18 c 0
 206 13 205 13 187 14 c 0
 147 17 138 22 141 55 c 0
 141 59 156 306 151 461 c 0
 150 473 147 475 138 470 c 0
 120 460 84 458 72 443 c 0
 71 441 68 441 65 441 c 0
451 429 m 0
 444 429 432 433 430 436 c 0
 427 440 408 404 399 376 c 0
 388 345 359 255 381 145 c 0
 388 112 396 82 427 72 c 0
 481 54 545 112 564 131 c 0
 582 149 628 218 631 281 c 0
 632 303 632 304 625 326 c 0
 591 425 510 437 508 437 c 0
 505 437 510 408 506 404 c 0
 502 400 468 388 465 406 c 0
 464 409 462 415 460 420 c 0
 457 428 456 429 451 429 c 0
EndSplineSet
Ligature2: "liga" T O
EndChar

StartChar: plus
Encoding: 43 43 81
Width: 503
VWidth: 611
Flags: W
LayerCount: 2
Fore
SplineSet
281 71 m 0
 281 69 267 62 267 60 c 0
 267 59 256 56 256 57 c 0
 256 57 245 45 229 62 c 0
 217 75 215 68 208 82 c 0
 204 90 204 92 206 98 c 0
 207 102 209 132 210 175 c 2
 211 246 l 1
 176 245 l 2
 96 242 120 233 52 231 c 0
 44 231 30 230 21 265 c 0
 15 285 35 295 35 295 c 0
 74 313 105 323 182 324 c 0
 199 324 213 324 214 325 c 0
 216 327 214 412 212 427 c 0
 210 441 210 442 215 454 c 0
 223 473 224 474 239 477 c 0
 260 481 275 480 279 476 c 0
 281 474 295 457 296 361 c 2
 296 320 l 1
 323 316 390 313 405 312 c 0
 449 310 448 311 453 306 c 0
 457 302 467 262 462 251 c 0
 455 235 439 230 394 232 c 0
 360 233 305 236 298 238 c 0
 294 239 291 240 290 161 c 0
 289 106 288 79 284 75 c 0
 283 73 281 72 281 71 c 0
EndSplineSet
EndChar

StartChar: brokenbar
Encoding: 166 166 82
Width: 150
VWidth: 937
Flags: W
LayerCount: 2
Fore
SplineSet
28 631 m 0
 28 631 28 631 30 662 c 0
 30 664 33 669 37 673 c 0
 43 680 43 679 84 683 c 0
 85 683 101 676 101 661 c 0
 101 657 102 652 104 650 c 0
 105 649 116 586 106 478 c 0
 92 333 114 304 99 275 c 0
 91 259 81 259 71 259 c 1
 92 253 102 234 102 234 c 0
 106 226 108 191 108 105 c 0
 108 57 109 0 110 -22 c 0
 113 -91 103 -142 103 -143 c 0
 102 -145 101 -149 100 -152 c 0
 99 -156 96 -159 90 -162 c 0
 81 -166 81 -166 63 -163 c 0
 25 -156 24 -155 28 -95 c 0
 30 -54 30 -39 26 23 c 0
 24 59 27 232 36 237 c 0
 37 238 38 240 38 242 c 0
 38 251 50 260 60 258 c 0
 74 256 48 265 48 265 c 0
 44 265 30 271 30 273 c 0
 30 274 28 276 26 279 c 0
 18 288 27 307 22 325 c 0
 19 334 19 439 22 445 c 0
 28 455 29 521 28 631 c 0
EndSplineSet
EndChar

StartChar: ampersand
Encoding: 38 38 83
Width: 507
VWidth: 749
Flags: W
LayerCount: 2
Fore
SplineSet
87 554 m 0
 93 554 97 568 151 571 c 0
 163 572 173 572 175 571 c 0
 177 570 183 569 188 568 c 0
 238 560 303 507 307 451 c 0
 308 430 307 411 304 406 c 0
 304 405 296 373 276 346 c 0
 260 324 258 321 248 310 c 2
 238 300 l 1
 250 290 l 2
 266 278 266 278 312 238 c 2
 330 223 l 1
 333 231 l 2
 335 235 337 241 338 244 c 0
 339 248 339 248 356 268 c 0
 361 274 365 275 384 269 c 2
 398 265 l 1
 401 255 l 2
 408 225 394 178 392 173 c 0
 390 168 390 167 401 157 c 0
 401 157 437 124 439 124 c 0
 441 124 455 102 462 94 c 0
 467 88 468 77 464 69 c 0
 461 63 423 39 416 39 c 0
 394 39 392 60 365 82 c 2
 352 93 l 1
 275 -13 215 -5 204 -14 c 0
 202 -16 155 -16 155 -14 c 0
 155 -13 149 -11 142 -9 c 0
 126 -5 126 -5 101 10 c 0
 61 33 41 60 30 104 c 0
 2 213 39 242 39 256 c 0
 39 261 66 291 76 296 c 0
 79 298 86 302 92 306 c 0
 103 313 103 314 94 324 c 0
 60 361 24 457 57 516 c 0
 64 529 84 554 87 554 c 0
210 470 m 0
 198 482 180 494 157 494 c 0
 154 494 146 492 138 491 c 0
 123 489 115 464 120 436 c 0
 125 410 155 362 171 355 c 0
 177 352 177 353 188 363 c 0
 197 372 227 404 227 432 c 0
 227 451 224 457 210 470 c 0
274 163 m 2
 259 178 185 241 184 242 c 2
 164 258 l 1
 154 252 l 2
 118 232 92 215 106 138 c 0
 111 112 115 100 122 93 c 0
 130 84 153 72 167 68 c 0
 179 65 180 65 195 68 c 0
 220 73 231 80 257 106 c 0
 269 118 283 132 286 137 c 2
 292 146 l 1
 274 163 l 2
EndSplineSet
EndChar

StartChar: asciicircum
Encoding: 94 94 84
Width: 424
VWidth: 721
Flags: W
LayerCount: 2
Fore
SplineSet
127 389 m 0
 127 385 113 371 113 367 c 0
 113 363 80 332 72 329 c 0
 57 323 55 325 37 343 c 0
 21 359 20 359 20 369 c 0
 20 386 26 380 26 387 c 0
 26 389 43 414 47 418 c 0
 70 442 95 532 133 582 c 0
 136 586 141 593 142 596 c 0
 150 615 201 613 201 604 c 0
 201 603 203 602 204 602 c 0
 207 602 231 577 231 574 c 0
 231 562 350 453 367 423 c 0
 376 407 381 395 380 392 c 0
 380 391 381 386 382 380 c 0
 386 364 382 360 356 350 c 0
 333 341 321 336 305 368 c 0
 292 395 262 418 244 441 c 0
 242 444 239 447 238 447 c 0
 236 447 236 446 194 492 c 2
 180 508 l 1
 176 497 l 2
 172 487 146 434 146 433 c 0
 146 430 128 399 127 389 c 0
EndSplineSet
EndChar

StartChar: underscore
Encoding: 95 95 85
Width: 511
VWidth: 168
Flags: W
LayerCount: 2
Fore
SplineSet
429 31 m 0
 449 39 457 22 463 7 c 2
 471 -13 l 1
 465 -26 l 2
 459 -39 453 -44 446 -44 c 0
 445 -44 440 -47 436 -49 c 0
 421 -57 321 -52 315 -55 c 0
 310 -58 165 -60 97 -58 c 0
 44 -57 35 -55 25 -41 c 0
 19 -33 19 -31 22 -5 c 0
 26 25 28 25 105 23 c 0
 152 21 257 23 273 25 c 0
 275 25 425 29 429 31 c 0
EndSplineSet
EndChar

StartChar: emdash
Encoding: 8212 8212 86
Width: 787
VWidth: 510
Flags: W
LayerCount: 2
Fore
SplineSet
223 276 m 0
 346 276 604 282 608 282 c 2
 675 282 l 1
 682 291 682 291 701 293 c 0
 717 294 734 271 739 271 c 0
 740 271 742 268 744 264 c 0
 747 258 747 256 744 241 c 0
 740 218 739 216 728 209 c 2
 719 203 l 1
 641 202 l 2
 549 201 442 198 414 195 c 0
 402 194 370 194 335 195 c 0
 272 196 215 196 116 195 c 0
 63 194 55 195 50 198 c 0
 42 203 29 204 23 211 c 0
 16 220 20 273 38 273 c 0
 40 273 43 273 44 274 c 0
 45 275 126 276 223 276 c 0
EndSplineSet
EndChar

StartChar: endash
Encoding: 8211 8211 87
Width: 514
VWidth: 435
Flags: W
LayerCount: 2
Fore
SplineSet
140 289 m 0
 158 289 446 300 449 300 c 0
 464 301 467 284 469 270 c 0
 471 259 473 247 474 244 c 0
 474 244 476 228 450 223 c 0
 418 217 369 214 360 217 c 0
 344 222 78 192 37 215 c 0
 18 226 19 257 23 265 c 0
 37 289 105 289 140 289 c 0
EndSplineSet
EndChar

StartChar: hyphen
Encoding: 45 45 88
Width: 482
VWidth: 446
Flags: W
LayerCount: 2
Fore
SplineSet
250 316 m 0
 285 320 405 320 407 320 c 0
 426 319 427 319 433 313 c 0
 439 306 440 303 442 278 c 0
 443 259 441 253 431 246 c 0
 423 240 409 239 333 237 c 0
 331 237 99 228 85 226 c 0
 37 219 32 230 24 252 c 0
 7 296 56 297 56 303 c 0
 56 312 204 310 250 316 c 0
EndSplineSet
EndChar

StartChar: parenleft
Encoding: 40 40 89
Width: 288
VWidth: 868
Flags: W
LayerCount: 2
Fore
SplineSet
232 -79 m 0
 232 -81 219 -102 199 -102 c 0
 180 -102 131 -48 116 -27 c 0
 102 -7 75 42 65 66 c 0
 49 104 47 108 39 137 c 0
 19 210 19 211 20 274 c 0
 21 310 22 332 24 343 c 0
 33 391 45 421 45 422 c 0
 45 432 101 552 126 574 c 0
 128 576 130 580 130 581 c 0
 130 584 148 608 158 618 c 0
 161 622 173 630 183 635 c 0
 214 651 221 648 238 617 c 2
 248 597 l 1
 245 588 l 2
 239 574 233 576 228 567 c 0
 226 564 222 560 218 558 c 0
 202 550 83 407 102 230 c 0
 109 160 152 63 165 44 c 0
 217 -36 241 -28 242 -52 c 0
 242 -70 232 -71 232 -79 c 0
EndSplineSet
EndChar

StartChar: parenright
Encoding: 41 41 90
Width: 279
VWidth: 861
Flags: W
LayerCount: 2
Fore
SplineSet
26 611 m 0
 32 630 34 639 52 640 c 0
 60 640 97 629 101 625 c 0
 103 623 105 623 106 623 c 0
 108 623 110 615 129 591 c 0
 153 562 185 511 193 488 c 0
 204 461 212 438 218 415 c 0
 235 350 235 349 236 342 c 0
 242 306 239 203 231 181 c 0
 231 180 221 107 213 99 c 0
 212 98 212 96 212 94 c 0
 212 90 193 48 185 33 c 0
 157 -18 107 -68 100 -82 c 0
 96 -90 90 -93 60 -99 c 0
 50 -101 46 -101 38 -94 c 0
 27 -85 20 -74 20 -68 c 0
 20 -64 24 -53 27 -40 c 0
 33 -17 44 -26 58 -6 c 0
 62 0 72 11 79 20 c 0
 99 44 134 83 149 178 c 0
 151 194 155 215 157 226 c 0
 165 269 152 357 150 362 c 0
 149 363 132 437 104 485 c 0
 99 493 96 501 96 502 c 0
 96 507 53 558 37 573 c 0
 19 589 22 597 26 611 c 0
EndSplineSet
EndChar

StartChar: bracketleft
Encoding: 91 91 91
Width: 326
VWidth: 855
Flags: W
LayerCount: 2
Fore
SplineSet
36 619 m 0
 40 627 64 637 69 636 c 0
 91 631 115 630 115 633 c 0
 115 635 137 635 137 630 c 0
 137 627 138 628 149 629 c 0
 156 630 185 630 215 630 c 0
 288 629 288 630 286 592 c 0
 285 567 282 558 275 558 c 0
 273 558 270 558 270 557 c 0
 269 555 142 549 122 551 c 2
 108 553 l 1
 106 512 l 2
 104 453 105 370 108 366 c 0
 110 364 110 341 110 262 c 0
 110 260 114 53 112 50 c 0
 111 49 110 35 110 19 c 2
 110 -10 l 1
 134 -10 l 2
 147 -10 158 -10 158 -9 c 0
 158 -7 174 -10 175 -7 c 0
 177 -3 218 -4 227 -8 c 0
 244 -15 250 -5 263 -19 c 0
 270 -26 270 -28 271 -45 c 0
 273 -74 274 -75 267 -82 c 0
 263 -86 259 -88 256 -88 c 0
 249 -88 273 -92 148 -89 c 0
 119 -88 71 -102 47 -89 c 0
 17 -74 17 -55 23 -25 c 0
 23 -23 39 127 31 153 c 0
 29 160 28 170 28 187 c 0
 29 248 30 312 25 357 c 0
 18 422 27 486 23 577 c 2
 22 601 l 1
 28 607 33 613 36 619 c 0
EndSplineSet
EndChar

StartChar: bracketright
Encoding: 93 93 92
Width: 348
VWidth: 837
Flags: W
LayerCount: 2
Fore
SplineSet
72 619 m 0
 115 618 118 624 147 619 c 0
 162 616 157 616 241 616 c 0
 267 616 275 616 281 613 c 0
 285 611 289 609 289 608 c 0
 289 607 291 604 294 600 c 0
 301 592 303 584 304 550 c 0
 308 411 312 255 307 211 c 0
 306 204 301 -67 301 -70 c 0
 299 -86 294 -91 283 -91 c 0
 271 -91 273 -103 250 -96 c 0
 242 -94 229 -93 207 -93 c 0
 160 -93 118 -95 114 -97 c 0
 113 -97 77 -102 56 -92 c 0
 50 -89 44 -87 43 -87 c 0
 42 -87 41 -87 41 -86 c 0
 41 -85 39 -82 37 -79 c 0
 26 -66 43 -24 47 -24 c 0
 51 -24 57 -16 73 -16 c 0
 117 -19 185 -12 205 -12 c 2
 221 -12 l 1
 223 -1 l 2
 224 5 224 51 224 101 c 0
 224 138 228 318 228 320 c 0
 228 386 225 517 223 530 c 2
 221 538 l 1
 180 539 l 2
 111 540 126 545 114 541 c 0
 109 539 99 539 80 540 c 0
 36 542 29 546 24 566 c 0
 19 587 19 598 24 605 c 0
 29 612 33 614 40 614 c 0
 54 614 31 620 72 619 c 0
EndSplineSet
EndChar

StartChar: braceleft
Encoding: 123 123 93
Width: 286
VWidth: 874
Flags: W
LayerCount: 2
Fore
SplineSet
45 323 m 0
 49 323 61 331 68 331 c 0
 71 331 78 334 84 339 c 0
 94 346 99 350 86 374 c 0
 78 389 76 399 58 432 c 0
 26 489 32 537 33 538 c 0
 34 539 35 543 35 547 c 0
 35 551 36 553 37 553 c 0
 38 553 39 555 39 556 c 0
 39 558 46 572 53 585 c 0
 57 592 78 612 83 614 c 0
 87 615 122 642 144 642 c 0
 158 642 161 646 171 648 c 0
 178 649 207 646 217 643 c 0
 246 634 226 583 223 580 c 0
 211 568 169 573 150 561 c 0
 131 549 124 542 119 533 c 2
 114 524 l 1
 118 506 l 2
 121 489 132 464 136 462 c 0
 141 460 163 400 168 400 c 0
 174 400 180 331 174 327 c 0
 171 325 171 315 164 306 c 0
 150 287 175 283 175 275 c 0
 175 271 197 233 189 194 c 0
 177 139 181 173 174 144 c 0
 168 121 134 67 134 60 c 0
 134 52 119 46 118 21 c 0
 118 6 122 -2 136 -15 c 0
 144 -22 144 -22 154 -21 c 0
 160 -20 168 -20 172 -20 c 0
 187 -20 197 -8 221 -20 c 2
 233 -26 l 1
 240 -44 l 2
 244 -56 256 -91 224 -91 c 0
 210 -91 213 -106 169 -104 c 0
 130 -102 124 -91 121 -91 c 0
 114 -91 55 -49 55 -41 c 0
 55 -40 54 -38 52 -36 c 0
 51 -35 20 31 57 94 c 0
 80 134 98 166 106 203 c 2
 109 219 l 1
 104 229 l 2
 98 241 94 243 80 240 c 0
 72 238 68 240 50 245 c 0
 28 251 26 253 25 267 c 0
 24 276 20 279 20 291 c 0
 19 302 26 316 33 317 c 0
 39 318 41 323 45 323 c 0
EndSplineSet
EndChar

StartChar: braceright
Encoding: 125 125 94
Width: 304
VWidth: 893
Flags: W
LayerCount: 2
Fore
SplineSet
55 631 m 0
 55 650 73 655 73 655 c 0
 79 655 88 664 104 662 c 0
 150 658 177 653 194 633 c 0
 198 629 201 626 203 626 c 0
 205 626 206 625 205 624 c 0
 202 618 231 607 236 554 c 0
 243 476 202 419 201 419 c 0
 200 419 198 418 198 417 c 0
 198 414 171 374 171 362 c 0
 171 345 234 331 236 328 c 0
 238 324 254 323 257 312 c 0
 257 311 259 309 260 308 c 0
 264 305 265 291 262 285 c 0
 261 282 259 277 258 273 c 0
 257 267 256 265 248 261 c 0
 243 259 237 256 234 254 c 0
 226 249 194 247 191 235 c 0
 186 216 212 160 212 159 c 0
 212 158 225 135 227 78 c 0
 230 0 204 -43 204 -44 c 0
 204 -47 193 -61 191 -61 c 0
 190 -61 188 -63 188 -64 c 0
 188 -74 165 -94 147 -100 c 0
 111 -111 111 -111 110 -110 c 0
 102 -104 17 -120 20 -72 c 0
 21 -59 32 -29 37 -26 c 0
 53 -18 81 -35 109 -27 c 0
 147 -16 156 94 134 138 c 0
 122 163 118 173 118 177 c 0
 118 181 98 244 117 269 c 0
 120 273 121 277 121 278 c 0
 121 280 122 283 124 285 c 0
 132 296 106 296 95 329 c 0
 91 340 90 347 90 365 c 0
 90 374 90 401 106 421 c 0
 112 429 135 467 141 479 c 0
 153 502 168 551 142 569 c 0
 103 595 102 569 77 584 c 0
 64 592 55 611 55 631 c 0
EndSplineSet
EndChar

StartChar: slash
Encoding: 47 47 95
Width: 403
VWidth: 773
Flags: W
LayerCount: 2
Fore
SplineSet
162 91 m 0
 162 88 144 56 145 56 c 0
 146 56 112 -10 112 -10 c 0
 113 -10 100 -32 98 -46 c 0
 97 -51 81 -62 73 -65 c 0
 56 -70 43 -54 33 -54 c 0
 32 -54 28 -52 25 -49 c 0
 16 -41 19 -24 33 8 c 0
 40 24 72 88 72 88 c 0
 70 88 90 120 89 122 c 0
 89 124 104 154 103 155 c 0
 102 156 142 255 142 256 c 0
 142 259 168 317 169 326 c 0
 170 330 183 353 183 356 c 0
 183 360 231 460 238 469 c 0
 246 480 253 492 251 492 c 0
 250 492 283 539 287 557 c 0
 293 589 318 578 332 573 c 0
 340 570 347 568 348 568 c 0
 352 567 360 559 362 553 c 0
 370 533 333 469 327 464 c 0
 306 427 l 0
 308 427 290 400 288 392 c 0
 287 385 272 361 273 360 c 0
 274 359 256 327 256 325 c 0
 256 324 229 264 229 258 c 0
 229 253 203 199 203 192 c 0
 203 184 162 92 162 91 c 0
EndSplineSet
EndChar

StartChar: backslash
Encoding: 92 92 96
Width: 403
VWidth: 773
Flags: W
LayerCount: 2
Fore
SplineSet
180 192 m 0
 180 199 155 253 155 258 c 0
 155 272 86 411 85 412 c 0
 80 420 76 427 77 427 c 0
 80 427 10 526 21 553 c 0
 25 563 26 563 51 573 c 0
 60 576 70 579 74 579 c 0
 86 579 94 572 97 557 c 0
 101 539 132 492 132 492 c 0
 127 492 153 460 152 458 c 0
 151 456 160 445 166 431 c 0
 171 417 200 359 200 356 c 0
 200 353 214 330 215 326 c 0
 216 317 241 259 241 256 c 0
 241 252 253 232 256 220 c 0
 267 180 295 123 295 122 c 0
 294 120 313 88 311 88 c 0
 309 88 347 21 346 20 c 0
 346 15 375 -33 358 -49 c 0
 355 -52 352 -54 351 -54 c 0
 341 -54 327 -70 310 -65 c 0
 302 -62 287 -51 286 -46 c 0
 284 -32 271 -10 272 -10 c 0
 274 -10 255 18 254 23 c 0
 253 28 237 56 238 56 c 0
 239 56 222 88 222 91 c 0
 222 92 180 184 180 192 c 0
EndSplineSet
EndChar

StartChar: less
Encoding: 60 60 97
Width: 399
VWidth: 729
Flags: W
LayerCount: 2
Fore
SplineSet
298 549 m 0
 318 559 318 558 337 539 c 0
 346 530 354 521 356 517 c 0
 363 503 366 507 269 409 c 0
 189 329 159 300 153 300 c 0
 151 300 122 278 121 275 c 0
 120 272 136 262 175 220 c 0
 226 165 243 155 248 143 c 0
 250 138 300 81 313 69 c 0
 340 42 334 43 344 33 c 0
 353 23 352 16 339 -3 c 0
 326 -21 326 -21 315 -24 c 0
 281 -33 260 13 253 16 c 0
 241 22 178 106 165 115 c 0
 139 133 133 155 64 217 c 0
 50 230 16 262 20 277 c 0
 20 278 21 282 22 286 c 0
 24 302 29 308 43 314 c 0
 48 316 51 323 85 348 c 0
 142 390 209 463 213 463 c 0
 214 463 217 466 220 469 c 0
 239 493 288 544 298 549 c 0
EndSplineSet
EndChar

StartChar: greater
Encoding: 62 62 98
Width: 399
VWidth: 729
Flags: W
LayerCount: 2
Fore
SplineSet
42 539 m 0
 61 558 61 559 81 549 c 0
 91 544 140 493 159 469 c 0
 162 466 165 463 166 463 c 0
 170 463 237 390 294 348 c 0
 311 336 335 314 336 314 c 0
 350 308 355 302 357 286 c 0
 359 269 361 258 315 217 c 0
 246 155 240 133 214 115 c 0
 210 112 203 103 197 96 c 0
 192 90 135 20 126 16 c 0
 118 13 98 -33 64 -24 c 0
 53 -21 53 -21 40 -3 c 0
 27 16 26 23 35 33 c 0
 44 43 39 42 66 69 c 0
 79 82 129 138 131 143 c 0
 136 156 152 164 204 220 c 0
 219 236 238 255 245 261 c 0
 252 267 258 274 258 275 c 0
 257 278 228 300 226 300 c 0
 220 300 189 329 110 409 c 0
 13 507 16 503 23 517 c 0
 25 521 33 530 42 539 c 0
EndSplineSet
EndChar

StartChar: divide
Encoding: 247 247 99
Width: 512
VWidth: 641
Flags: W
LayerCount: 2
Fore
SplineSet
236 500 m 1
 236 498 245 504 254 505 c 0
 262 505 275 499 276 495 c 0
 280 484 296 487 300 469 c 0
 303 458 279 417 279 423 c 0
 279 425 272 418 268 411 c 0
 263 403 260 400 246 399 c 0
 222 397 213 399 206 409 c 0
 204 411 201 417 197 421 c 0
 178 442 204 481 214 484 c 0
 216 485 218 486 218 487 c 0
 218 489 224 489 231 496 c 0
 234 499 236 500 236 500 c 1
41 315 m 0
 41 330 369 326 372 329 c 0
 374 331 427 329 444 327 c 0
 460 325 462 324 467 319 c 0
 472 313 472 312 472 294 c 0
 472 281 471 273 469 268 c 0
 466 261 456 250 452 250 c 0
 390 247 141 250 77 243 c 0
 67 242 59 241 58 242 c 0
 57 243 51 244 45 245 c 0
 27 247 22 257 21 286 c 2
 20 300 l 1
 28 307 l 2
 32 311 36 314 38 314 c 0
 39 314 41 314 41 315 c 0
207 156 m 0
 208 156 243 172 265 159 c 0
 274 153 275 153 287 130 c 0
 299 109 299 101 289 92 c 0
 286 89 283 86 283 85 c 0
 283 82 269 61 267 61 c 0
 260 61 249 40 220 55 c 0
 215 58 209 59 208 59 c 0
 207 59 206 60 206 61 c 0
 206 63 196 65 193 77 c 0
 193 79 191 85 189 91 c 0
 186 100 185 104 187 109 c 0
 188 113 189 117 189 120 c 0
 189 127 202 153 207 156 c 0
EndSplineSet
EndChar

StartChar: plusminus
Encoding: 177 177 100
Width: 511
VWidth: 745
Flags: W
LayerCount: 2
Fore
SplineSet
25 405 m 0
 28 405 28 411 32 411 c 0
 38 411 39 420 71 424 c 0
 72 424 148 437 166 438 c 0
 183 439 198 440 199 441 c 0
 201 442 200 517 197 535 c 0
 193 563 198 565 216 576 c 0
 225 582 234 587 237 588 c 0
 241 590 256 590 258 588 c 0
 258 588 264 578 271 566 c 2
 285 544 l 1
 284 513 l 2
 284 510 282 447 282 446 c 0
 283 437 278 438 330 433 c 0
 365 429 415 429 438 433 c 0
 455 436 461 418 461 418 c 0
 465 400 468 376 467 372 c 0
 459 338 328 352 327 352 c 0
 313 354 298 356 291 357 c 2
 279 358 l 1
 277 325 l 2
 273 242 288 260 285 244 c 0
 284 238 280 231 278 231 c 0
 274 231 269 213 254 213 c 0
 248 213 243 207 237 208 c 0
 214 213 213 219 213 219 c 0
 213 220 211 224 208 228 c 0
 198 242 197 255 197 310 c 2
 197 360 l 1
 151 358 l 2
 44 352 29 364 24 371 c 0
 21 375 17 405 25 405 c 0
66 149 m 0
 144 175 263 184 423 176 c 0
 463 174 464 173 469 164 c 0
 472 159 471 125 468 112 c 0
 464 94 451 94 410 96 c 0
 409 96 312 99 286 99 c 0
 217 104 69 71 68 71 c 0
 46 72 41 88 38 98 c 0
 32 120 31 120 36 130 c 0
 41 141 45 142 66 149 c 0
EndSplineSet
EndChar

StartChar: radical
Encoding: 8730 8730 101
Width: 573
VWidth: 857
Flags: W
LayerCount: 2
Fore
SplineSet
286 638 m 0
 367 607 473 632 503 619 c 0
 508 617 512 616 513 616 c 0
 517 616 524 605 524 599 c 0
 524 587 537 582 531 567 c 0
 528 561 502 534 482 540 c 0
 441 552 376 532 316 547 c 2
 306 550 l 1
 304 518 l 2
 303 501 302 478 301 467 c 0
 298 423 268 214 268 211 c 0
 268 208 230 -38 216 -68 c 0
 207 -87 194 -80 189 -85 c 0
 182 -92 160 -88 153 -79 c 0
 152 -78 96 11 78 54 c 0
 55 112 45 138 39 143 c 0
 37 144 33 149 31 153 c 0
 17 180 17 182 27 197 c 0
 46 225 54 229 69 219 c 0
 90 205 116 180 116 174 c 0
 116 168 152 91 152 90 c 0
 158 75 161 70 162 73 c 0
 162 75 187 227 191 244 c 0
 195 264 223 511 223 514 c 0
 230 585 230 587 236 595 c 0
 236 596 272 643 286 638 c 0
EndSplineSet
EndChar

StartChar: Sigma
Encoding: 931 931 102
Width: 548
VWidth: 850
Flags: HW
AnchorPoint: "above" 263.934 661.508 basechar 0
LayerCount: 2
Fore
SplineSet
418 58 m 0
 422 58 437 71 440 71 c 0
 460 72 459 72 473 59 c 2
 486 47 l 1
 487 32 l 2
 493 -27 466 -38 465 -38 c 0
 457 -40 448 -44 435 -45 c 0
 420 -45 432 -49 392 -46 c 0
 348 -42 327 -49 310 -47 c 0
 309 -47 305 -47 300 -46 c 0
 288 -44 283 -49 233 -50 c 0
 232 -50 176 -53 166 -51 c 0
 142 -46 142 -57 104 -52 c 0
 75 -48 74 -48 52 -37 c 0
 42 -32 35 -26 34 -21 c 0
 33 -15 22 -9 20 4 c 0
 18 17 39 56 62 84 c 0
 107 138 147 215 168 231 c 0
 171 233 173 237 173 238 c 0
 173 242 205 275 206 282 c 0
 208 290 244 325 244 331 c 0
 244 337 222 376 215 384 c 0
 204 395 198 409 179 429 c 0
 115 498 138 487 120 506 c 0
 112 515 94 548 87 555 c 0
 64 580 74 613 77 613 c 0
 80 613 75 617 78 617 c 0
 81 617 88 632 96 634 c 0
 99 635 102 636 103 637 c 0
 105 639 147 644 157 640 c 0
 166 636 215 638 220 634 c 0
 224 631 273 632 282 635 c 0
 289 638 360 640 360 637 c 0
 360 636 388 630 423 635 c 0
 431 636 447 638 457 638 c 0
 476 639 476 638 482 632 c 0
 485 629 488 625 488 623 c 0
 488 621 491 616 494 613 c 0
 499 608 500 603 504 583 c 2
 508 559 l 1
 504 548 l 2
 498 533 496 539 496 527 c 0
 496 515 489 509 476 509 c 0
 464 509 436 512 435 514 c 0
 434 515 432 516 429 518 c 0
 416 525 418 544 419 552 c 1
 400 552 l 2
 357 552 380 560 311 557 c 0
 290 556 269 555 265 554 c 0
 251 551 222 552 190 557 c 0
 181 559 181 558 195 537 c 0
 205 522 235 485 238 485 c 0
 239 485 289 424 289 418 c 0
 289 414 306 391 323 350 c 0
 337 315 325 284 316 284 c 0
 315 284 315 283 315 281 c 0
 315 278 304 272 302 274 c 0
 301 275 301 273 301 271 c 0
 301 265 262 227 262 220 c 0
 262 218 253 207 241 194 c 0
 192 141 155 72 143 59 c 0
 136 52 122 30 123 29 c 0
 124 28 126 29 129 30 c 0
 136 33 178 33 180 30 c 0
 181 29 186 28 195 29 c 0
 196 29 260 31 273 34 c 0
 294 39 290 31 312 34 c 0
 335 38 400 33 402 41 c 0
 403 46 414 58 418 58 c 0
EndSplineSet
EndChar

StartChar: asterisk
Encoding: 42 42 103
Width: 515
VWidth: 680
Flags: W
LayerCount: 2
Fore
SplineSet
77 115 m 0
 77 134 87 136 87 142 c 0
 87 143 87 145 88 145 c 0
 89 145 107 163 127 184 c 2
 164 222 l 1
 131 222 l 2
 108 222 41 221 32 228 c 0
 22 235 20 242 20 259 c 0
 20 284 22 284 77 294 c 0
 131 304 162 302 175 304 c 0
 181 305 95 367 86 413 c 0
 85 420 85 421 95 431 c 0
 109 445 115 446 131 434 c 0
 147 422 158 416 177 400 c 0
 195 385 207 377 212 374 c 0
 216 372 216 372 215 380 c 0
 215 381 210 459 216 493 c 0
 219 511 220 513 226 518 c 0
 230 521 234 524 235 524 c 0
 241 524 271 517 275 515 c 0
 288 508 289 457 289 457 c 0
 292 449 293 429 296 385 c 2
 298 370 l 1
 382 471 392 463 416 429 c 0
 436 400 435 399 400 363 c 0
 369 332 347 304 352 303 c 0
 353 303 422 297 438 301 c 0
 443 302 456 306 463 289 c 0
 475 261 476 261 475 253 c 0
 473 240 466 230 460 230 c 0
 458 230 456 229 456 228 c 0
 456 222 418 219 382 222 c 2
 363 224 l 1
 394 187 402 177 414 168 c 0
 432 155 430 153 419 130 c 0
 415 122 405 106 404 107 c 0
 401 108 396 101 374 102 c 0
 368 102 347 121 332 138 c 0
 332 138 311 161 300 175 c 1
 298 162 l 2
 298 161 289 17 287 13 c 0
 280 -1 272 0 255 1 c 0
 224 3 217 6 213 23 c 0
 209 40 213 127 218 152 c 0
 220 159 216 161 212 155 c 0
 208 150 152 97 152 99 c 0
 152 100 148 97 144 92 c 0
 128 76 117 74 100 86 c 0
 79 100 77 103 77 115 c 0
EndSplineSet
EndChar

StartChar: exclam
Encoding: 33 33 104
Width: 187
VWidth: 780
Flags: W
LayerCount: 2
Fore
SplineSet
74 584 m 0
 99 591 107 595 120 556 c 0
 134 511 133 517 133 421 c 0
 132 341 133 265 133 226 c 0
 133 206 131 202 121 196 c 0
 119 195 116 193 116 191 c 0
 116 187 108 182 100 181 c 0
 91 180 62 193 57 200 c 0
 51 208 50 221 52 308 c 0
 54 421 54 481 51 487 c 0
 48 494 47 522 44 536 c 0
 36 569 38 573 74 584 c 0
73 -49 m 0
 44 -49 50 -38 41 -38 c 0
 32 -38 8 10 27 47 c 0
 37 66 41 71 60 85 c 0
 76 97 78 97 87 97 c 0
 103 97 97 89 103 89 c 0
 107 89 123 64 125 64 c 0
 125 64 141 55 144 37 c 0
 147 13 149 5 139 -5 c 0
 132 -12 109 -40 103 -40 c 0
 93 -40 102 -49 73 -49 c 0
EndSplineSet
EndChar

StartChar: question
Encoding: 63 63 105
Width: 428
VWidth: 804
Flags: W
LayerCount: 2
Fore
SplineSet
155 596 m 0
 159 601 226 612 253 611 c 0
 266 611 301 602 307 597 c 0
 309 595 311 593 312 593 c 0
 323 592 339 576 349 572 c 0
 354 570 368 553 368 549 c 0
 368 548 402 511 383 443 c 0
 377 423 359 384 351 375 c 0
 349 373 348 371 347 369 c 0
 345 363 315 330 298 316 c 0
 257 281 194 247 193 246 c 0
 187 241 188 242 190 232 c 0
 191 226 210 178 209 168 c 0
 208 153 197 149 179 143 c 0
 165 138 155 136 152 137 c 0
 145 139 134 150 132 157 c 0
 130 166 126 168 123 180 c 0
 122 185 119 192 118 195 c 0
 113 207 108 231 108 247 c 0
 108 264 107 263 119 286 c 0
 130 307 215 346 254 383 c 0
 269 397 294 433 300 449 c 0
 304 459 308 488 306 488 c 0
 305 488 303 492 302 498 c 0
 299 511 292 517 269 525 c 0
 248 532 228 531 198 524 c 0
 168 517 152 508 127 483 c 0
 88 445 107 450 84 423 c 0
 83 422 82 420 82 419 c 0
 82 418 79 415 76 412 c 0
 74 410 44 395 20 427 c 1
 24 454 l 2
 26 472 28 482 31 487 c 0
 46 514 70 540 70 541 c 0
 70 545 121 579 122 581 c 0
 124 585 152 591 155 596 c 0
171 90 m 0
 180 94 194 99 234 53 c 0
 243 42 244 41 244 31 c 2
 244 21 l 1
 225 -1 l 2
 211 -17 199 -31 175 -29 c 0
 174 -29 130 5 128 17 c 0
 125 32 125 36 138 55 c 0
 146 67 165 87 171 90 c 0
EndSplineSet
EndChar

StartChar: numbersign
Encoding: 35 35 106
Width: 532
VWidth: 745
Flags: W
LayerCount: 2
Fore
SplineSet
74 355 m 0
 83 355 126 369 137 369 c 0
 139 369 142 370 142 371 c 0
 142 374 166 373 169 379 c 0
 174 388 174 432 177 448 c 0
 177 449 193 542 193 543 c 0
 193 549 201 560 205 561 c 0
 205 561 244 565 250 557 c 0
 259 545 255 477 259 475 c 0
 260 474 260 474 253 395 c 0
 252 382 252 381 262 385 c 0
 265 386 277 387 290 388 c 2
 314 390 l 1
 320 422 l 2
 326 450 334 479 345 512 c 0
 350 529 354 537 362 542 c 2
 370 547 l 1
 387 542 l 2
 417 534 417 530 404 444 c 0
 403 439 397 402 395 389 c 1
 406 389 l 2
 412 389 427 390 440 391 c 0
 466 393 474 392 476 384 c 0
 477 381 477 379 478 379 c 0
 480 379 485 370 485 365 c 0
 485 354 496 353 490 334 c 0
 489 332 480 322 476 320 c 0
 446 304 381 312 381 309 c 0
 380 308 368 223 369 222 c 0
 370 221 390 225 436 226 c 0
 471 226 474 225 481 211 c 0
 485 203 486 169 482 162 c 0
 476 151 473 149 441 147 c 0
 424 146 406 145 400 145 c 0
 386 145 378 141 367 141 c 0
 362 141 358 140 357 139 c 0
 353 133 349 36 352 33 c 0
 352 33 361 16 341 7 c 0
 336 5 329 0 326 -2 c 0
 321 -6 321 -6 302 -5 c 0
 291 -4 282 3 273 18 c 0
 266 30 273 124 273 125 c 0
 274 129 274 129 272 128 c 0
 264 125 220 122 220 117 c 0
 220 111 213 30 213 14 c 0
 213 13 213 -40 192 -46 c 0
 190 -47 187 -49 186 -50 c 0
 184 -52 158 -57 148 -50 c 0
 141 -45 138 -42 138 -40 c 0
 138 -34 123 -31 123 -14 c 0
 124 7 129 -19 134 55 c 0
 135 79 136 91 138 105 c 1
 125 104 l 2
 124 104 81 100 67 100 c 0
 44 100 33 110 30 134 c 0
 29 145 29 146 35 153 c 0
 51 172 77 168 84 175 c 0
 85 176 97 179 110 181 c 0
 146 186 144 186 146 195 c 0
 147 202 161 296 155 296 c 0
 150 296 58 281 54 279 c 0
 43 273 37 276 28 289 c 0
 20 300 19 301 20 311 c 0
 20 317 21 323 22 324 c 0
 23 325 65 355 74 355 c 0
284 211 m 0
 284 213 296 284 298 300 c 0
 299 307 299 308 295 308 c 0
 293 308 280 306 266 305 c 2
 241 304 l 1
 238 281 l 2
 238 279 227 204 227 203 c 0
 226 200 228 201 244 204 c 0
 267 209 284 209 284 211 c 0
EndSplineSet
EndChar

StartChar: at
Encoding: 64 64 107
Width: 537
VWidth: 721
Flags: W
LayerCount: 2
Fore
SplineSet
217 391 m 0
 220 391 235 405 239 405 c 0
 240 405 241 406 241 407 c 0
 241 408 246 411 265 418 c 0
 280 424 324 419 336 411 c 0
 339 409 342 407 343 407 c 0
 346 407 362 392 362 390 c 0
 362 389 365 385 369 380 c 0
 376 372 376 371 375 360 c 0
 374 354 374 348 373 346 c 0
 372 344 373 341 376 338 c 0
 397 315 386 260 393 253 c 0
 396 250 408 266 413 279 c 0
 430 323 405 394 389 418 c 0
 380 431 352 460 344 464 c 0
 330 471 264 501 202 445 c 0
 170 417 124 345 106 297 c 0
 80 228 104 130 160 101 c 0
 192 84 279 91 366 122 c 0
 389 130 398 130 405 120 c 0
 408 116 410 113 411 113 c 0
 412 113 413 112 413 111 c 0
 413 109 430 91 418 82 c 0
 417 81 415 78 414 75 c 0
 409 55 302 18 218 16 c 0
 197 15 166 17 161 20 c 0
 160 20 129 29 107 44 c 0
 84 60 66 88 63 88 c 0
 60 88 44 115 44 120 c 0
 44 124 35 136 26 172 c 0
 21 192 20 200 20 241 c 0
 20 290 37 365 127 480 c 0
 178 546 284 571 337 551 c 0
 380 536 391 527 392 527 c 0
 406 522 461 463 474 421 c 0
 475 416 477 413 478 413 c 0
 480 413 486 388 488 383 c 0
 505 348 496 248 471 222 c 0
 468 219 461 210 454 202 c 0
 442 188 434 181 432 183 c 0
 431 184 424 181 417 178 c 0
 385 164 356 178 354 180 c 0
 354 180 326 200 324 217 c 0
 323 221 322 225 321 225 c 0
 320 226 279 189 257 184 c 0
 211 174 205 172 181 190 c 0
 172 197 165 203 164 206 c 0
 160 225 153 213 153 254 c 0
 153 274 153 308 182 351 c 0
 194 368 214 391 217 391 c 0
305 349 m 0
 296 352 288 349 273 340 c 0
 255 329 255 328 241 305 c 0
 222 274 225 253 225 253 c 0
 227 250 258 265 275 287 c 0
 280 294 286 301 288 303 c 0
 294 309 292 317 302 335 c 0
 308 346 308 348 305 349 c 0
EndSplineSet
EndChar

StartChar: dollar
Encoding: 36 36 108
Width: 459
VWidth: 807
Flags: W
LayerCount: 2
Fore
SplineSet
121 519 m 0
 121 519 152 536 165 536 c 0
 172 536 170 587 181 602 c 0
 185 608 200 612 207 598 c 0
 210 592 211 585 211 564 c 2
 212 538 l 1
 222 538 l 2
 228 538 235 537 237 537 c 0
 243 537 240 550 243 555 c 0
 244 556 246 564 249 572 c 0
 255 592 257 595 271 592 c 0
 287 588 288 584 285 548 c 0
 284 532 285 530 296 530 c 0
 308 530 352 522 355 519 c 0
 357 517 359 517 360 517 c 0
 362 517 368 508 371 499 c 0
 373 492 372 491 365 475 c 0
 354 452 351 450 298 458 c 2
 280 461 l 1
 281 451 l 2
 282 440 279 408 277 402 c 0
 273 392 303 409 336 395 c 0
 345 392 407 366 417 294 c 0
 419 277 420 221 417 202 c 0
 411 156 388 121 388 120 c 0
 388 118 359 74 324 58 c 0
 295 45 286 41 284 41 c 0
 283 41 281 39 279 37 c 0
 271 29 280 -10 274 -20 c 0
 269 -30 279 -51 261 -49 c 0
 251 -48 256 -37 248 -28 c 0
 246 -25 242 -18 239 -13 c 0
 231 5 231 5 231 7 c 0
 231 7 230 23 222 20 c 0
 220 19 208 19 195 19 c 2
 172 19 l 1
 172 0 l 2
 170 -32 167 -47 158 -60 c 0
 151 -70 132 -61 132 -61 c 0
 131 -60 131 -55 131 -50 c 0
 131 -29 126 -60 125 -1 c 2
 124 34 l 1
 111 43 l 2
 70 70 45 114 44 117 c 0
 40 127 38 121 27 155 c 0
 21 175 20 180 21 185 c 0
 24 193 23 210 26 213 c 0
 26 213 68 234 68 218 c 0
 68 210 82 193 89 180 c 0
 99 161 106 152 117 140 c 0
 127 129 128 129 129 134 c 0
 131 139 130 154 133 172 c 0
 134 176 134 176 141 243 c 0
 143 265 142 268 135 266 c 0
 131 265 112 275 109 275 c 0
 106 275 86 288 86 290 c 0
 86 293 68 308 61 334 c 0
 57 350 55 403 58 405 c 0
 59 406 60 409 60 411 c 0
 60 427 79 477 96 493 c 0
 104 500 100 504 112 511 c 0
 124 517 118 519 121 519 c 0
227 441 m 0
 227 465 234 463 229 466 c 0
 227 467 223 467 218 467 c 2
 210 467 l 1
 210 457 l 2
 210 442 207 436 205 395 c 2
 203 367 l 1
 212 372 l 2
 218 375 221 377 221 380 c 0
 221 408 227 418 227 441 c 0
149 346 m 0
 157 346 155 401 160 444 c 0
 161 450 161 456 161 456 c 1
 158 456 151 445 144 429 c 0
 124 384 137 346 149 346 c 0
328 305 m 0
 317 319 313 322 298 320 c 0
 279 318 270 314 270 307 c 0
 270 305 266 237 267 130 c 2
 267 118 l 1
 279 124 l 2
 287 128 296 135 307 146 c 0
 322 161 323 163 328 180 c 0
 336 205 339 235 337 272 c 0
 336 284 335 294 335 295 c 0
 335 296 332 300 328 305 c 0
214 239 m 0
 214 262 213 281 213 281 c 0
 213 281 209 281 204 279 c 0
 193 275 194 277 188 217 c 0
 183 164 179 118 176 98 c 1
 194 97 l 2
 213 96 216 98 214 104 c 0
 213 106 213 127 213 152 c 0
 213 177 214 216 214 239 c 0
EndSplineSet
EndChar

StartChar: percent
Encoding: 37 37 109
Width: 556
VWidth: 657
Flags: W
LayerCount: 2
Fore
SplineSet
158 505 m 0
 186 504 194 498 218 480 c 0
 230 464 l 0
 230 457 246 443 240 405 c 0
 234 372 211 335 204 328 c 0
 197 322 172 285 133 263 c 0
 100 245 4 244 22 387 c 0
 24 404 41 450 47 454 c 0
 47 454 66 488 84 491 c 0
 105 494 112 507 158 505 c 0
171 421 m 1
 161 431 160 432 151 432 c 0
 128 432 117 415 105 415 c 0
 96 415 94 412 89 390 c 0
 85 374 83 328 94 322 c 0
 109 314 162 376 169 410 c 2
 171 421 l 1
454 397 m 0
 453 397 344 287 344 288 c 0
 344 288 235 174 224 159 c 0
 214 145 178 107 157 79 c 0
 141 58 120 37 113 36 c 0
 109 35 104 38 91 46 c 0
 70 60 70 61 70 71 c 0
 71 107 204 263 217 270 c 0
 225 274 216 272 283 339 c 0
 342 398 378 436 379 441 c 0
 380 447 386 456 389 456 c 0
 392 456 404 467 410 469 c 0
 425 472 444 462 446 462 c 0
 464 462 465 425 465 425 c 0
 465 423 464 419 464 415 c 0
 464 408 458 397 454 397 c 0
383 235 m 0
 389 236 405 222 410 222 c 0
 412 222 415 219 417 216 c 0
 420 211 422 210 433 208 c 0
 447 206 479 193 486 187 c 0
 505 171 518 153 516 146 c 0
 516 145 515 140 515 135 c 0
 514 105 488 75 488 75 c 0
 485 72 480 67 478 64 c 0
 470 52 373 -40 313 16 c 0
 302 26 287 47 287 52 c 0
 287 69 278 76 283 112 c 0
 283 113 298 227 367 234 c 0
 374 235 381 235 383 235 c 0
439 127 m 0
 439 133 369 144 365 146 c 0
 359 150 343 86 356 70 c 0
 360 66 359 66 369 69 c 0
 412 83 439 126 439 127 c 0
EndSplineSet
EndChar

StartChar: one
Encoding: 49 49 110
Width: 151
VWidth: 733
Flags: W
LayerCount: 2
Fore
SplineSet
62 567 m 0
 92 573 97 570 101 551 c 0
 113 487 113 486 109 273 c 0
 106 112 103 41 100 34 c 0
 97 27 90 20 83 19 c 0
 78 18 42 23 33 27 c 0
 30 28 26 33 24 37 c 0
 20 44 19 45 21 63 c 0
 22 74 25 129 26 187 c 0
 30 405 31 404 29 444 c 0
 26 529 26 546 31 554 c 0
 35 561 37 562 62 567 c 0
EndSplineSet
EndChar

StartChar: integral
Encoding: 8747 8747 111
Width: 593
VWidth: 1064
Flags: W
LayerCount: 2
Fore
SplineSet
54 -132 m 0
 54 -130 41 -111 41 -109 c 0
 41 -107 24 -83 22 -77 c 0
 20 -73 20 -70 21 -60 c 0
 21 -58 51 -27 67 -30 c 0
 70 -30 74 -31 75 -31 c 0
 77 -32 104 -67 120 -84 c 2
 132 -96 l 1
 144 -83 l 2
 180 -45 209 11 216 59 c 0
 225 127 276 371 279 404 c 0
 279 406 307 589 308 601 c 0
 312 646 311 603 316 665 c 0
 319 694 337 740 351 754 c 0
 353 756 384 782 404 778 c 0
 425 774 473 782 488 765 c 0
 491 762 494 760 495 760 c 0
 505 760 544 695 547 692 c 0
 561 680 547 659 544 658 c 0
 536 655 548 646 527 633 c 0
 501 617 473 652 473 653 c 0
 465 670 460 678 452 687 c 2
 443 697 l 1
 432 697 421 698 410 698 c 1
 406 684 l 2
 398 661 390 616 388 587 c 0
 386 553 355 359 348 326 c 0
 341 292 337 258 334 251 c 0
 330 245 331 225 329 218 c 0
 316 157 300 50 292 23 c 0
 288 9 275 -33 270 -37 c 0
 268 -39 247 -83 243 -88 c 0
 241 -90 199 -147 185 -155 c 0
 154 -173 149 -173 128 -173 c 0
 106 -173 105 -172 97 -166 c 0
 92 -163 87 -160 84 -159 c 0
 79 -158 54 -135 54 -132 c 0
EndSplineSet
EndChar

StartChar: equal
Encoding: 61 61 112
Width: 535
VWidth: 596
Flags: W
LayerCount: 2
Fore
SplineSet
328 440 m 0
 412 440 448 466 469 446 c 0
 478 437 483 395 475 385 c 0
 461 369 447 378 441 374 c 0
 440 373 401 361 336 360 c 0
 208 357 177 357 176 356 c 0
 168 352 56 341 49 348 c 0
 47 349 44 351 41 351 c 0
 38 351 33 354 28 359 c 2
 20 366 l 1
 20 384 l 2
 20 394 20 403 20 404 c 0
 20 410 30 416 40 417 c 0
 57 419 71 422 77 424 c 0
 97 431 235 440 328 440 c 0
24 224 m 0
 24 234 71 246 72 246 c 0
 74 246 76 247 76 248 c 0
 79 257 254 266 305 260 c 0
 364 253 385 256 449 266 c 0
 472 269 484 265 489 253 c 0
 490 249 493 246 494 245 c 0
 497 243 492 230 493 215 c 0
 494 196 488 190 466 188 c 0
 457 187 441 185 430 182 c 0
 373 167 294 183 252 183 c 0
 228 183 57 169 55 169 c 0
 42 169 39 170 35 174 c 0
 32 177 30 179 30 180 c 0
 30 181 30 183 29 183 c 0
 27 183 18 220 22 222 c 0
 23 222 24 223 24 224 c 0
EndSplineSet
EndChar

StartChar: approxequal
Encoding: 8776 8776 113
Width: 668
VWidth: 658
Flags: W
LayerCount: 2
Fore
SplineSet
187 476 m 0
 188 477 197 477 209 477 c 0
 231 477 274 469 277 465 c 0
 279 462 324 456 407 393 c 0
 436 371 436 370 456 378 c 0
 500 394 531 459 555 459 c 0
 561 459 582 448 590 440 c 0
 592 438 596 434 599 432 c 0
 606 426 606 414 600 402 c 0
 594 391 565 357 549 344 c 0
 517 316 509 314 509 314 c 0
 504 308 464 293 456 294 c 0
 456 294 411 283 373 317 c 0
 351 337 299 372 279 380 c 0
 256 389 217 397 202 396 c 0
 197 396 146 390 106 341 c 0
 64 289 50 301 37 312 c 0
 18 328 10 340 34 374 c 0
 37 379 41 384 41 385 c 0
 41 389 64 416 73 422 c 0
 118 455 122 459 163 469 c 0
 176 472 186 475 187 476 c 0
189 300 m 0
 230 307 299 277 300 276 c 0
 303 274 316 269 328 265 c 0
 363 252 366 250 387 229 c 0
 396 220 400 219 416 214 c 2
 435 208 l 1
 454 213 l 1
 536 232 551 302 576 302 c 0
 587 302 625 276 627 265 c 0
 629 255 628 252 608 225 c 0
 585 193 555 167 536 160 c 0
 533 159 496 135 472 135 c 0
 465 135 443 126 413 131 c 0
 400 133 361 139 336 166 c 0
 324 179 319 182 293 191 c 0
 283 195 266 201 256 206 c 0
 190 238 158 210 151 193 c 0
 151 193 139 169 122 169 c 0
 117 169 106 172 97 175 c 0
 74 183 74 184 81 213 c 0
 88 242 90 246 104 260 c 0
 127 284 149 294 189 300 c 0
EndSplineSet
EndChar

StartChar: notequal
Encoding: 8800 8800 114
Width: 554
VWidth: 697
Flags: W
LayerCount: 2
Fore
SplineSet
194 439 m 0
 237 439 268 439 280 436 c 1
 304 484 l 2
 324 524 333 541 341 542 c 0
 344 542 345 543 346 543 c 0
 347 545 350 541 362 541 c 0
 373 541 370 537 377 537 c 0
 387 537 400 513 397 501 c 0
 391 474 370 438 370 437 c 0
 370 436 446 435 463 436 c 0
 491 438 495 436 505 425 c 2
 514 416 l 1
 514 395 l 2
 514 383 513 373 513 372 c 0
 513 368 502 361 496 360 c 0
 431 350 372 357 329 355 c 1
 312 320 l 2
 302 301 294 284 294 283 c 0
 294 282 425 282 474 283 c 0
 505 284 513 247 513 246 c 0
 513 240 508 228 504 223 c 0
 502 221 493 209 491 206 c 0
 483 194 431 210 276 199 c 2
 257 198 l 1
 252 187 l 2
 233 143 192 56 185 45 c 0
 175 30 165 29 139 42 c 0
 132 45 113 55 119 66 c 0
 122 72 122 87 125 92 c 0
 128 97 124 91 147 145 c 0
 157 168 164 187 164 187 c 0
 164 189 131 181 100 180 c 0
 91 180 83 178 82 178 c 0
 78 177 54 181 54 182 c 0
 54 189 44 174 37 216 c 0
 34 231 34 236 43 245 c 0
 55 257 200 271 201 272 c 0
 202 272 214 303 231 337 c 0
 237 348 242 358 242 359 c 0
 242 364 126 355 84 358 c 0
 28 362 20 367 20 393 c 0
 20 419 26 429 43 432 c 0
 64 436 124 439 194 439 c 0
EndSplineSet
EndChar

StartChar: asciitilde
Encoding: 126 126 115
Width: 593
VWidth: 597
Flags: W
LayerCount: 2
Fore
SplineSet
204 432 m 0
 259 432 280 410 289 410 c 0
 297 410 360 355 391 353 c 0
 426 350 466 397 466 402 c 0
 465 415 486 434 492 432 c 0
 494 432 498 432 500 434 c 0
 508 440 536 436 536 428 c 0
 536 425 546 425 546 422 c 0
 546 421 548 418 550 416 c 0
 556 409 548 372 548 372 c 0
 548 370 535 358 528 346 c 0
 512 318 435 268 395 273 c 0
 335 278 329 291 326 291 c 0
 325 291 256 338 237 346 c 0
 218 355 190 352 164 338 c 0
 136 324 101 280 87 273 c 0
 83 271 79 268 77 266 c 0
 73 261 65 258 57 258 c 0
 51 258 48 260 35 274 c 0
 21 290 20 290 20 300 c 0
 20 322 38 327 38 334 c 0
 38 337 77 377 89 385 c 0
 98 392 132 412 137 415 c 0
 138 415 165 432 204 432 c 0
EndSplineSet
EndChar

StartChar: lessequal
Encoding: 8804 8804 116
Width: 474
VWidth: 729
Flags: W
LayerCount: 2
Fore
SplineSet
312 548 m 0
 315 548 343 575 347 576 c 0
 355 579 360 577 378 561 c 0
 395 546 396 543 395 537 c 0
 394 521 383 516 384 513 c 0
 386 511 365 490 365 487 c 0
 365 483 237 357 197 321 c 0
 164 292 166 294 181 295 c 0
 206 297 240 303 271 304 c 0
 285 305 304 306 314 307 c 0
 338 310 379 309 381 307 c 0
 382 304 403 302 404 299 c 0
 405 295 411 294 411 284 c 0
 411 274 402 243 397 236 c 0
 395 233 393 231 393 232 c 0
 393 232 385 227 364 229 c 0
 321 233 123 207 101 206 c 0
 52 203 45 205 27 229 c 0
 10 251 30 273 30 274 c 0
 30 281 151 387 224 458 c 0
 285 518 286 518 286 519 c 0
 286 522 309 548 312 548 c 0
394 157 m 0
 404 161 415 161 420 145 c 0
 426 128 432 136 433 113 c 0
 433 100 433 100 426 93 c 0
 383 53 282 91 136 72 c 0
 89 66 62 67 49 76 c 0
 37 84 35 118 39 126 c 0
 42 132 52 138 58 138 c 0
 72 138 38 140 105 149 c 0
 226 165 375 150 394 157 c 0
EndSplineSet
EndChar

StartChar: greaterequal
Encoding: 8805 8805 117
Width: 492
VWidth: 744
Flags: W
LayerCount: 2
Fore
SplineSet
305 420 m 0
 306 420 376 353 385 353 c 0
 387 353 414 329 423 326 c 0
 432 322 430 316 436 309 c 0
 442 303 443 277 438 269 c 0
 430 257 380 236 352 234 c 0
 351 234 265 223 262 224 c 0
 258 225 237 223 184 217 c 0
 160 214 67 215 63 218 c 0
 57 223 32 223 25 238 c 0
 21 247 21 252 26 274 c 0
 30 293 31 296 41 301 c 0
 47 304 49 304 75 299 c 0
 113 292 161 294 226 301 c 0
 253 304 281 306 290 307 c 0
 309 308 313 310 303 314 c 0
 292 319 165 447 147 472 c 0
 138 484 82 524 82 555 c 0
 82 564 83 566 95 580 c 0
 107 594 108 595 116 595 c 0
 146 595 242 487 243 486 c 0
 253 474 305 420 305 420 c 0
156 182 m 0
 161 186 355 178 371 178 c 0
 439 177 437 177 441 162 c 0
 442 158 445 152 448 148 c 0
 453 141 454 136 450 123 c 0
 443 98 414 98 385 98 c 0
 349 98 305 100 276 102 c 0
 246 104 120 103 103 100 c 0
 29 89 28 97 22 134 c 0
 20 144 17 157 32 166 c 0
 55 179 155 181 156 182 c 0
EndSplineSet
EndChar

StartChar: bar_greater
Encoding: 1114130 -1 118
Width: 539
VWidth: 191
Flags: W
LayerCount: 2
Fore
SplineSet
216 533 m 0
 211 533 202 542 199 542 c 0
 198 542 195 546 193 550 c 0
 189 557 189 558 191 577 c 0
 193 598 194 601 206 606 c 0
 207 606 253 611 269 596 c 0
 272 593 275 592 276 593 c 0
 280 595 327 545 327 539 c 0
 327 530 430 418 430 414 c 0
 430 411 456 382 458 382 c 0
 462 382 464 376 473 372 c 0
 482 369 494 346 497 344 c 0
 500 342 503 285 484 285 c 0
 481 285 469 267 466 267 c 0
 462 267 391 194 373 172 c 0
 319 106 275 20 258 16 c 0
 246 13 239 15 223 26 c 0
 204 39 201 44 201 56 c 0
 201 64 202 66 209 76 c 0
 210 77 267 167 305 215 c 0
 311 223 319 232 323 237 c 0
 330 247 388 307 399 315 c 2
 406 321 l 1
 398 328 l 2
 382 343 295 448 294 449 c 0
 244 514 228 533 216 533 c 0
31 539 m 0
 30 596 38 597 65 602 c 0
 74 604 83 606 85 606 c 0
 89 606 96 599 96 596 c 0
 96 595 97 594 98 594 c 0
 102 594 107 547 111 544 c 0
 116 541 105 361 106 234 c 0
 106 120 102 61 91 51 c 0
 79 40 67 37 56 43 c 0
 44 48 34 48 30 52 c 0
 21 64 18 69 21 89 c 0
 22 93 31 514 31 539 c 0
EndSplineSet
Ligature2: "liga" bar greater
EndChar

StartChar: less_bar
Encoding: 1114131 -1 119
Width: 554
VWidth: 171
Flags: W
LayerCount: 2
Fore
SplineSet
113 295 m 0
 122 295 183 234 184 225 c 0
 184 224 224 171 248 134 c 0
 269 102 276 93 285 76 c 0
 291 65 296 59 299 57 c 0
 312 51 317 30 310 16 c 0
 308 12 305 7 305 4 c 0
 305 -1 295 -12 290 -12 c 0
 289 -12 288 -13 288 -14 c 0
 288 -17 278 -20 272 -20 c 0
 265 -20 245 -10 239 -4 c 0
 225 10 228 34 137 154 c 0
 107 193 97 204 80 218 c 0
 62 233 34 258 34 261 c 0
 34 262 31 267 27 271 c 0
 16 283 18 290 33 321 c 0
 46 347 61 372 73 386 c 0
 77 391 83 397 86 401 c 0
 94 413 137 460 165 488 c 0
 275 598 245 606 286 629 c 0
 294 634 295 634 314 627 c 0
 336 619 338 616 338 601 c 0
 338 559 272 483 244 454 c 0
 243 453 88 295 113 295 c 0
470 625 m 0
 500 629 503 627 509 599 c 0
 518 556 509 456 508 455 c 0
 503 447 482 15 478 14 c 0
 477 14 476 9 476 5 c 0
 476 -13 458 -28 441 -24 c 0
 422 -20 401 -15 397 1 c 0
 394 12 413 242 413 258 c 0
 413 259 418 368 420 377 c 0
 425 409 434 577 435 579 c 0
 439 585 434 598 443 611 c 0
 449 620 454 623 470 625 c 0
EndSplineSet
Ligature2: "liga" less bar
EndChar

StartChar: u1F382
Encoding: 127874 127874 120
Width: 684
VWidth: 931
Flags: W
LayerCount: 2
Fore
SplineSet
75 325 m 1
 53 324 36 336 36 336 c 0
 36 337 33 340 30 343 c 0
 18 354 16 384 26 395 c 0
 31 400 36 423 39 425 c 0
 45 428 36 436 61 442 c 0
 67 443 67 444 88 462 c 0
 116 487 162 482 172 468 c 0
 178 459 182 473 203 475 c 0
 210 476 214 476 213 478 c 0
 212 479 213 479 215 478 c 0
 217 476 220 475 225 476 c 0
 242 479 241 477 240 494 c 0
 239 505 240 512 242 516 c 0
 246 524 249 535 252 535 c 0
 253 535 254 536 254 537 c 0
 254 544 281 566 295 569 c 0
 309 573 310 573 320 574 c 0
 329 575 331 575 332 580 c 0
 334 587 341 595 341 598 c 0
 341 601 362 636 362 636 c 0
 364 638 385 665 420 681 c 0
 433 687 437 689 441 689 c 0
 447 689 444 693 457 694 c 0
 473 696 488 704 494 703 c 0
 515 701 516 713 526 715 c 0
 540 718 544 705 548 705 c 0
 551 705 548 700 550 692 c 0
 553 682 546 663 550 653 c 0
 554 643 548 648 544 638 c 0
 543 635 541 634 539 634 c 0
 537 634 532 633 529 632 c 0
 524 631 522 632 517 637 c 0
 509 645 488 655 480 653 c 0
 477 652 469 651 463 650 c 0
 417 643 388 602 388 602 c 0
 387 602 386 600 386 598 c 0
 386 593 374 585 374 578 c 0
 374 576 376 574 380 574 c 0
 395 574 424 563 427 556 c 0
 427 555 429 555 430 555 c 0
 435 555 447 536 447 533 c 0
 447 533 458 515 456 493 c 0
 453 471 453 470 462 469 c 0
 471 468 509 475 511 470 c 0
 512 466 534 462 550 462 c 0
 578 462 588 457 624 422 c 0
 633 414 639 405 639 403 c 0
 639 401 641 398 642 397 c 0
 649 390 637 339 637 339 c 0
 636 339 635 337 635 336 c 0
 635 328 606 315 606 313 c 0
 606 312 603 311 601 311 c 0
 592 311 597 307 577 306 c 0
 569 306 578 304 561 236 c 0
 561 235 532 124 532 120 c 0
 532 119 518 36 523 30 c 0
 525 28 525 15 523 12 c 0
 521 9 503 1 498 1 c 0
 488 1 473 4 462 1 c 0
 444 -4 432 12 432 7 c 0
 432 7 410 -3 400 5 c 0
 393 10 385 10 378 6 c 0
 371 2 350 2 347 6 c 0
 344 9 337 10 337 7 c 0
 337 4 315 -5 307 -5 c 0
 290 -5 291 16 275 6 c 0
 266 0 238 0 238 6 c 0
 238 21 199 -13 179 0 c 0
 168 7 157 -8 150 -4 c 0
 149 -3 137 0 137 5 c 0
 137 8 117 21 109 70 c 0
 106 89 103 90 103 98 c 0
 103 106 96 131 93 175 c 0
 93 176 86 244 77 307 c 2
 75 325 l 1
100 398 m 0
 95 398 101 392 86 392 c 0
 77 392 76 392 73 385 c 0
 68 376 69 372 74 370 c 0
 79 368 96 368 103 370 c 0
 109 371 110 370 117 351 c 0
 119 346 123 343 123 347 c 0
 123 349 144 374 156 362 c 0
 158 360 159 359 160 359 c 0
 161 359 164 356 167 352 c 0
 179 336 187 355 196 354 c 0
 197 354 200 353 202 353 c 0
 204 353 206 352 206 350 c 0
 206 341 224 348 224 351 c 0
 224 352 226 353 228 353 c 0
 228 353 260 363 263 355 c 0
 263 354 265 353 266 353 c 0
 273 353 269 333 308 352 c 0
 324 359 338 361 343 356 c 0
 345 354 347 353 348 353 c 0
 349 353 351 352 351 351 c 0
 351 351 351 342 368 350 c 2
 378 354 l 1
 362 363 362 363 368 374 c 0
 373 383 376 386 383 382 c 0
 399 372 399 373 395 367 c 2
 392 362 l 1
 402 364 407 364 411 362 c 0
 417 359 424 353 424 350 c 0
 424 346 427 345 430 347 c 0
 434 350 449 352 458 356 c 0
 479 366 489 345 489 345 c 0
 489 342 502 345 507 349 c 0
 514 354 532 355 532 351 c 0
 532 342 545 337 557 348 c 0
 570 359 581 353 588 369 c 0
 593 383 593 385 579 398 c 0
 564 413 560 415 538 416 c 0
 504 418 510 425 478 422 c 0
 436 418 431 437 406 430 c 0
 378 423 376 437 348 432 c 0
 329 429 328 433 315 429 c 0
 288 419 286 437 274 429 c 0
 267 425 250 424 244 429 c 0
 238 433 208 433 204 429 c 0
 203 427 200 426 199 426 c 0
 197 426 196 425 196 424 c 0
 196 421 175 412 170 413 c 0
 162 415 157 416 157 418 c 0
 157 419 155 420 154 420 c 0
 151 420 143 428 143 431 c 0
 143 439 110 431 106 409 c 0
 105 403 102 398 100 398 c 0
158 204 m 0
 143 343 148 343 148 343 c 0
 147 343 141 332 133 328 c 0
 127 325 126 325 133 289 c 0
 140 253 143 211 155 146 c 0
 155 145 171 51 171 51 c 0
 171 47 172 46 172 46 c 1
 172 47 175 48 176 48 c 0
 183 48 171 97 171 110 c 0
 171 122 167 127 163 157 c 0
 162 166 160 188 158 204 c 0
465 243 m 0
 465 251 471 259 471 271 c 0
 471 290 486 310 473 322 c 0
 464 332 466 338 461 336 c 0
 444 328 444 328 443 327 c 0
 442 325 437 325 429 325 c 0
 417 325 417 325 410 333 c 0
 398 346 397 343 397 311 c 0
 397 273 392 245 390 216 c 0
 378 72 379 75 371 57 c 0
 368 49 369 49 382 54 c 0
 401 61 408 47 424 52 c 0
 432 55 432 55 435 74 c 0
 444 135 445 145 445 148 c 0
 445 161 465 241 465 243 c 0
243 195 m 2
 243 274 243 339 242 339 c 0
 240 339 217 322 201 330 c 0
 187 337 184 323 171 323 c 0
 167 323 167 323 168 320 c 0
 169 319 177 256 177 255 c 0
 178 220 204 59 204 57 c 0
 205 48 205 39 205 39 c 0
 206 38 225 50 236 50 c 2
 243 50 l 1
 243 195 l 2
340 331 m 0
 334 331 337 343 318 332 c 0
 287 314 275 320 271 322 c 0
 265 325 264 324 268 320 c 0
 274 314 266 44 277 47 c 0
 286 50 303 48 303 44 c 0
 303 43 306 43 310 43 c 0
 314 43 317 43 317 44 c 0
 317 47 341 56 349 56 c 2
 356 56 l 1
 355 81 l 2
 354 153 367 256 368 257 c 0
 368 257 371 281 380 320 c 0
 381 324 381 329 381 329 c 0
 381 329 351 319 344 328 c 0
 343 330 341 331 340 331 c 0
519 266 m 0
 519 275 535 311 527 311 c 0
 525 311 522 315 518 320 c 2
 512 329 l 1
 504 324 l 2
 497 319 497 320 493 292 c 0
 493 290 484 239 480 228 c 0
 479 226 466 180 449 50 c 1
 459 51 l 2
 471 53 471 53 471 63 c 0
 471 75 477 100 477 111 c 0
 477 135 519 264 519 266 c 0
317 410 m 0
 317 416 331 424 335 424 c 0
 338 424 349 410 349 407 c 0
 349 403 334 392 329 392 c 0
 325 392 317 405 317 410 c 0
282 386 m 1
 261 398 262 401 269 411 c 0
 273 416 277 420 278 420 c 0
 282 420 297 409 297 406 c 0
 297 404 293 399 289 394 c 2
 282 386 l 1
416 410 m 0
 421 418 424 418 435 411 c 0
 448 403 445 400 433 386 c 1
 424 391 l 2
 413 397 411 401 416 410 c 0
220 407 m 0
 225 411 230 414 232 414 c 0
 235 414 250 393 250 390 c 0
 250 389 245 385 239 381 c 0
 226 373 222 374 215 385 c 0
 208 396 209 399 220 407 c 0
537 407 m 0
 551 410 553 409 555 394 c 0
 556 386 556 386 542 384 c 0
 534 383 532 385 530 395 c 0
 529 403 530 405 537 407 c 0
104 395 m 0
 108 404 108 404 127 395 c 1
 123 387 l 2
 119 378 119 378 109 382 c 0
 101 385 100 385 104 395 c 0
154 395 m 0
 162 397 163 396 165 390 c 0
 167 382 163 378 155 379 c 0
 148 380 148 380 148 387 c 0
 148 393 149 394 154 395 c 0
499 393 m 0
 503 401 513 393 509 388 c 0
 504 382 495 386 499 393 c 0
495 375 m 0
 500 383 499 383 514 374 c 0
 522 369 522 367 515 359 c 2
 509 353 l 1
 502 357 l 2
 491 364 490 367 495 375 c 0
EndSplineSet
EndChar

StartChar: two
Encoding: 50 50 121
Width: 461
VWidth: 797
Flags: W
LayerCount: 2
Fore
SplineSet
388 328 m 0
 388 325 347 271 347 270 c 0
 347 264 255 173 249 166 c 0
 237 152 167 81 152 68 c 2
 142 59 l 1
 152 61 l 2
 158 62 165 62 168 62 c 0
 170 62 359 58 363 56 c 0
 372 52 380 58 382 55 c 0
 383 53 404 54 404 48 c 0
 404 47 411 38 417 32 c 0
 428 20 414 8 414 -3 c 0
 414 -24 380 -31 380 -29 c 0
 380 -28 342 -19 305 -22 c 0
 266 -25 278 -19 244 -20 c 0
 142 -20 141 -20 133 -22 c 0
 118 -27 88 -27 85 -29 c 0
 84 -30 84 -30 73 -30 c 0
 73 -30 42 -16 37 -11 c 0
 30 -4 22 17 22 26 c 0
 22 29 21 32 20 33 c 0
 17 35 30 54 30 58 c 0
 30 63 141 171 142 172 c 0
 152 183 181 209 232 265 c 0
 239 273 282 312 293 331 c 0
 295 334 296 336 297 336 c 0
 299 336 355 412 325 487 c 0
 324 490 323 494 324 495 c 0
 325 497 316 511 311 514 c 0
 306 517 285 522 271 524 c 0
 253 527 212 519 195 509 c 0
 184 502 164 496 155 488 c 0
 114 452 88 426 88 427 c 0
 88 433 86 417 75 426 c 0
 60 437 43 438 38 452 c 0
 35 460 36 462 40 474 c 0
 47 494 52 500 80 527 c 0
 128 573 199 601 230 603 c 0
 231 603 281 606 286 607 c 0
 287 607 287 606 287 605 c 0
 287 604 289 603 291 603 c 0
 296 603 330 595 331 593 c 0
 335 588 338 592 364 574 c 0
 378 564 389 551 388 547 c 0
 388 546 414 494 409 489 c 0
 406 486 417 484 414 422 c 0
 413 405 412 390 411 389 c 0
 409 387 399 341 391 333 c 0
 390 332 388 329 388 328 c 0
EndSplineSet
EndChar

StartChar: period
Encoding: 46 46 122
Width: 176
VWidth: 153
Flags: W
LayerCount: 2
Fore
SplineSet
50 95 m 0
 73 116 79 116 97 101 c 0
 103 96 109 93 111 93 c 0
 116 93 125 84 125 80 c 0
 125 76 145 49 131 23 c 0
 118 -3 108 -15 100 -16 c 0
 94 -17 85 -34 56 -23 c 0
 34 -16 32 -13 24 11 c 0
 16 35 24 27 24 43 c 0
 24 46 26 56 28 64 c 0
 32 79 34 80 50 95 c 0
EndSplineSet
EndChar

StartChar: comma
Encoding: 44 44 123
Width: 218
VWidth: 172
Flags: W
LayerCount: 2
Fore
SplineSet
140 93 m 0
 156 97 163 86 171 59 c 0
 180 29 180 29 174 -14 c 0
 167 -59 127 -116 127 -117 c 0
 124 -125 89 -162 83 -163 c 0
 73 -165 58 -168 58 -168 c 0
 52 -171 20 -148 20 -132 c 0
 21 -121 26 -117 25 -112 c 0
 23 -106 35 -90 42 -90 c 0
 49 -90 75 -54 85 -29 c 0
 106 24 83 48 95 71 c 0
 98 76 101 80 102 81 c 0
 104 82 131 91 140 93 c 0
EndSplineSet
EndChar

StartChar: semicolon
Encoding: 59 59 124
Width: 225
VWidth: 657
Flags: W
LayerCount: 2
Fore
SplineSet
173 370 m 0
 173 367 158 351 159 351 c 0
 165 351 145 341 140 337 c 0
 131 328 117 326 96 332 c 0
 72 338 79 355 72 355 c 0
 66 355 64 389 63 391 c 0
 62 393 65 411 67 411 c 0
 69 411 68 418 77 428 c 0
 80 432 83 436 83 437 c 0
 83 440 110 460 116 462 c 0
 127 465 142 454 147 454 c 0
 153 454 167 448 171 444 c 0
 195 415 182 386 178 380 c 0
 175 375 173 371 173 370 c 0
121 91 m 0
 130 93 158 101 162 84 c 0
 164 77 164 85 171 53 c 0
 176 29 177 8 173 3 c 0
 170 -2 162 -47 158 -52 c 0
 158 -52 132 -117 119 -136 c 0
 110 -150 110 -155 106 -156 c 0
 104 -157 103 -158 103 -159 c 0
 103 -162 90 -169 81 -176 c 0
 74 -182 55 -182 47 -176 c 0
 44 -174 39 -171 35 -169 c 0
 20 -162 18 -137 23 -131 c 0
 29 -124 28 -105 44 -97 c 0
 52 -93 53 -92 64 -69 c 0
 105 17 79 47 93 75 c 0
 98 85 102 87 121 91 c 0
EndSplineSet
EndChar

StartChar: colon
Encoding: 58 58 125
Width: 173
VWidth: 618
Flags: W
LayerCount: 2
Fore
SplineSet
60 485 m 0
 72 493 85 485 98 485 c 0
 110 486 121 479 121 472 c 0
 121 470 122 469 123 469 c 0
 123 469 137 459 132 433 c 0
 129 418 108 378 93 378 c 0
 84 378 80 373 73 371 c 0
 62 368 56 370 39 382 c 0
 30 389 22 395 21 396 c 0
 14 407 43 474 60 485 c 0
37 141 m 0
 40 141 52 158 61 162 c 0
 79 170 116 154 118 148 c 0
 119 146 122 143 124 141 c 0
 133 134 135 90 106 75 c 0
 98 71 96 62 92 62 c 0
 91 62 89 61 89 60 c 0
 89 57 78 54 70 54 c 0
 66 54 61 55 58 57 c 0
 55 59 50 61 47 62 c 0
 41 64 19 75 21 108 c 0
 22 117 33 141 37 141 c 0
EndSplineSet
EndChar

StartChar: quoteright
Encoding: 8217 8217 126
Width: 205
VWidth: 824
Flags: W
LayerCount: 2
Fore
SplineSet
64 686 m 0
 82 723 99 757 123 759 c 0
 127 759 158 740 163 734 c 0
 164 732 170 711 155 689 c 0
 154 688 102 592 97 559 c 0
 94 541 93 535 62 539 c 0
 16 545 32 557 24 557 c 0
 22 557 20 568 20 577 c 0
 21 592 36 629 64 686 c 0
EndSplineSet
EndChar

StartChar: quoteleft
Encoding: 8216 8216 127
Width: 202
VWidth: 825
Flags: W
LayerCount: 2
Fore
SplineSet
24 717 m 0
 33 753 35 752 71 743 c 0
 126 729 106 706 128 687 c 0
 132 684 145 648 146 638 c 0
 147 631 165 563 162 534 c 0
 160 510 160 510 147 499 c 0
 145 497 136 496 122 496 c 0
 101 496 100 496 93 502 c 0
 82 511 81 513 79 542 c 0
 77 591 63 643 48 659 c 0
 39 669 37 673 38 674 c 0
 39 675 38 675 37 675 c 0
 36 675 34 676 34 677 c 0
 34 681 29 680 23 692 c 0
 19 699 19 699 24 717 c 0
EndSplineSet
EndChar

StartChar: three
Encoding: 51 51 128
Width: 480
VWidth: 786
Flags: W
LayerCount: 2
Fore
SplineSet
352 158 m 0
 352 167 357 181 358 203 c 0
 358 223 352 268 348 275 c 0
 344 282 325 292 296 302 c 0
 263 314 253 316 230 313 c 0
 219 312 208 310 205 309 c 0
 196 306 190 309 179 319 c 0
 158 338 158 341 163 366 c 0
 167 384 191 412 191 412 c 0
 197 420 217 449 224 456 c 0
 227 459 230 463 230 464 c 0
 230 466 255 501 261 507 c 0
 265 511 265 510 232 509 c 0
 195 508 162 506 139 503 c 0
 116 500 112 506 96 505 c 0
 67 505 62 507 57 530 c 0
 53 548 53 552 57 558 c 0
 68 574 95 571 108 578 c 0
 122 585 326 593 326 600 c 0
 326 601 328 602 330 601 c 0
 341 597 365 603 383 588 c 0
 384 587 387 585 389 584 c 0
 401 578 405 549 397 536 c 0
 395 533 394 529 394 527 c 0
 394 521 383 517 381 511 c 0
 380 509 379 507 378 507 c 0
 377 507 373 506 368 503 c 0
 358 498 356 496 304 430 c 0
 292 414 292 414 275 392 c 1
 281 391 287 390 287 388 c 0
 287 387 339 375 346 369 c 0
 351 366 371 360 374 356 c 0
 380 349 387 354 409 330 c 0
 422 315 422 315 427 298 c 0
 434 275 443 218 439 213 c 0
 436 210 438 178 436 162 c 0
 431 117 405 82 406 82 c 0
 408 82 384 47 375 36 c 0
 367 26 334 -9 278 -14 c 0
 271 -14 262 -16 256 -17 c 0
 231 -22 202 -18 167 -7 c 0
 104 13 82 20 52 70 c 0
 45 81 39 91 38 92 c 0
 37 92 12 139 23 161 c 0
 29 173 36 178 55 182 c 2
 72 185 l 1
 81 181 l 2
 86 179 90 175 91 173 c 0
 91 172 117 110 132 96 c 0
 139 89 157 80 185 70 c 2
 209 62 l 1
 236 63 l 2
 264 64 286 68 296 73 c 0
 315 83 352 142 352 158 c 0
EndSplineSet
EndChar

StartChar: quotesingle
Encoding: 39 39 129
Width: 149
VWidth: 781
Flags: W
LayerCount: 2
Fore
SplineSet
51 704 m 0
 70 707 87 706 91 703 c 0
 100 696 110 596 106 594 c 0
 105 593 104 571 104 546 c 0
 104 510 105 499 107 496 c 0
 112 490 107 477 100 475 c 0
 94 473 95 468 91 468 c 0
 89 468 88 466 87 464 c 0
 85 461 65 450 49 457 c 0
 42 460 29 474 28 481 c 0
 27 484 25 488 24 491 c 0
 19 502 26 609 21 655 c 0
 19 675 19 677 23 683 c 0
 33 701 34 702 51 704 c 0
EndSplineSet
EndChar

StartChar: quotedbl
Encoding: 34 34 130
Width: 263
VWidth: 780
Flags: W
LayerCount: 2
Fore
SplineSet
161 700 m 0
 183 708 191 708 198 701 c 0
 204 695 226 636 223 634 c 0
 220 632 223 625 220 621 c 0
 215 616 205 509 205 492 c 2
 205 474 l 1
 194 465 192 464 176 461 c 0
 151 457 139 460 133 467 c 0
 122 480 117 485 129 574 c 0
 136 624 138 644 132 657 c 0
 130 659 136 676 138 683 c 0
 140 692 142 693 161 700 c 0
26 622 m 0
 26 633 27 678 38 689 c 0
 44 695 44 695 66 695 c 0
 87 695 89 695 94 690 c 0
 102 683 105 677 104 668 c 0
 102 650 109 659 105 602 c 0
 104 584 103 551 102 526 c 0
 101 483 101 481 96 474 c 0
 91 466 90 466 61 461 c 0
 45 458 43 458 38 461 c 0
 21 472 19 482 21 532 c 0
 21 532 26 621 26 622 c 0
EndSplineSet
EndChar

StartChar: four
Encoding: 52 52 131
Width: 449
VWidth: 775
Flags: W
LayerCount: 2
Fore
SplineSet
323 43 m 0
 323 73 311 50 311 204 c 0
 311 240 311 275 311 280 c 0
 311 285 311 289 310 290 c 0
 307 293 263 291 249 287 c 0
 214 277 198 273 194 273 c 0
 185 273 132 248 87 255 c 0
 60 259 46 267 33 288 c 0
 6 330 28 398 29 399 c 0
 35 411 44 492 51 509 c 0
 56 522 55 569 72 588 c 0
 77 593 78 593 95 593 c 0
 136 593 136 587 136 531 c 0
 136 502 135 498 132 496 c 0
 126 492 132 488 115 419 c 0
 110 401 100 341 100 335 c 0
 100 329 136 340 198 357 c 0
 238 368 264 372 298 372 c 2
 316 372 l 1
 318 387 l 2
 318 389 324 467 315 549 c 0
 313 565 315 575 319 575 c 0
 321 575 318 579 319 579 c 0
 319 579 332 581 346 584 c 0
 383 591 386 592 397 536 c 0
 403 504 403 504 400 411 c 0
 399 381 398 349 397 339 c 0
 391 247 390 156 395 112 c 0
 397 97 401 66 404 44 c 2
 409 3 l 1
 404 -4 401 -7 392 -10 c 0
 380 -14 357 -19 351 -19 c 0
 349 -19 342 -14 337 -9 c 0
 331 -4 323 4 323 43 c 0
EndSplineSet
EndChar

StartChar: five
Encoding: 53 53 132
Width: 522
VWidth: 800
Flags: W
LayerCount: 2
Fore
SplineSet
90 18 m 0
 82 18 40 62 40 65 c 0
 40 68 33 72 31 80 c 0
 29 88 26 88 26 94 c 0
 26 96 25 104 23 110 c 0
 15 134 30 153 33 177 c 0
 35 190 37 192 51 192 c 0
 68 192 72 189 72 176 c 0
 72 169 73 164 75 161 c 0
 82 154 91 127 111 105 c 0
 117 98 123 93 124 93 c 0
 128 93 133 84 170 73 c 0
 194 66 194 66 214 68 c 0
 252 72 263 82 282 97 c 0
 303 114 324 162 325 163 c 0
 327 166 359 293 318 339 c 0
 278 387 198 339 190 330 c 0
 182 321 144 314 138 320 c 0
 136 322 133 323 131 323 c 0
 125 323 120 329 112 344 c 0
 101 366 101 367 107 504 c 0
 110 562 111 584 121 589 c 0
 123 590 172 594 178 589 c 0
 182 585 201 587 246 591 c 0
 342 596 397 599 436 610 c 0
 462 617 467 604 468 602 c 0
 470 594 477 594 478 582 c 0
 479 577 480 572 481 570 c 0
 486 561 474 541 460 535 c 0
 415 516 214 511 195 504 c 0
 187 501 187 501 186 456 c 0
 185 425 186 418 189 423 c 0
 191 426 219 435 236 438 c 0
 261 443 302 440 315 433 c 0
 320 430 327 431 335 427 c 0
 338 425 340 424 341 424 c 0
 342 424 369 410 387 384 c 0
 394 374 404 355 404 351 c 0
 404 350 404 348 405 348 c 0
 406 348 406 349 415 315 c 0
 422 292 418 189 410 170 c 0
 406 160 402 148 403 147 c 0
 406 142 382 91 370 75 c 0
 367 71 364 68 364 67 c 0
 364 64 330 32 325 30 c 0
 323 29 321 27 321 26 c 0
 321 26 280 -17 190 -13 c 0
 142 -11 91 18 90 18 c 0
EndSplineSet
EndChar

StartChar: six
Encoding: 54 54 133
Width: 461
VWidth: 804
Flags: W
LayerCount: 2
Fore
SplineSet
385 58 m 0
 385 49 334 6 331 6 c 0
 330 6 297 -15 274 -20 c 0
 248 -27 205 -37 156 -15 c 0
 140 -7 113 7 104 14 c 0
 77 35 48 80 39 113 c 0
 37 120 35 127 34 129 c 0
 20 155 18 241 21 266 c 0
 21 268 37 389 70 448 c 0
 85 474 113 524 150 557 c 0
 164 569 184 583 187 583 c 0
 188 583 216 605 232 610 c 0
 238 612 249 611 277 606 c 0
 284 605 298 594 298 589 c 0
 298 582 308 590 299 546 c 0
 297 536 278 540 272 535 c 0
 269 533 264 531 259 531 c 0
 248 531 238 524 207 497 c 0
 173 467 157 444 141 403 c 0
 136 389 130 375 128 372 c 0
 111 336 100 252 104 252 c 0
 106 252 213 300 273 297 c 0
 303 295 316 292 339 280 c 0
 350 274 361 270 362 270 c 0
 366 270 393 243 394 238 c 0
 395 235 398 231 401 228 c 0
 403 226 426 202 420 141 c 0
 417 118 401 78 388 64 c 0
 386 62 385 60 385 58 c 0
216 208 m 0
 215 208 112 175 108 164 c 0
 107 160 121 123 130 106 c 0
 167 41 274 25 328 120 c 0
 356 171 329 239 216 208 c 0
EndSplineSet
EndChar

StartChar: seven
Encoding: 55 55 134
Width: 442
VWidth: 783
Flags: W
LayerCount: 2
Fore
SplineSet
399 527 m 0
 385 504 l 0
 385 502 336 434 297 319 c 0
 290 299 290 309 283 280 c 0
 276 251 268 230 262 202 c 0
 262 200 225 31 210 -1 c 0
 198 -29 198 -29 196 -29 c 0
 189 -29 189 -49 158 -32 c 0
 123 -13 119 -7 135 25 c 0
 157 67 177 214 187 235 c 0
 191 243 216 347 223 358 c 0
 225 361 229 377 241 401 c 0
 245 410 249 416 249 417 c 0
 249 421 294 507 293 509 c 0
 292 510 139 515 121 511 c 0
 113 509 102 508 96 508 c 0
 79 508 93 507 60 505 c 0
 31 504 29 506 22 539 c 0
 18 559 20 564 31 573 c 0
 44 584 97 589 102 590 c 0
 133 593 133 594 133 593 c 0
 133 592 149 591 168 591 c 0
 278 590 379 589 379 585 c 0
 379 584 380 583 382 583 c 0
 384 583 385 582 385 581 c 0
 385 580 389 578 393 575 c 0
 402 569 403 568 402 550 c 0
 401 528 401 527 399 527 c 0
EndSplineSet
EndChar

StartChar: eight
Encoding: 56 56 135
Width: 421
VWidth: 787
Flags: W
LayerCount: 2
Fore
SplineSet
65 17 m 0
 56 17 28 66 28 75 c 0
 28 77 27 81 25 82 c 0
 20 87 18 133 22 162 c 0
 23 170 36 205 39 208 c 0
 43 212 52 239 66 261 c 0
 76 277 110 312 126 324 c 2
 133 330 l 1
 123 336 l 1
 -13 420 78 527 93 540 c 0
 93 540 117 561 127 569 c 0
 139 579 176 596 185 596 c 0
 191 596 213 607 248 597 c 0
 275 589 289 574 289 574 c 0
 292 573 311 543 311 539 c 0
 311 536 313 541 319 535 c 0
 321 533 323 531 323 532 c 0
 323 539 346 501 352 470 c 0
 360 430 356 420 350 402 c 0
 345 387 342 381 338 378 c 0
 329 371 325 360 303 342 c 0
 294 335 287 330 287 329 c 0
 287 328 350 277 350 269 c 0
 350 268 368 241 373 218 c 0
 380 183 380 183 381 181 c 0
 383 177 379 140 374 125 c 0
 371 114 351 69 347 65 c 0
 345 63 339 56 335 50 c 0
 321 30 285 4 259 -4 c 0
 132 -42 67 17 65 17 c 0
237 512 m 0
 229 521 228 521 220 521 c 0
 209 521 196 518 190 515 c 0
 167 503 135 471 130 454 c 0
 127 446 134 429 144 419 c 0
 152 411 206 378 211 378 c 0
 212 378 257 403 269 420 c 0
 278 432 270 470 261 475 c 0
 254 479 252 485 252 494 c 0
 252 503 246 506 246 504 c 0
 246 503 242 507 237 512 c 0
229 272 m 0
 211 286 213 286 193 273 c 0
 161 252 115 211 104 138 c 2
 100 113 l 1
 106 99 l 2
 116 73 126 68 168 66 c 0
 210 64 239 71 259 87 c 0
 269 95 287 119 294 136 c 0
 299 147 300 165 296 188 c 0
 293 205 290 225 229 272 c 0
EndSplineSet
EndChar

StartChar: nine
Encoding: 57 57 136
Width: 445
VWidth: 811
Flags: W
LayerCount: 2
Fore
SplineSet
158 601 m 0
 189 619 238 619 239 619 c 0
 271 611 298 603 311 591 c 0
 315 587 325 585 327 580 c 0
 328 578 329 577 330 577 c 0
 332 577 336 573 352 555 c 0
 357 549 365 540 369 536 c 0
 376 529 376 527 377 515 c 2
 378 502 l 1
 390 496 l 2
 396 493 401 490 402 489 c 0
 402 489 409 469 400 451 c 0
 397 445 395 439 395 438 c 0
 395 434 390 429 389 421 c 0
 385 401 358 347 352 317 c 0
 351 314 286 90 280 62 c 0
 271 18 263 2 263 2 c 0
 263 2 260 -15 247 -21 c 0
 239 -24 240 -24 215 -16 c 2
 190 -8 l 1
 187 -2 184 6 181 12 c 1
 189 37 l 2
 199 74 204 77 206 99 c 0
 207 115 248 249 250 253 c 0
 253 258 259 278 259 283 c 0
 259 288 272 327 271 326 c 0
 218 296 166 289 165 288 c 0
 161 286 120 287 108 290 c 0
 12 314 9 415 31 462 c 0
 32 464 35 472 38 479 c 0
 65 545 134 592 146 595 c 0
 149 596 154 599 158 601 c 0
309 468 m 0
 289 522 245 547 207 535 c 0
 174 524 105 477 103 409 c 0
 102 384 103 367 144 368 c 0
 194 370 267 408 298 444 c 0
 312 461 312 461 309 468 c 0
EndSplineSet
EndChar

StartChar: zero
Encoding: 48 48 137
Width: 484
VWidth: 774
Flags: W
LayerCount: 2
Fore
SplineSet
20 252 m 0
 20 340 35 361 35 378 c 0
 35 392 62 467 74 488 c 0
 99 530 99 531 107 539 c 0
 112 545 116 551 116 552 c 0
 116 555 141 579 143 579 c 0
 146 579 164 592 177 595 c 0
 200 602 227 592 228 592 c 0
 234 592 257 581 257 578 c 0
 257 578 261 578 267 572 c 0
 279 559 327 555 336 545 c 0
 343 537 362 534 386 502 c 0
 438 435 443 310 443 308 c 0
 442 293 445 294 443 255 c 0
 441 225 441 224 430 191 c 0
 419 157 412 143 412 142 c 0
 412 141 369 63 323 40 c 0
 299 27 299 27 298 27 c 0
 293 27 272 15 266 15 c 0
 250 15 267 9 215 9 c 0
 195 9 168 9 121 38 c 0
 107 47 74 80 70 89 c 0
 67 96 47 129 47 134 c 0
 47 141 20 180 20 252 c 0
299 472 m 0
 243 503 209 472 189 506 c 0
 185 512 162 482 162 482 c 0
 147 460 127 405 123 397 c 0
 122 395 88 303 108 204 c 0
 112 184 118 151 154 116 c 0
 170 101 174 99 185 95 c 0
 251 74 324 121 353 213 c 2
 360 236 l 1
 360 277 l 2
 360 335 353 382 335 426 c 0
 324 454 318 461 299 472 c 0
EndSplineSet
EndChar

StartChar: _acute_mark
Encoding: 1114132 -1 152
Width: 0
VWidth: 0
Flags: HW
LayerCount: 2
Fore
SplineSet
-81.5 712 m 2
 -81.5 697 -49.5 681 -48.5 681 c 0
 -32.5 681 -17.5 711 -6.5 713 c 1
 5.5 722 14.5 742 30.5 750 c 0
 37.5 754 56.5 772 61.5 779 c 0
 64.5 795 81.5 794 81.5 825 c 0
 81.5 827 81.5 828 77.5 832 c 0
 60.5 849 49.5 851 47.5 853 c 0
 34.5 853 -12.5 800 -20.5 798 c 0
 -25.5 793 -30.5 784 -38.5 779 c 1
 -50.5 767 -68.5 742 -69.5 740 c 0
 -71.5 730 -81.5 726 -81.5 713 c 1
 -81.5 712 l 2
EndSplineSet
EndChar

StartChar: _grave_mark
Encoding: 1114133 -1 153
Width: 0
VWidth: 0
Flags: HW
LayerCount: 2
Fore
SplineSet
81.5 712 m 2
 81.5 697 49.5 681 48.5 681 c 0
 32.5 681 17.5 711 6.5 713 c 1
 -5.5 722 -14.5 742 -30.5 750 c 0
 -37.5 754 -56.5 772 -61.5 779 c 0
 -64.5 795 -81.5 794 -81.5 825 c 0
 -81.5 827 -81.5 828 -77.5 832 c 0
 -60.5 849 -49.5 851 -47.5 853 c 0
 -34.5 853 12.5 800 20.5 798 c 0
 25.5 793 30.5 784 38.5 779 c 1
 50.5 767 68.5 742 69.5 740 c 0
 71.5 730 81.5 726 81.5 713 c 1
 81.5 712 l 2
EndSplineSet
EndChar

StartChar: _ring_above_mark
Encoding: 1114134 -1 154
Width: 0
VWidth: 0
Flags: HW
LayerCount: 2
Fore
SplineSet
26 769 m 1
 27 769 l 2
 39 769 47 749 47 735 c 0
 47 716 32 687 21 676 c 0
 11 666 5 664 -33 647 c 1
 -33 657 -42 667 -42 657 c 1
 -48 663 -49 672 -49 685 c 0
 -49 707 -48 731 -30 753 c 0
 -25 759 -19 766 -11 766 c 0
 -6 766 -4 763 0 763 c 0
 4 765 20 768 26 769 c 1
100 692 m 1
 100 702 106 710 106 733 c 2
 106 734 l 2
 106 735 106 735 106 736 c 0
 106 744 104 765 103 771 c 0
 102 777 86 808 79 818 c 0
 76 821 64 829 50 837 c 1
 50 837 41 839 30 839 c 0
 4 839 -34 821 -34 820 c 2
 -34 820 -69 798 -79 783 c 0
 -80 782 -101 752 -105 698 c 0
 -106 688 -105 682 -106 678 c 0
 -105 673 -100 645 -98 638 c 0
 -94 627 -72 602 -65 598 c 0
 -53 592 -33 588 -28 588 c 0
 -10 588 27 604 28 604 c 0
 37 609 55 626 63 630 c 0
 69 634 95 672 100 692 c 1
EndSplineSet
EndChar

StartChar: _diaeresis_mark
Encoding: 1114135 -1 155
Width: 0
VWidth: 0
Flags: HW
LayerCount: 2
Fore
SplineSet
-109 661 m 0
 -98 661 -47 702 -47 710 c 0
 -47 711 -47 712 -47 712 c 2
 -47 718 -48 719 -59 739 c 0
 -74 764 -77 764 -86 764 c 0
 -87 764 -86 764 -87 764 c 0
 -96 764 -147 724 -147 696 c 0
 -147 695 -147 695 -147 694 c 0
 -147 691 -146 690 -134 680 c 0
 -119 665 -113 661 -109 661 c 0
32 687 m 0
 32 685 32 648 77 648 c 0
 80 648 90 648 106 655 c 0
 108 657 136 673 141 688 c 2
 141 688 147 714 147 715 c 0
 147 724 139 744 133 749 c 0
 127 753 113 757 86 765 c 1
 59 748 46 741 34 703 c 0
 32 697 32 692 32 687 c 0
EndSplineSet
EndChar

StartChar: _dot_above_mark
Encoding: 1114136 -1 156
Width: 0
VWidth: 0
Flags: HW
LayerCount: 2
Fore
SplineSet
-12 661 m 0
 -1 661 50 702 50 710 c 0
 50 711 50 712 50 712 c 2
 50 718 49 719 38 739 c 0
 23 764 20 764 11 764 c 0
 10 764 11 764 10 764 c 0
 1 764 -50 724 -50 696 c 0
 -50 695 -50 695 -50 694 c 0
 -50 691 -49 690 -37 680 c 0
 -22 665 -16 661 -12 661 c 0
EndSplineSet
EndChar

StartChar: _dot_below_mark
Encoding: 1114137 -1 157
Width: 0
VWidth: 0
Flags: HW
LayerCount: 2
Fore
SplineSet
-12 661 m 0
 -1 661 50 702 50 710 c 0
 50 711 50 712 50 712 c 2
 50 718 49 719 38 739 c 0
 23 764 20 764 11 764 c 0
 10 764 11 764 10 764 c 0
 1 764 -50 724 -50 696 c 0
 -50 695 -50 695 -50 694 c 0
 -50 691 -49 690 -37 680 c 0
 -22 665 -16 661 -12 661 c 0
EndSplineSet
EndChar

StartChar: _macron_below_mark
Encoding: 1114138 -1 158
Width: 0
VWidth: 0
Flags: HW
LayerCount: 2
Fore
SplineSet
137.590212411 773.680324847 m 1
 121.61015803 769.229138823 92.0670014023 761 67.5 761 c 0
 66.6394769033 761 -8.56304722266 764 -18.5 764 c 0
 -61.0430388093 764 -84.0346362368 756 -107.5 756 c 0
 -115.612805933 756 -117.240643442 749.945087594 -146.16808192 746.088095797 c 0
 -155.293840465 744.897779466 -159.864231441 743.494368539 -160.818969426 743.086395981 c 0
 -160.975124637 742.449413539 -161.499999808 739.733188757 -161.5 732 c 0
 -161.5 720.170711874 -161.143696522 717.271093959 -157.182596802 712.192905527 c 0
 -153.639361046 711.079028334 -150.609488883 708.905342022 -147.713500699 706.26156339 c 0
 -143.107140075 705.646664246 -129.462409464 704 -116.5 704 c 0
 -74.7429654845 704 -83.7180367093 711 -22.5 711 c 0
 10.6810329023 711 49.7899346729 709 71.5 709 c 2
 71.5 709 93.1854618777 709.116821018 100.062181362 709.781657489 c 0
 100.464093684 709.933924377 129.072804183 720.614040133 141.55502091 720.985740104 c 0
 144.050386758 721.525077039 147.181969276 723.501586818 149.052083205 724.916753186 c 0
 152.096994329 732.140509071 156.700216755 737.520942912 160.907463282 744.911568273 c 1
 157.306415179 750.939392376 144.493110597 766.27480274 137.590212411 773.680324847 c 1
EndSplineSet
EndChar

StartChar: _macron_mark
Encoding: 1114139 -1 159
Width: 0
VWidth: 0
Flags: HW
LayerCount: 2
Fore
SplineSet
137.590212411 773.680324847 m 1
 121.61015803 769.229138823 92.0670014023 761 67.5 761 c 0
 66.6394769033 761 -8.56304722266 764 -18.5 764 c 0
 -61.0430388093 764 -84.0346362368 756 -107.5 756 c 0
 -115.612805933 756 -117.240643442 749.945087594 -146.16808192 746.088095797 c 0
 -155.293840465 744.897779466 -159.864231441 743.494368539 -160.818969426 743.086395981 c 0
 -160.975124637 742.449413539 -161.499999808 739.733188757 -161.5 732 c 0
 -161.5 720.170711874 -161.143696522 717.271093959 -157.182596802 712.192905527 c 0
 -153.639361046 711.079028334 -150.609488883 708.905342022 -147.713500699 706.26156339 c 0
 -143.107140075 705.646664246 -129.462409464 704 -116.5 704 c 0
 -74.7429654845 704 -83.7180367093 711 -22.5 711 c 0
 10.6810329023 711 49.7899346729 709 71.5 709 c 2
 71.5 709 93.1854618777 709.116821018 100.062181362 709.781657489 c 0
 100.464093684 709.933924377 129.072804183 720.614040133 141.55502091 720.985740104 c 0
 144.050386758 721.525077039 147.181969276 723.501586818 149.052083205 724.916753186 c 0
 152.096994329 732.140509071 156.700216755 737.520942912 160.907463282 744.911568273 c 1
 157.306415179 750.939392376 144.493110597 766.27480274 137.590212411 773.680324847 c 1
EndSplineSet
EndChar

StartChar: _caron_mark
Encoding: 1114140 -1 160
Width: 0
VWidth: 608
Flags: HW
LayerCount: 2
Fore
SplineSet
84.7051276141 403.18481331 m 0
 86.1147646204 403.18481331 135.582820944 397.490419276 135.582820944 367.430843889 c 0
 135.582820944 333.334527526 115.916649273 313.283439803 70.7747891846 267.258040873 c 0
 44.4259122309 240.39345065 36.6995963912 232.121625842 34.9638721968 228.210291505 c 0
 31.6079106969 220.64786401 17.0045433964 206.634400602 12.463032203 203.556654642 c 0
 4.40528715507 194.373465679 -9.55410758158 194.373465679 -14.7380357894 194.373465679 c 0
 -24.0568452014 194.373465679 -47.2099546982 196.289440765 -54.9485701476 214.667380854 c 0
 -55.5174144518 215.595376389 -57.412159185 218.35498406 -58.5735981867 219.903763259 c 0
 -84.4515188516 253.953389627 -101.552195507 312.328748357 -113.104106541 324.906540533 c 0
 -113.451218015 325.258448012 -135.583007812 349.161336499 -135.583007812 368.928710938 c 0
 -135.583007812 382.022204687 -132.786522545 384.818689955 -119.405145312 398.200067187 c 0
 -110.019025415 407.586187085 -103.200527294 414.404685206 -91.7187715463 414.404685206 c 0
 -63.6168644236 414.404685206 -32.0627604184 367.854109932 -31.1106867607 358.146276956 c 0
 -30.1576680445 355.326612525 -9.12732509193 311.084159611 -8.90075919789 310.610918643 c 1
 8.91371143177 330.004321856 10.7962035733 331.523216745 13.97710532 333.21592336 c 0
 26.2128529853 348.737762723 44.1437506041 362.66693042 51.5044578483 377.387653762 c 0
 58.2461037507 390.870312549 68.6302090308 403.18481331 84.7051276141 403.18481331 c 0
EndSplineSet
EndChar

StartChar: _circumflex_mark
Encoding: 1114141 -1 161
Width: 0
VWidth: 0
Flags: HW
LayerCount: 2
Fore
SplineSet
135.582820944 241.347476423 m 0
 135.582820944 210.94283932 85.3269705209 205.593507002 84.7051276141 205.593507002 c 0
 66.9781809355 205.593507002 56.5041920545 221.00247922 51.3897817203 231.624352341 c 0
 44.9499813696 244.998864314 25.4920940931 260.922745075 13.9021397703 275.657602914 c 0
 9.46918932953 278.179450376 3.65057606971 284.510996923 -8.90032502731 298.168308546 c 1
 -9.12767435506 297.693430736 -30.3082503453 252.667582963 -31.1548073292 250.453483467 c 0
 -32.2215681464 240.517751982 -63.8262144051 194.373635106 -91.7187715463 194.373635106 c 0
 -103.094018125 194.373635106 -108.679414586 199.924509632 -121.955709098 213.118746697 c 0
 -131.580345869 222.683896001 -135.583010856 226.661821518 -135.583010856 239.743054094 c 0
 -135.583010856 239.779013204 -135.583007812 239.814533419 -135.583007812 239.849609375 c 0
 -135.583007812 259.616986958 -113.451218456 283.519872144 -113.104106833 283.87177947 c 0
 -101.464546181 296.545047005 -84.5633861457 354.677136624 -58.6417665794 388.784261092 c 0
 -58.6024408525 388.836701959 -55.1772213312 393.56793047 -54.9196039515 394.179729415 c 0
 -52.479373987 399.974874604 -43.5140331047 414.404854634 -14.7380357894 414.404854634 c 0
 -2.05711831861 414.404854634 5.0121263609 413.936077667 22.087658355 396.646091467 c 0
 28.0682175209 390.590421548 33.6491014665 384.46709109 35.7088031545 378.852801245 c 0
 56.95751448 350.770454076 133.414514656 289.871199767 133.498983316 255.514363091 c 0
 135.582820344 243.505185069 135.582820344 243.505185069 135.582820944 241.347476423 c 0
EndSplineSet
EndChar

StartChar: _tilde_mark
Encoding: 1114142 -1 162
Width: 0
VWidth: 0
Flags: HW
LayerCount: 2
Fore
SplineSet
74.5932606431 159.723664242 m 0
 10.3700859891 159.723664242 -22.8401270953 210.725782554 -48.1952519421 210.725782554 c 0
 -80.372000308 210.725782554 -102.754574715 171.218011795 -121.617912437 161.786342934 c 0
 -121.986479222 161.602128743 -122.985710695 160.90273231 -123.447253545 160.573045965 c 0
 -130.710224531 152.501338806 -140.383326963 150.200195312 -148.924804688 150.200195312 c 0
 -161.940460309 150.200195312 -170.867219691 160.320964515 -178.879412597 169.404838265 c 0
 -187.127960381 178.756680834 -190.475586265 182.552072589 -190.475585938 195 c 0
 -190.475585938 210.414995003 -181.394903673 220.271118983 -177.4353857 224.166446296 c 0
 -172.213150851 234.225296919 -146.932492209 258.570994746 -138.352389129 264.457509337 c 0
 -133.058715409 268.476231451 -133.058715409 268.476231451 -101.772234823 287.25 c 1
 -101.001757857 287.25 l 1
 -93.534169264 290.885114714 -76.1716237133 298.299804688 -53.375 298.299804688 c 0
 12.9606209469 298.299804688 49.9158298349 246.860741835 70.2908219041 246.860741835 c 0
 75.0886474212 246.860741835 87.2113584296 252.082267097 99.849107241 266.924172148 c 1
 103.59674691 287.523826052 127.006886287 301.529993525 146.885203589 301.529993525 c 0
 147.247841509 301.529993525 147.40335648 301.477756092 147.40335648 301.477756092 c 2
 156.35696485 301.477756092 167.386871322 299.607627543 174.615711023 291.851397373 c 0
 176.590573108 290.927281692 181.910545881 287.970082633 184.745639817 281.861294751 c 1
 187.729358744 278.38004032 190.475031992 273.608781437 190.475031992 263.208967108 c 0
 190.475031992 261.111857277 190.30818773 238.819101894 183.282705465 229.755796698 c 0
 180.882340817 226.659178336 174.808181275 220.313685528 172.430221619 216.237110345 c 0
 160.238149606 194.899553194 109.926445956 159.723664242 74.5932606431 159.723664242 c 0
EndSplineSet
EndChar

StartChar: _breve_mark
Encoding: 1114143 -1 163
Width: -132
VWidth: 0
Flags: HW
LayerCount: 2
Fore
SplineSet
-114.94140625 87.8076171875 m 2
 -106.416015625 87.8076171875 -89.94140625 71.251953125 -89.94140625 42.3583984375 c 0
 -89.94140625 15.4208984375 -117.696289062 -25.423828125 -118.056640625 -25.9375 c 0
 -118.8671875 -27.0732421875 -167.157226562 -91.7080078125 -211.421875 -91.7080078125 c 0
 -214.19140625 -91.7080078125 -217.291015625 -91.6083984375 -221.03125 -91.490234375 c 2
 -221.137695312 -91.490234375 l 1
 -239.421875 -90.4736328125 -249.153320312 -89.9326171875 -270.630859375 -75.0888671875 c 0
 -275.595703125 -74.0068359375 -314.248046875 -38.2216796875 -323.83203125 -19.0478515625 c 1
 -333.158203125 -11.26953125 -350.05859375 21.39453125 -350.05859375 49.5830078125 c 0
 -350.05859375 55.822265625 -349.90234375 69.7392578125 -336.270507812 83.37109375 c 2
 -326.53515625 93.10546875 l 1
 -317.34765625 86.81640625 -315.265625 85.3916015625 -311.73828125 76.5546875 c 0
 -311.197265625 75.208984375 -307.872070312 72.56640625 -305.359375 62.517578125 c 1
 -304.849609375 61.923828125 l 1
 -296.979492188 46.2158203125 -261.6328125 -4.5244140625 -219.09375 -4.5244140625 c 0
 -185.7109375 -4.5244140625 -151.49609375 34.16796875 -150.900390625 34.94140625 c 0
 -123.856445312 70.09765625 -128.592773438 86.6865234375 -115.310546875 87.7919921875 c 2
 -115.125976562 87.8076171875 l 1
 -114.94140625 87.8076171875 l 2
EndSplineSet
EndChar

StartChar: dotlessi
Encoding: 305 305 164
Width: 227
Flags: HW
AnchorPoint: "above" 97.2024 341 basechar 0
LayerCount: 2
Fore
SplineSet
67 314 m 2
 72 321 l 1
 91 321 l 2
 107 321 111 320 116 317 c 0
 120 315 122 311 122 309 c 0
 122 308 136 269 128 222 c 0
 125 206 125 166 128 151 c 0
 133 119 129 99 139 80 c 1
 144 69 l 1
 139 59 137 53 133 52 c 0
 119 47 127 38 102 38 c 0
 84 38 62 38 56 112 c 0
 55 127 53 143 52 148 c 0
 48 165 51 292 67 314 c 2
EndSplineSet
EndChar

StartChar: _l_crossbar
Encoding: 1114145 -1 246
Width: 0
VWidth: -272
Flags: HW
LayerCount: 2
Fore
SplineSet
-20.5986328125 40.64453125 m 0
 -4.1015625 59.708984375 61.27734375 114.568359375 62.3662109375 115.482421875 c 0
 73.361328125 123.40234375 73.90625 123.859375 81.03125 122.005859375 c 0
 88.7998046875 119.38671875 91.2724609375 117.544921875 108.432617188 99.30859375 c 0
 121.190429688 85.2109375 123.958007812 79.701171875 123.008789062 69.7666015625 c 0
 122.506835938 61.513671875 115.522460938 54.3466796875 75.4013671875 18.0703125 c 0
 74.3115234375 17.15625 -46.3017578125 -95.798828125 -52.6435546875 -103.731445312 c 0
 -74.294921875 -131.037109375 -84.0908203125 -124.896484375 -102.58984375 -111.701171875 c 0
 -140.134765625 -85.7666015625 -114.081054688 -62.599609375 -117.938476562 -58.0029296875 c 0
 -123.72265625 -51.109375 -41.8037109375 15.0185546875 -20.5986328125 40.64453125 c 0
EndSplineSet
EndChar

StartChar: _cap_o_crossbar
Encoding: 1114146 -1 249
Width: 0
VWidth: -274
Flags: HW
LayerCount: 2
Fore
SplineSet
-21.0810546875 48.1318359375 m 0
 9.9091796875 99.36328125 127.39453125 267.149414062 129.352539062 269.946289062 c 0
 148.7734375 295.939453125 149.752929688 297.337890625 160.541992188 302.28515625 c 0
 172.149414062 306.659179688 175.586914062 306.336914062 198.0234375 294.793945312 c 0
 214.56640625 285.294921875 217.5234375 279.056640625 213.466796875 261.05859375 c 0
 210.548828125 246.431640625 197.662109375 226.283203125 124.892578125 118.87109375 c 0
 122.934570312 116.07421875 -96.8310546875 -213.474609375 -108.899414062 -234.196289062 c 0
 -150.16015625 -305.326171875 -164.065429688 -306.0078125 -189.918945312 -304.575195312 c 0
 -242.60546875 -303.107421875 -195.451171875 -234.021484375 -200.366210938 -230.580078125 c 0
 -207.739257812 -225.416992188 -61.2021484375 -19.6279296875 -21.0810546875 48.1318359375 c 0
EndSplineSet
EndChar

StartChar: _lc_o_crossbar
Encoding: 1114147 -1 250
Width: 0
VWidth: -273
Flags: HW
LayerCount: 2
Fore
SplineSet
-25.0859375 42.7216796875 m 0
 -1.8056640625 82.943359375 89.2451171875 212.977539062 90.7626953125 215.14453125 c 0
 105.999023438 235.16015625 106.756835938 236.243164062 116.224609375 239.303710938 c 0
 126.51171875 241.791015625 129.727539062 241.153320312 151.724609375 228.981445312 c 0
 168.046875 219.166992188 171.444335938 213.55859375 169.590820312 198.70703125 c 0
 168.435546875 186.596679688 158.631835938 170.852539062 102.604492188 87.3505859375 c 0
 101.086914062 85.1826171875 -67.5732421875 -171.379882812 -76.556640625 -187.697265625 c 0
 -107.243164062 -243.725585938 -120.048828125 -242.834960938 -144.139648438 -238.884765625 c 0
 -193.081054688 -232.069335938 -156.720703125 -178.3984375 -161.635742188 -174.95703125 c 0
 -169.008789062 -169.794921875 -55.0732421875 -10.5654296875 -25.0859375 42.7216796875 c 0
EndSplineSet
EndChar

StartChar: _bar_300
Encoding: 1114148 -1 255
Width: 0
VWidth: -271
Flags: HW
LayerCount: 2
Fore
SplineSet
13.283203125 44.0478515625 m 0
 38.17578125 48.0478515625 123.521484375 48.0478515625 124.943359375 48.0478515625 c 0
 138.45703125 47.0478515625 139.16796875 47.0478515625 143.434570312 41.0478515625 c 0
 147.702148438 34.0478515625 148.413085938 31.0478515625 149.8359375 6.0478515625 c 0
 150.546875 -12.9521484375 149.125 -18.9521484375 142.012695312 -25.9521484375 c 0
 136.323242188 -31.9521484375 126.366210938 -32.9521484375 72.3134765625 -34.9521484375 c 0
 70.8916015625 -34.9521484375 -94.1103515625 -43.9521484375 -104.067382812 -45.9521484375 c 0
 -138.205078125 -52.9521484375 -141.76171875 -41.9521484375 -147.451171875 -19.9521484375 c 0
 -159.541992188 24.0478515625 -124.692382812 25.0478515625 -124.692382812 31.0478515625 c 0
 -124.692382812 40.0478515625 -19.4326171875 38.0478515625 13.283203125 44.0478515625 c 0
EndSplineSet
EndChar

StartChar: _bar_220
Encoding: 1114149 -1 256
Width: 0
VWidth: -271
Flags: HW
LayerCount: 2
Fore
SplineSet
9.7412109375 44.0478515625 m 0
 27.9951171875 48.0478515625 90.58203125 48.0478515625 91.625 48.0478515625 c 0
 101.53515625 47.0478515625 102.056640625 47.0478515625 105.185546875 41.0478515625 c 0
 108.315429688 34.0478515625 108.836914062 31.0478515625 109.879882812 6.0478515625 c 0
 110.401367188 -12.9521484375 109.358398438 -18.9521484375 104.142578125 -25.9521484375 c 0
 99.9697265625 -31.9521484375 92.66796875 -32.9521484375 53.0302734375 -34.9521484375 c 0
 51.9873046875 -34.9521484375 -69.013671875 -43.9521484375 -76.3154296875 -45.9521484375 c 0
 -101.350585938 -52.9521484375 -103.958007812 -41.9521484375 -108.130859375 -19.9521484375 c 0
 -116.997070312 24.0478515625 -91.44140625 25.0478515625 -91.44140625 31.0478515625 c 0
 -91.44140625 40.0478515625 -14.2509765625 38.0478515625 9.7412109375 44.0478515625 c 0
EndSplineSet
EndChar

StartChar: _bar_480
Encoding: 1114150 -1 257
Width: 0
VWidth: -271
Flags: HW
LayerCount: 2
Fore
SplineSet
21.2529296875 44.0478515625 m 0
 61.0810546875 48.0478515625 197.633789062 48.0478515625 199.909179688 48.0478515625 c 0
 221.530273438 47.0478515625 222.66796875 47.0478515625 229.49609375 41.0478515625 c 0
 236.323242188 34.0478515625 237.461914062 31.0478515625 239.737304688 6.0478515625 c 0
 240.875 -12.9521484375 238.599609375 -18.9521484375 227.219726562 -25.9521484375 c 0
 218.116210938 -31.9521484375 202.185546875 -32.9521484375 115.702148438 -34.9521484375 c 0
 113.42578125 -34.9521484375 -150.576171875 -43.9521484375 -166.5078125 -45.9521484375 c 0
 -221.12890625 -52.9521484375 -226.818359375 -41.9521484375 -235.921875 -19.9521484375 c 0
 -255.266601562 24.0478515625 -199.5078125 25.0478515625 -199.5078125 31.0478515625 c 0
 -199.5078125 40.0478515625 -31.0927734375 38.0478515625 21.2529296875 44.0478515625 c 0
EndSplineSet
EndChar

StartChar: _eng_comma_uc
Encoding: 1114151 -1 265
Width: 0
VWidth: 84
Flags: HW
LayerCount: 2
Fore
SplineSet
140 223.6328125 m 0
 156 229.6328125 163 213.1328125 171 172.6328125 c 0
 180 127.6328125 180 127.6328125 174 63.1328125 c 0
 167 -4.3671875 127 -89.8671875 127 -91.3671875 c 0
 124 -103.3671875 89 -158.8671875 83 -160.3671875 c 0
 73 -163.3671875 58 -167.8671875 58 -167.8671875 c 2
 52 -172.3671875 20 -137.8671875 20 -113.8671875 c 0
 21 -97.3671875 26 -91.3671875 25 -83.8671875 c 0
 23 -74.8671875 35 -50.8671875 42 -50.8671875 c 0
 49 -50.8671875 75 3.1328125 85 40.6328125 c 0
 106 120.1328125 83 156.1328125 95 190.6328125 c 0
 98 198.1328125 101 204.1328125 102 205.6328125 c 0
 104 207.1328125 131 220.6328125 140 223.6328125 c 0
EndSplineSet
EndChar

StartChar: _eng_comma_lc
Encoding: 1114152 -1 266
Width: 0
VWidth: 50
Flags: HW
LayerCount: 2
Fore
SplineSet
119 171.379882812 m 0
 132.599609375 176.580078125 138.549804688 162.280273438 145.349609375 127.1796875 c 0
 153 88.1796875 153 88.1796875 147.900390625 32.2802734375 c 0
 141.950195312 -26.2197265625 107.950195312 -100.3203125 107.950195312 -101.620117188 c 0
 105.400390625 -112.020507812 75.650390625 -160.120117188 70.5498046875 -161.419921875 c 0
 62.0498046875 -164.020507812 49.2998046875 -167.919921875 49.2998046875 -167.919921875 c 2
 44.2001953125 -171.8203125 17 -141.919921875 17 -121.120117188 c 0
 17.849609375 -106.8203125 22.099609375 -101.620117188 21.25 -95.1201171875 c 0
 19.5498046875 -87.3203125 29.75 -66.5205078125 35.7001953125 -66.5205078125 c 0
 41.650390625 -66.5205078125 63.75 -19.7197265625 72.25 12.7802734375 c 0
 90.099609375 81.6796875 70.5498046875 112.879882812 80.75 142.780273438 c 0
 83.2998046875 149.280273438 85.849609375 154.479492188 86.7001953125 155.780273438 c 0
 88.400390625 157.080078125 111.349609375 168.780273438 119 171.379882812 c 0
EndSplineSet
EndChar

StartChar: _comic_eszett
Encoding: 1114153 -1 410
Width: 371
VWidth: 160
Flags: HW
LayerCount: 2
Fore
SplineSet
193.22265625 248.657226562 m 0
 183.908203125 248.657226562 168.474609375 247.137695312 160.788085938 247.154296875 c 0
 160.551757812 247.154296875 160.31640625 247.154296875 160.083007812 247.154296875 c 0
 143.633789062 247.154296875 138.231445312 248.225585938 124.896484375 262.479492188 c 0
 116.639648438 271.305664062 113.895507812 275.188476562 113.895507812 289.55078125 c 0
 113.895507812 303.797851562 116.106445312 306.388671875 126.4140625 318.465820312 c 0
 134.607421875 327.763671875 137.069335938 329.239257812 149.006835938 332.912109375 c 0
 153.083007812 334.153320312 158.294921875 336.521484375 159.236328125 337.071289062 c 0
 167.8046875 344.374023438 183.473632812 346.924804688 190.010742188 352.174804688 c 0
 191.25 353.23046875 197.0078125 357.91796875 204.3828125 360.408203125 c 0
 212.788085938 363.245117188 213.071289062 363.376953125 222.059570312 372.98046875 c 0
 230.552734375 382.197265625 231.752929688 385.75 231.752929688 394.629882812 c 0
 231.752929688 394.810546875 231.2734375 409.112304688 228.254882812 412.299804688 c 0
 220.576171875 420.530273438 223.212890625 423.409179688 213.236328125 433.563476562 c 0
 201.963867188 445.037109375 196.25390625 444.60546875 187.711914062 450.584960938 c 0
 184.48046875 452.828125 170.885742188 456.407226562 159.92578125 456.407226562 c 0
 148.986328125 456.407226562 147.305664062 454.8828125 142.732421875 450.735351562 c 0
 135.2265625 443.978515625 132.444335938 434.237304688 127.040039062 428.963867188 c 0
 126.038085938 426.557617188 123.760742188 417.794921875 121.567382812 404.192382812 c 0
 119.295898438 388.930664062 118.037109375 383.36328125 113.193359375 364.856445312 c 0
 109.4140625 349.4453125 106.19921875 279.831054688 104.28515625 274.831054688 c 0
 104.220703125 274.280273438 102.174804688 242.98046875 98.470703125 219.69140625 c 0
 90.44140625 170.170898438 97.8818359375 130.560546875 84.615234375 104.626953125 c 0
 84.5849609375 104.567382812 82.7431640625 100.883789062 81.419921875 98.2392578125 c 0
 82.1357421875 81.18359375 82.5419921875 71.513671875 83.783203125 62.7587890625 c 0
 85.162109375 58.0859375 85.337890625 53.2431640625 85.337890625 46.783203125 c 0
 85.337890625 23.1328125 83.0615234375 11.68359375 67.8984375 4.05078125 c 0
 63.2353515625 1.6103515625 57.5615234375 0 51.2783203125 0 c 0
 44.5439453125 0 42.91015625 0.2744140625 8.5 6.064453125 c 1
 8.5 109.466796875 l 1
 16.21875 109.466796875 l 1
 16.759765625 120.112304688 20.4599609375 162.771484375 21.056640625 176.2734375 c 0
 23.44140625 229.49609375 25.109375 252.389648438 28.66796875 280.739257812 c 0
 32.421875 309.771484375 34.0087890625 325.188476562 35.5009765625 347.689453125 c 0
 37.453125 375.544921875 41.1455078125 403.922851562 46.2060546875 415.2109375 c 0
 47.3447265625 417.649414062 49.091796875 423.672851562 49.2177734375 424.809570312 c 0
 49.2705078125 425.306640625 53.28125 460.94921875 63.1025390625 472.763671875 c 0
 63.572265625 473.641601562 64.8994140625 476.500976562 65.7822265625 478.926757812 c 0
 68.6904296875 486.845703125 73.2626953125 492.548828125 81.787109375 500.8203125 c 0
 105.547851562 523.663085938 109.876953125 526.84375 136.573242188 531.459960938 c 0
 142.135742188 532.428710938 148.43359375 532.783203125 155.299804688 532.783203125 c 0
 166.227539062 532.783203125 215.205078125 530.237304688 232.231445312 518.588867188 c 0
 237.278320312 515.135742188 250.880859375 511.814453125 260.30859375 501.56640625 c 0
 261.046875 500.764648438 262.842773438 498.904296875 264.709960938 497.693359375 c 0
 265.059570312 497.466796875 284.27734375 481.45703125 290.46875 464.946289062 c 0
 291.64453125 461.809570312 294.336914062 456.463867188 294.8671875 455.688476562 c 0
 299.041992188 449.53125 304.87109375 440.932617188 304.87109375 388.087890625 c 0
 304.87109375 376.516601562 304.643554688 362.055664062 299.263671875 348.748046875 c 0
 293.944335938 335.58984375 295.908203125 345.16796875 290.078125 333.890625 c 0
 286.624023438 327.01953125 280.90625 320.5234375 273.206054688 313.087890625 c 2
 273.206054688 313.087890625 272.696289062 312.6015625 271.877929688 311.8203125 c 1
 283.71484375 302.256835938 283.71484375 302.256835938 288.419921875 299.048828125 c 0
 298.251953125 292.34765625 300.956054688 285.072265625 306.70703125 279.896484375 c 0
 315.327148438 272.134765625 318.567382812 261.388671875 324.067382812 253.571289062 c 0
 330.626953125 247.560546875 334.486328125 228.060546875 340.490234375 218.055664062 c 0
 348.373046875 204.967773438 349.913085938 192.768554688 350.907226562 160.442382812 c 0
 351.08984375 154.743164062 351.174804688 148.830078125 351.174804688 142.8984375 c 0
 351.174804688 84.439453125 347 74.8115234375 339.712890625 65.4453125 c 0
 335.31640625 59.794921875 334.846679688 51.9345703125 319.998046875 35.70703125 c 0
 312.056640625 27.134765625 306.306640625 23.001953125 296.875976562 19.3134765625 c 0
 292.181640625 17.56640625 286.337890625 14.4921875 286.337890625 14.4921875 c 1
 271.056640625 2.810546875 230.552734375 2.47265625 218.680664062 2.47265625 c 0
 188.1953125 2.47265625 154.415039062 4.607421875 138.069335938 12.9013671875 c 0
 135.975585938 13.947265625 128.29296875 16.935546875 123.169921875 18.4609375 c 0
 113.080078125 21.5263671875 99.0458984375 26.63671875 99.0458984375 41.4267578125 c 0
 99.0458984375 48.1376953125 101.842773438 53.23046875 105.010742188 58.3369140625 c 0
 110.584960938 67.0966796875 114.772460938 80.833984375 122.887695312 86.455078125 c 0
 129.108398438 90.474609375 135.561523438 91.3623046875 144.26171875 91.3623046875 c 0
 156.248046875 91.3623046875 169.893554688 88.8427734375 180.790039062 83.2470703125 c 0
 189.690429688 78.6962890625 193.688476562 77.7177734375 214.08984375 77.7177734375 c 0
 214.997070312 77.7177734375 215.999023438 77.720703125 216.967773438 77.7255859375 c 0
 235.697265625 77.7255859375 235.697265625 77.7255859375 243.340820312 82.8251953125 c 0
 252.349609375 88.8349609375 264.293945312 89.5361328125 265.479492188 92.484375 c 0
 265.80859375 93.3046875 267.288085938 96.7275390625 270.76953125 101.856445312 c 0
 274.35546875 107.198242188 276.978515625 117.60546875 276.978515625 141.6875 c 0
 276.856445312 163.989257812 275.018554688 173.184570312 270.293945312 182.762695312 c 0
 262.8046875 197.39453125 264.737304688 200.072265625 259.204101562 206.921875 c 0
 250.482421875 217.71875 248.42578125 224.203125 243.23828125 229.344726562 c 0
 234.556640625 234.389648438 228.953125 242.368164062 222.750976562 245.215820312 c 0
 216.555664062 248.060546875 200.600585938 248.657226562 193.22265625 248.657226562 c 0
EndSplineSet
EndChar

